<?xml version="1.0" encoding="UTF-8" standalone="no"?>
<!DOCTYPE svg PUBLIC "-//W3C//DTD SVG 1.1//EN" "http://www.w3.org/Graphics/SVG/1.1/DTD/svg11.dtd">
<!-- Created with Vectornator (http://vectornator.io/) -->
<svg height="100%" stroke-miterlimit="10" style="fill-rule:nonzero;clip-rule:evenodd;stroke-linecap:round;stroke-linejoin:round;" version="1.1" viewBox="0 0 800 300" width="100%" xml:space="preserve" xmlns="http://www.w3.org/2000/svg" xmlns:vectornator="http://vectornator.io" xmlns:xlink="http://www.w3.org/1999/xlink">
<defs/>
<g id="Untitled" vectornator:layerName="Untitled">
<g opacity="1" vectornator:layerName="g">
<g opacity="1" vectornator:layerName="path">
<clipPath clip-rule="nonzero" id="ClipPath">
<path d="M10.5371 260.625L789.463 260.625L789.463 39.3748L10.5371 39.3748L10.5371 260.625Z"/>
</clipPath>
<g clip-path="url(#ClipPath)">
<g opacity="1" vectornator:layerName="path">
<clipPath clip-rule="nonzero" id="ClipPath_2">
<path d="M12.6044 40.692L789.463 40.692L789.463 260.625L12.6044 260.625L12.6044 40.692Z"/>
</clipPath>
<g clip-path="url(#ClipPath_2)">
<path d="M789.122 89.0239C789.16 91.9395 788.933 94.8648 788.526 97.7521C787.669 103.83 785.482 109.609 784.209 115.592C783.892 117.083 783.584 118.574 783.395 119.502C782.685 122.981 781.956 126.45 781.199 129.915C780.493 133.124 779.641 136.295 778.799 139.471C777.947 142.695 776.967 145.885 776.115 149.108C775.244 152.412 774.402 155.716 773.559 159.029C773.024 161.131 772.532 163.247 772.092 165.377C771.779 166.934 771.476 168.501 771.263 169.542C770.004 175.71 768.698 181.92 766.639 187.879C765.707 190.568 764.812 193.27 763.785 195.926C762.867 198.288 762.081 200.697 761.182 203.068C760.348 205.274 759.43 207.456 758.517 209.638C757.679 211.65 756.813 213.657 755.823 215.607C753.987 219.218 751.535 222.692 748.174 225.04C745.566 226.858 742.608 228.069 739.598 229.059C736.294 230.147 732.891 230.905 729.497 231.657C725.374 232.566 721.18 232.755 716.996 233.21C712.045 233.745 707.099 234.242 702.129 234.545C697.031 234.857 691.914 234.881 686.807 235.084C684.393 235.184 681.984 235.302 679.565 235.321C677.175 235.34 674.794 235.349 672.404 235.269C668.205 235.127 664.011 234.999 659.808 234.904C659.605 234.9 659.406 234.9 659.202 234.895C658.923 234.985 658.625 235.032 658.322 235.042C656.348 235.103 654.37 235.051 652.396 235.032C650.436 235.013 648.472 235.013 646.512 235.018C641.893 235.032 637.278 235.146 632.663 235.326C624.914 235.633 617.156 235.969 609.399 235.932C601.399 235.894 593.405 235.662 585.41 235.401C577.775 235.155 570.136 234.895 562.501 234.601C554.208 234.28 545.911 234.256 537.623 233.816C528.719 233.342 519.825 232.779 510.917 232.405C506.449 232.221 501.971 232.24 497.503 232.187C493.101 232.131 488.695 232.079 484.297 231.97C475.948 231.766 467.608 231.501 459.258 231.378C442.521 231.122 425.784 231.156 409.047 231.563C400.915 231.762 392.788 232.135 384.661 232.5C376.255 232.874 367.863 233.513 359.456 233.877C355.802 234.033 352.148 234.095 348.494 234.104C344.381 234.109 340.272 234.194 336.164 234.346C328.112 234.639 320.075 235.146 312.024 235.378C304.787 235.586 297.549 235.629 290.312 235.676C283.203 235.719 276.074 235.723 269.348 236.154C266.286 236.372 263.223 236.741 260.18 237.124C257.255 237.489 254.344 237.972 251.457 238.559C248.986 239.065 246.51 239.6 244.073 240.253C241.602 240.911 239.164 241.673 237.124 242.383C234.653 243.244 232.192 244.158 229.773 245.171C227.643 246.061 225.494 246.965 223.421 247.983C221.182 249.137 219.081 250.52 216.861 251.703C214.679 252.858 212.411 253.771 210.144 254.737C210.05 254.775 209.96 254.817 209.865 254.855C209.302 255.215 208.719 255.542 208.156 255.849C207.025 256.474 205.917 257.113 204.729 257.634C204.005 257.951 203.262 258.23 202.505 258.467C202.107 258.58 201.709 258.67 201.321 258.798C200.933 258.94 200.545 259.082 200.157 259.219C200.105 259.238 200.053 259.253 200.005 259.271C199.944 259.295 199.882 259.314 199.826 259.338L199.821 259.338C198.993 259.641 198.193 259.963 197.312 260.105C196.579 260.223 195.802 260.289 195.059 260.313C194.846 260.318 194.638 260.322 194.43 260.322C193.549 260.322 192.674 260.256 191.807 260.105C190.96 259.953 190.184 259.759 189.431 259.324C188.882 259.002 188.314 258.552 187.874 258.093C187.074 257.26 186.605 256.27 186.298 255.414C186.251 255.286 186.208 255.163 186.17 255.04L186.16 255.012C185.82 253.961 185.574 252.882 185.238 251.831C185.006 251.201 184.745 250.586 184.528 249.952C184.466 249.772 184.404 249.592 184.348 249.417L184.087 248.721C183.813 247.94 183.548 247.178 183.344 246.373C183.169 245.696 182.951 245.034 182.729 244.376C182.71 244.328 182.696 244.281 182.677 244.234C182.099 242.591 181.375 240.972 180.608 239.406C180.571 239.335 180.528 239.269 180.49 239.198C180.012 238.535 179.491 237.901 178.956 237.281C178.715 237.015 178.455 236.769 178.19 236.528C177.565 235.993 176.916 235.487 176.249 235.009C175.974 234.9 175.709 234.8 175.454 234.71C175.359 234.677 175.269 234.649 175.179 234.616L175.17 234.616C173.054 233.906 170.877 233.385 168.851 232.964C168.785 232.949 168.723 232.94 168.661 232.926L168.562 232.907C166.593 232.524 164.605 232.301 162.617 232.069C160.208 231.79 157.799 231.586 155.55 231.421C155.456 231.416 155.366 231.406 155.276 231.402L155.157 231.397C154.907 231.378 154.656 231.364 154.405 231.35C153.07 231.406 151.735 231.492 150.4 231.572L149.941 231.601C145.8 231.884 141.663 232.292 137.521 232.561C135.746 232.675 133.966 232.779 132.191 232.841C130.549 232.897 128.897 232.841 127.278 232.931C127.122 232.94 126.966 232.949 126.81 232.964C125.215 233.077 123.629 233.21 122.034 233.271C120.254 233.338 118.479 233.319 116.699 233.328C115.08 233.342 113.457 233.38 111.838 233.465C110.281 233.546 108.728 233.47 107.176 233.376C105.832 233.29 104.497 233.148 103.167 233.049C102.149 232.992 101.136 232.959 100.118 232.935C94.7225 233.399 89.336 233.962 83.9353 234.36C80.2953 234.625 76.6318 234.833 72.9777 234.81C69.2951 234.786 65.608 234.682 61.9254 234.512C58.2523 234.341 54.6171 233.925 51.0293 233.101C48.4402 232.5 45.9031 231.672 43.3898 230.824C41.629 230.228 39.8966 229.584 38.1927 228.85C36.4412 228.098 34.6663 227.326 33.038 226.323C31.4572 225.348 30.0135 224.212 28.6218 222.976C27.5238 222.001 26.5676 220.875 25.602 219.767C24.2199 218.219 22.7999 216.728 21.5409 215.067C20.5043 213.694 19.4961 212.293 18.521 210.869C16.391 207.759 14.7012 204.412 13.8492 200.72C13.409 198.813 13.1629 196.901 13.0872 194.946C13.0209 193.213 12.9073 191.491 12.9262 189.758C12.9688 185.631 13.8161 181.517 14.5782 177.48C15.5437 172.382 16.4951 167.27 17.2572 162.139C18.0761 156.62 18.5778 151.063 19.1741 145.521C19.922 138.596 20.8546 131.695 21.574 124.77C21.8769 121.859 22.2178 118.953 22.5632 116.046C22.9135 113.15 23.207 110.248 23.5336 107.351C24.2246 101.122 25.1902 94.9405 26.6481 88.8393C28.0113 83.1262 29.985 77.4509 32.7399 72.2538C33.9658 69.9345 35.5372 67.8328 37.0898 65.7265C38.4246 63.9089 39.8682 62.1718 41.345 60.4726C44.0666 57.3392 46.9871 54.2056 50.4235 51.8437C56.7377 47.5081 64.2542 45.5532 71.6997 44.2042C74.7574 43.6504 77.8199 43.2007 80.9108 42.8646C82.4254 42.6942 83.9353 42.5191 85.4547 42.396C87.0119 42.2683 88.5645 42.2068 89.9608 42.1216C90.0412 42.1169 90.117 42.1121 90.1974 42.1026L90.2495 42.0978C94.6184 41.7713 98.9777 41.3642 103.361 41.2128C109.599 40.995 115.838 41.0187 122.081 41.0187C125.106 41.0187 128.125 41.0897 131.141 41.2553C133.715 41.3973 136.309 41.2885 138.884 41.2459C144.796 41.1512 150.703 41.1512 156.615 41.2411C160.435 41.3027 164.245 41.492 168.056 41.6955C170.176 41.8043 172.297 41.9133 174.412 42.0789C176.197 42.2162 177.972 42.4576 179.354 42.5522C184.4 42.8695 189.441 43.2385 194.075 43.5511C195.608 43.6551 197.142 43.764 198.268 43.8397C203.612 44.1947 208.97 44.2846 214.324 44.332C218.659 44.3745 222.976 44.3936 227.26 44.1284C227.307 44.1237 227.35 44.1237 227.397 44.119C227.473 44.1143 227.553 44.1095 227.567 44.1095C229.096 44.0054 230.625 43.906 232.069 43.8066C233.517 43.712 234.961 43.6078 236.405 43.5131C237.105 43.4657 237.806 43.4185 238.506 43.3711C238.766 43.3522 239.022 43.3333 239.273 43.3239C239.339 43.3143 239.401 43.3096 239.467 43.3048C240.357 43.2481 241.242 43.1866 241.985 43.1392C245.052 42.9262 248.115 42.6942 251.187 42.5713C253.804 42.467 256.422 42.3441 259.044 42.2683C263.673 42.1358 268.293 41.9464 272.922 42.0742C281.835 42.3156 290.729 43.0066 299.585 43.9722C302.922 43.783 306.259 43.7072 309.605 43.6172C313.113 43.5273 316.62 43.4185 320.132 43.3286C326.981 43.1534 333.849 43.3996 340.698 43.5605C343.969 43.6362 347.244 43.6835 350.515 43.6693C354.16 43.6504 357.795 43.4942 361.435 43.3711C367.664 43.1581 373.893 42.9972 380.117 42.7037C383.426 42.5475 386.749 42.5522 390.062 42.5002C393.219 42.4576 396.376 42.434 399.538 42.4198C403.036 42.4055 406.539 42.4102 410.036 42.4151C413.728 42.4245 417.425 42.4292 421.122 42.4151C428.331 42.3771 435.539 42.4812 442.748 42.5286C446.696 42.557 450.634 42.6374 454.577 42.699C458.141 42.7511 461.701 42.7463 465.26 42.7558C468.639 42.7652 472.014 42.7937 475.389 42.718C478.873 42.6423 482.357 42.5191 485.836 42.4765C498.611 42.3345 511.381 41.9937 524.142 41.4636C531.498 41.156 538.877 41.1086 546.237 41.0613C553.29 41.0187 560.328 41.35 567.362 41.8659C570.907 42.0978 574.462 42.183 578.017 42.3109C581.997 42.4529 585.974 42.576 589.954 42.7558C593.476 42.9167 596.997 43.0493 600.519 43.1771C603.193 43.2765 605.868 43.2907 608.542 43.3664C610.98 43.4374 613.412 43.4895 615.845 43.5889C618.274 43.6929 620.697 43.6457 623.125 43.6078C625.506 43.57 627.887 43.4753 630.268 43.39C632.904 43.2954 635.545 43.2907 638.182 43.2576C643.63 43.1866 649.073 43.1156 654.517 43.2244C658.691 43.3048 662.866 43.3522 667.041 43.4516C671.481 43.5605 675.92 43.674 680.36 43.8208C684.351 43.9486 688.341 44.1426 692.331 44.2846C694.238 44.19 696.151 44.0859 698.058 43.9722C703.681 43.6315 709.319 43.3475 714.947 43.1345C717.839 43.0256 720.731 42.9735 723.623 42.8079C726.619 42.6423 729.596 42.5097 732.597 42.6327C735.413 42.7511 738.239 42.8599 741.046 43.1675C743.19 43.3996 745.301 43.7687 747.408 44.2278C749.173 44.616 750.915 45.0846 752.662 45.5437C754.697 46.0786 756.742 46.5661 758.758 47.1862C761.191 47.9387 763.619 48.7434 765.962 49.7421C768.428 50.7929 770.743 52.1893 772.887 53.7939C774.78 55.2091 776.532 56.9037 778.103 58.6692C779.793 60.5719 781.341 62.6214 782.6 64.8367C783.84 67.014 784.886 69.2954 785.714 71.6574C786.675 74.3885 787.555 77.1622 788.128 80.0022C788.725 82.9605 789.084 85.9993 789.122 89.0239Z" fill="#faa500" fill-rule="nonzero" opacity="1" stroke="none" vectornator:layerName="path"/>
</g>
</g>
<g opacity="1" vectornator:layerName="path">
<clipPath clip-rule="nonzero" id="ClipPath_3">
<path d="M59.2464 92.9101L745.026 92.9101L745.026 188.599L59.2464 188.599L59.2464 92.9101Z"/>
</clipPath>
<g clip-path="url(#ClipPath_3)">
<path d="M115.27 125.906C115.289 125.555 115.294 125.205 115.284 124.855C115.265 124.675 115.237 124.5 115.204 124.32C115.161 124.136 115.114 123.951 115.057 123.771C115.01 123.681 114.953 123.596 114.901 123.515C114.825 123.411 114.749 123.307 114.673 123.212C114.375 122.891 114.068 122.583 113.746 122.29C113.675 122.233 113.604 122.181 113.528 122.124C113.414 122.048 113.296 121.977 113.178 121.906C112.771 121.726 112.354 121.57 111.938 121.423C111.554 121.296 111.161 121.182 110.764 121.087C110.631 121.064 110.499 121.04 110.361 121.026C109.704 121.002 109.036 121.002 108.378 121.04L108.052 121.064C107.124 121.13 106.191 121.215 105.259 121.248C104.894 121.258 104.53 121.248 104.166 121.239C103.82 121.229 103.47 121.215 103.124 121.229C102.736 121.258 102.353 121.281 101.965 121.305C101.491 121.333 101.023 121.253 100.554 121.206C100.436 121.196 100.317 121.196 100.199 121.191C100.142 121.333 100.09 121.475 100.038 121.617C99.7588 122.503 99.5458 123.411 99.3518 124.32C99.2145 125.063 99.1293 125.816 99.0678 126.573C98.9116 129.082 98.921 131.638 99.0394 133.522C99.0725 133.99 99.1057 134.459 99.1388 134.923C99.1719 135.334 99.2145 135.746 99.2713 136.153C101.6 135.718 103.981 135.576 106.305 135.136C106.987 134.984 107.664 134.809 108.326 134.587C108.435 134.544 108.544 134.497 108.648 134.449C109.046 134.251 109.443 134.057 109.836 133.862C110.333 133.612 110.811 133.347 111.275 133.048C111.559 132.845 111.834 132.632 112.103 132.405C112.387 132.144 112.662 131.875 112.922 131.595C113.164 131.311 113.386 131.018 113.594 130.715C113.921 130.223 114.224 129.711 114.498 129.186C114.631 128.916 114.744 128.637 114.853 128.353C114.924 128.121 114.991 127.894 115.047 127.657C115.152 127.075 115.223 126.493 115.27 125.906ZM145.525 114.835C145.984 116.908 146.088 118.981 145.956 121.087C145.672 124.798 144.631 128.438 143.305 131.898C142.595 133.754 141.701 135.548 140.749 137.285C139.675 139.244 138.449 141.09 136.972 142.766C133.858 146.302 130.047 149.241 125.887 151.447C121.418 153.823 116.529 155.181 111.587 156.156C108.586 156.753 105.538 157.089 102.533 157.671C100.866 158.012 99.2145 158.419 97.6005 158.963C97.1697 159.119 96.7484 159.285 96.3414 159.484C96.2088 159.555 96.0764 159.626 95.9485 159.706C95.8728 159.763 95.7971 159.82 95.7213 159.882C95.7072 159.891 95.6977 159.905 95.6881 159.915C95.3663 160.293 95.0587 160.677 94.7746 161.079C94.5569 161.41 94.3582 161.761 94.1688 162.111C94.0883 162.281 94.0173 162.452 93.951 162.627C93.5629 163.834 93.35 165.102 93.1323 166.096C92.834 167.573 92.6352 169.074 92.3417 170.55C91.9963 172.306 91.4898 173.991 90.9785 175.426C90.7324 176.145 90.4769 176.855 90.2259 177.575C89.8142 178.796 89.4119 180.055 88.8391 181.21C88.1953 182.507 87.2582 183.529 86.1458 184.443C85.1565 185.257 83.9827 185.886 82.8041 186.379C81.493 186.928 80.0777 187.089 78.672 187.216C77.4318 187.33 76.1634 187.401 74.8901 187.401C73.1435 187.401 71.3969 187.268 69.7165 186.918C66.9901 186.355 64.2827 184.859 62.6923 182.516C60.9552 179.951 60.1458 176.77 59.8855 173.717C59.5494 169.788 60.108 165.916 60.7848 162.054C61.6699 157.023 62.3609 151.963 63.3976 146.964C63.8472 144.801 64.3158 142.638 64.7891 140.48L64.8034 140.333C64.9075 138.795 65.0353 137.266 65.2057 135.727C65.3903 134.128 65.6459 132.542 65.8352 130.947C66.1192 128.547 66.3891 126.142 66.6967 123.747C66.8056 122.943 66.9049 122.138 66.9665 121.324C67.0328 120.254 67.0801 119.184 67.2126 118.119C67.3451 117.116 67.4777 116.113 67.6197 115.114C67.8989 113.154 68.1546 111.19 68.4717 109.235C69.1344 105.231 70.1899 101.198 73.1245 98.2254C73.5363 97.8136 73.9718 97.4302 74.4357 97.0752C74.9847 96.228 75.903 95.6457 76.9349 95.5464C78.9796 94.5618 81.2611 94.0128 83.481 93.8519C88.5836 93.4874 93.7049 93.653 98.8169 93.4874C101.856 93.3928 104.904 93.2128 107.938 93.2318C111.644 93.2602 115.393 93.5016 119.052 94.0744C121.082 94.3962 123.099 94.8317 125.101 95.3003C125.962 95.5038 126.885 95.7073 127.728 96.0529C127.96 96.1333 128.192 96.2232 128.424 96.3037C129.262 96.6019 130.095 96.9237 130.904 97.2977C132.845 98.197 134.643 99.3094 136.371 100.564C137.881 101.662 139.272 102.921 140.494 104.336C141.786 105.837 142.822 107.541 143.703 109.311C144.564 111.053 145.109 112.937 145.525 114.835Z" fill="#01489e" fill-rule="nonzero" opacity="1" stroke="none" vectornator:layerName="path"/>
<path d="M209.609 103.2C210.158 105.34 209.908 107.347 209.363 109.462C208.895 111.27 208.237 113.107 207.404 114.783C206.239 117.121 204.19 118.607 201.795 119.549C200.114 120.207 198.363 120.486 196.825 120.798C195.452 121.078 194.065 121.324 192.664 121.456C191.112 121.603 189.554 121.707 188.641 121.764C187.202 121.863 185.768 121.92 184.324 121.92C183.33 121.92 182.331 121.934 181.342 121.873C180.679 121.83 180.017 121.802 179.364 121.684C178.99 121.617 178.62 121.551 178.242 121.504C178.133 121.504 178.019 121.504 177.91 121.504C177.825 121.518 177.735 121.527 177.65 121.542C177.603 121.556 177.56 121.565 177.513 121.58C177.499 121.584 177.489 121.589 177.48 121.594C177.47 121.603 177.461 121.613 177.451 121.622C177.361 121.731 177.276 121.845 177.191 121.958C177.082 122.138 176.978 122.318 176.879 122.507C176.703 122.876 176.552 123.255 176.405 123.639C176.372 123.757 176.334 123.875 176.306 123.998C176.211 124.552 176.159 125.111 176.112 125.674C176.538 125.802 176.968 125.911 177.404 126.005C178.999 126.308 180.618 126.469 181.583 126.535C184.854 126.753 188.068 127.084 190.719 127.629C191.178 127.719 191.637 127.809 192.096 127.903C194.155 128.296 196.304 128.5 198.008 129.863C199.963 131.425 200.791 133.872 200.966 136.295C201.137 138.653 200.663 141.175 199.651 143.31C198.467 145.814 196.356 147.575 193.923 148.787C192.006 149.743 189.905 150.079 187.808 150.386C186.582 150.566 185.309 150.571 184.068 150.524C182.805 150.481 181.541 150.391 180.282 150.287C179.718 150.244 179.155 150.192 178.597 150.14C177.508 150.046 176.457 149.828 175.818 149.695C175.582 149.653 175.345 149.62 175.103 149.591C174.99 149.591 174.881 149.591 174.767 149.591C174.725 149.596 174.687 149.601 174.649 149.605C174.644 149.61 174.64 149.615 174.635 149.62C174.588 149.676 174.54 149.733 174.498 149.795C174.351 150.031 174.214 150.268 174.086 150.514C173.788 151.13 173.523 151.764 173.286 152.408C172.571 154.533 172.022 156.729 171.558 158.925C171.525 159.1 171.502 159.28 171.478 159.46L171.483 159.465C171.502 159.479 171.516 159.493 171.535 159.503C171.591 159.541 171.648 159.574 171.71 159.607C171.899 159.692 172.088 159.777 172.282 159.853C172.78 160.004 173.286 160.128 173.797 160.241C175.496 160.558 177.219 160.681 178.299 160.752C180.121 160.871 181.938 160.994 183.756 161.169C185.228 161.306 186.691 161.524 188.158 161.69C190.941 161.992 194.094 162.74 196.053 164.913C197.98 167.048 198.874 169.93 198.709 172.789C198.609 174.559 198.354 176.401 197.601 178.019C197.118 179.061 196.522 179.984 195.755 180.841C195.097 181.579 194.359 182.156 193.563 182.71C191.822 183.841 189.881 184.741 187.888 185.318C185.588 185.986 183.202 186.189 180.817 186.312C180.187 186.345 179.558 186.355 178.923 186.355C177.352 186.355 175.771 186.279 174.204 186.199C172.069 186.09 169.939 185.948 167.805 185.82C166.607 185.754 165.41 185.664 164.397 185.593C164.302 185.588 164.203 185.583 164.108 185.574L164.042 185.574C160.79 185.384 157.548 185.536 154.291 185.616C152.635 185.659 150.916 185.669 149.283 185.384C146.32 184.864 143.793 183.311 141.847 181.035C138.813 177.485 138.061 172.5 138.274 167.961C138.354 166.144 138.51 164.326 138.813 162.532C139.126 160.658 139.561 158.807 139.982 156.952C140.711 153.738 141.398 150.51 142.24 147.319C142.969 144.531 143.722 141.748 144.323 138.927C144.38 138.671 144.432 138.411 144.484 138.151C145.075 135.197 145.591 132.229 146.155 129.276C146.718 126.332 147.21 123.378 147.669 120.42C147.944 118.65 148.152 116.875 148.318 115.095C148.412 114.02 148.498 112.941 148.63 111.871C148.786 110.655 149.146 109.491 149.411 108.298C149.851 106.319 150.49 104.435 151.532 102.694C152.294 101.416 153.259 100.308 154.405 99.3804C154.902 98.1875 156.014 97.2929 157.325 97.1131C157.761 97.0563 158.187 97.0752 158.589 97.1604C159.38 96.9379 160.179 96.7392 160.979 96.5924C163.062 96.209 165.116 96.1096 167.223 96.2279C170.446 96.4504 173.665 96.7297 176.883 97.0516C177.375 97.1037 177.873 97.1509 178.365 97.1983C178.938 97.1888 179.51 97.1794 180.083 97.1651C183.434 97.0846 186.781 97.0231 190.132 96.9947C191.665 96.9853 193.194 96.99 194.728 96.9947C196.214 96.9947 197.71 96.9473 199.196 97.0089C201.515 97.0988 203.944 97.2455 206.026 98.3815C207.867 99.3851 209.098 101.198 209.609 103.2Z" fill="#01489e" fill-rule="nonzero" opacity="1" stroke="none" vectornator:layerName="path"/>
<path d="M539.578 126.8C539.592 126.45 539.597 126.1 539.587 125.75C539.573 125.57 539.545 125.395 539.516 125.215C539.474 125.03 539.431 124.846 539.379 124.666C539.336 124.576 539.284 124.49 539.232 124.41C539.166 124.306 539.095 124.202 539.024 124.107C538.749 123.785 538.465 123.478 538.167 123.184C538.101 123.127 538.035 123.075 537.964 123.018C537.859 122.943 537.751 122.872 537.642 122.801C537.268 122.621 536.88 122.465 536.496 122.318C536.141 122.19 535.777 122.077 535.412 121.982C535.289 121.958 535.166 121.935 535.038 121.92C534.433 121.897 533.812 121.897 533.207 121.935L532.904 121.958C532.047 122.024 531.185 122.11 530.324 122.143C529.988 122.152 529.652 122.143 529.311 122.133C528.994 122.124 528.672 122.11 528.35 122.124C527.99 122.152 527.635 122.176 527.281 122.2C526.84 122.228 526.41 122.148 525.974 122.1C525.865 122.091 525.756 122.091 525.647 122.086C525.595 122.228 525.548 122.37 525.501 122.512C525.24 123.397 525.042 124.306 524.867 125.215C524.739 125.958 524.658 126.71 524.601 127.468C524.459 129.976 524.464 132.532 524.578 134.416C524.606 134.885 524.635 135.353 524.668 135.817C524.696 136.229 524.739 136.641 524.791 137.048C526.944 136.613 529.141 136.471 531.29 136.03C531.919 135.879 532.544 135.704 533.159 135.481C533.259 135.439 533.358 135.391 533.457 135.344C533.822 135.145 534.191 134.951 534.556 134.757C535.015 134.506 535.455 134.241 535.886 133.943C536.146 133.739 536.402 133.526 536.648 133.299C536.913 133.039 537.164 132.769 537.405 132.49C537.627 132.206 537.836 131.912 538.025 131.609C538.328 131.117 538.607 130.606 538.863 130.081C538.986 129.811 539.09 129.532 539.19 129.247C539.256 129.016 539.317 128.788 539.369 128.552C539.464 127.969 539.53 127.387 539.578 126.8ZM567.537 115.729C567.963 117.802 568.058 119.876 567.935 121.982C567.675 125.693 566.709 129.333 565.488 132.793C564.83 134.648 564.002 136.442 563.121 138.179C562.132 140.139 560.996 141.985 559.633 143.66C556.755 147.196 553.233 150.136 549.39 152.341C545.258 154.717 540.737 156.076 536.174 157.051C533.401 157.647 530.58 157.983 527.806 158.566C526.263 158.906 524.739 159.313 523.248 159.858C522.85 160.014 522.457 160.18 522.083 160.378C521.96 160.449 521.837 160.52 521.719 160.601C521.648 160.658 521.577 160.715 521.511 160.776C521.496 160.786 521.487 160.8 521.477 160.809C521.179 161.188 520.895 161.571 520.635 161.974C520.431 162.305 520.252 162.655 520.076 163.005C520.001 163.176 519.934 163.346 519.873 163.521C519.513 164.728 519.319 165.997 519.116 166.991C518.841 168.468 518.656 169.968 518.387 171.445C518.065 173.201 517.596 174.886 517.128 176.32C516.9 177.04 516.664 177.75 516.432 178.469C516.048 179.69 515.679 180.949 515.149 182.104C514.553 183.401 513.686 184.424 512.659 185.337C511.746 186.151 510.662 186.781 509.573 187.273C508.361 187.822 507.05 187.983 505.753 188.111C504.608 188.225 503.434 188.296 502.255 188.296C500.641 188.296 499.027 188.163 497.475 187.813C494.957 187.249 492.453 185.754 490.985 183.411C489.381 180.845 488.633 177.665 488.392 174.611C488.079 170.683 488.595 166.811 489.22 162.949C490.039 157.917 490.678 152.857 491.634 147.859C492.05 145.696 492.486 143.533 492.921 141.374L492.936 141.227C493.03 139.689 493.149 138.16 493.305 136.622C493.48 135.022 493.712 133.437 493.887 131.841C494.152 129.442 494.403 127.037 494.687 124.642C494.786 123.837 494.876 123.033 494.933 122.219C494.995 121.149 495.037 120.079 495.16 119.014C495.283 118.011 495.406 117.007 495.539 116.009C495.795 114.049 496.031 112.085 496.325 110.13C496.94 106.125 497.915 102.093 500.627 99.12C501.006 98.7082 501.408 98.3248 501.839 97.9698C502.345 97.1225 503.193 96.5403 504.149 96.441C506.037 95.4564 508.144 94.9074 510.198 94.7465C514.912 94.382 519.646 94.5476 524.369 94.382C527.176 94.2874 529.997 94.1074 532.8 94.1264C536.226 94.1548 539.691 94.3962 543.071 94.9689C544.945 95.2908 546.81 95.7263 548.661 96.1949C549.456 96.3984 550.313 96.6019 551.089 96.9475C551.302 97.0279 551.52 97.1178 551.733 97.1983C552.504 97.4965 553.276 97.8183 554.024 98.1923C555.818 99.0916 557.479 100.204 559.079 101.458C560.47 102.556 561.758 103.815 562.889 105.231C564.082 106.731 565.038 108.435 565.852 110.205C566.647 111.947 567.154 113.831 567.537 115.729Z" fill="#ffffff" fill-rule="nonzero" opacity="1" stroke="none" vectornator:layerName="path"/>
<path d="M275.043 103.2C275.592 105.34 275.341 107.347 274.796 109.462C274.328 111.27 273.67 113.107 272.837 114.783C271.673 117.121 269.623 118.607 267.228 119.549C265.548 120.207 263.796 120.486 262.258 120.798C260.885 121.078 259.498 121.324 258.097 121.456C256.545 121.603 254.988 121.707 254.074 121.764C252.635 121.863 251.201 121.92 249.757 121.92C248.763 121.92 247.765 121.934 246.775 121.873C246.113 121.83 245.45 121.802 244.797 121.684C244.423 121.617 244.054 121.551 243.675 121.504C243.566 121.504 243.453 121.504 243.344 121.504C243.258 121.518 243.168 121.527 243.083 121.542C243.036 121.556 242.993 121.565 242.946 121.58C242.932 121.584 242.922 121.589 242.913 121.594C242.903 121.603 242.894 121.613 242.884 121.622C242.795 121.731 242.709 121.845 242.624 121.958C242.515 122.138 242.411 122.318 242.312 122.507C242.137 122.876 241.985 123.255 241.838 123.639C241.805 123.757 241.767 123.875 241.739 123.998C241.644 124.552 241.592 125.111 241.545 125.674C241.971 125.802 242.402 125.911 242.837 126.005C244.432 126.308 246.051 126.469 247.017 126.535C250.287 126.753 253.501 127.084 256.152 127.629C256.611 127.719 257.07 127.809 257.529 127.903C259.588 128.296 261.737 128.5 263.441 129.863C265.396 131.425 266.224 133.872 266.4 136.295C266.57 138.653 266.097 141.175 265.084 143.31C263.9 145.814 261.789 147.575 259.356 148.787C257.439 149.743 255.338 150.079 253.241 150.386C252.015 150.566 250.742 150.571 249.502 150.524C248.238 150.481 246.974 150.391 245.715 150.287C245.152 150.244 244.589 150.192 244.03 150.14C242.941 150.046 241.89 149.828 241.252 149.695C241.015 149.653 240.778 149.62 240.537 149.591C240.423 149.591 240.314 149.591 240.201 149.591C240.158 149.596 240.12 149.601 240.082 149.605C240.078 149.61 240.073 149.615 240.068 149.62C240.021 149.676 239.974 149.733 239.931 149.795C239.784 150.031 239.647 150.268 239.519 150.514C239.221 151.13 238.956 151.764 238.719 152.408C238.004 154.533 237.455 156.729 236.992 158.925C236.958 159.1 236.935 159.28 236.911 159.46L236.916 159.465C236.935 159.479 236.949 159.493 236.968 159.503C237.025 159.541 237.081 159.574 237.143 159.607C237.332 159.692 237.522 159.777 237.716 159.853C238.213 160.004 238.719 160.128 239.23 160.241C240.93 160.558 242.653 160.681 243.732 160.752C245.554 160.871 247.372 160.994 249.189 161.169C250.661 161.306 252.124 161.524 253.591 161.69C256.374 161.992 259.527 162.74 261.486 164.913C263.413 167.048 264.307 169.93 264.142 172.789C264.042 174.559 263.787 176.401 263.034 178.019C262.551 179.061 261.955 179.984 261.188 180.841C260.53 181.579 259.792 182.156 258.997 182.71C257.255 183.841 255.314 184.741 253.321 185.318C251.021 185.986 248.635 186.189 246.25 186.312C245.62 186.345 244.991 186.355 244.357 186.355C242.785 186.355 241.204 186.279 239.637 186.199C237.503 186.09 235.373 185.948 233.238 185.82C232.04 185.754 230.843 185.664 229.83 185.593C229.735 185.588 229.636 185.583 229.541 185.574L229.475 185.574C226.223 185.384 222.981 185.536 219.724 185.616C218.068 185.659 216.35 185.669 214.717 185.384C211.754 184.864 209.226 183.311 207.281 181.035C204.246 177.485 203.494 172.5 203.707 167.961C203.787 166.144 203.944 164.326 204.246 162.532C204.559 160.658 204.994 158.807 205.416 156.952C206.145 153.738 206.831 150.51 207.673 147.319C208.402 144.531 209.155 141.748 209.756 138.927C209.813 138.671 209.865 138.411 209.917 138.151C210.509 135.197 211.025 132.229 211.588 129.276C212.151 126.332 212.643 123.378 213.103 120.42C213.377 118.65 213.585 116.875 213.751 115.095C213.846 114.02 213.931 112.941 214.063 111.871C214.22 110.655 214.579 109.491 214.844 108.298C215.285 106.319 215.924 104.435 216.965 102.694C217.727 101.416 218.693 100.308 219.838 99.3804C220.335 98.1875 221.447 97.2929 222.759 97.1131C223.194 97.0563 223.62 97.0752 224.022 97.1604C224.813 96.9379 225.613 96.7392 226.413 96.5924C228.495 96.209 230.549 96.1096 232.656 96.2279C235.879 96.4504 239.098 96.7297 242.317 97.0516C242.809 97.1037 243.306 97.1509 243.798 97.1983C244.371 97.1888 244.944 97.1794 245.516 97.1651C248.867 97.0846 252.214 97.0231 255.565 96.9947C257.099 96.9853 258.627 96.99 260.161 96.9947C261.647 96.9947 263.143 96.9473 264.629 97.0089C266.949 97.0988 269.377 97.2455 271.46 98.3815C273.301 99.3851 274.531 101.198 275.043 103.2Z" fill="#01489e" fill-rule="nonzero" opacity="1" stroke="none" vectornator:layerName="path"/>
<path d="M492.775 103.158C493.324 105.297 493.073 107.304 492.529 109.42C492.06 111.228 491.402 113.064 490.569 114.74C489.405 117.078 487.355 118.564 484.96 119.506C483.28 120.164 481.528 120.444 479.99 120.756C478.617 121.035 477.231 121.281 475.829 121.414C474.277 121.561 472.72 121.665 471.806 121.722C470.367 121.821 468.933 121.878 467.489 121.878C466.495 121.878 465.497 121.892 464.507 121.831C463.845 121.788 463.182 121.76 462.529 121.641C462.155 121.575 461.786 121.509 461.407 121.461C461.298 121.461 461.185 121.461 461.076 121.461C460.99 121.475 460.901 121.485 460.815 121.499C460.768 121.513 460.725 121.523 460.678 121.537C460.664 121.542 460.654 121.546 460.645 121.551C460.636 121.561 460.626 121.57 460.617 121.58C460.527 121.689 460.441 121.802 460.356 121.916C460.247 122.096 460.143 122.275 460.044 122.465C459.869 122.834 459.717 123.213 459.571 123.596C459.537 123.714 459.5 123.833 459.471 123.956C459.376 124.51 459.324 125.068 459.277 125.631C459.703 125.759 460.134 125.868 460.569 125.963C462.164 126.266 463.783 126.426 464.749 126.493C468.019 126.711 471.233 127.042 473.884 127.586C474.343 127.676 474.802 127.766 475.261 127.861C477.32 128.254 479.469 128.457 481.173 129.82C483.128 131.382 483.957 133.829 484.132 136.253C484.302 138.61 483.829 141.133 482.816 143.268C481.633 145.772 479.521 147.532 477.089 148.744C475.172 149.7 473.07 150.036 470.973 150.344C469.747 150.524 468.474 150.529 467.234 150.481C465.97 150.439 464.706 150.349 463.447 150.245C462.884 150.202 462.321 150.15 461.762 150.098C460.673 150.003 459.623 149.785 458.984 149.653C458.747 149.61 458.51 149.577 458.269 149.549C458.155 149.549 458.046 149.549 457.933 149.549C457.89 149.553 457.852 149.558 457.814 149.563C457.81 149.568 457.805 149.572 457.8 149.577C457.753 149.634 457.706 149.691 457.663 149.752C457.516 149.989 457.379 150.226 457.251 150.472C456.953 151.087 456.688 151.721 456.451 152.365C455.737 154.49 455.188 156.687 454.724 158.883C454.69 159.058 454.667 159.238 454.643 159.418L454.648 159.422C454.667 159.437 454.681 159.451 454.7 159.46C454.757 159.498 454.814 159.531 454.875 159.564C455.064 159.65 455.254 159.735 455.448 159.811C455.945 159.962 456.451 160.085 456.962 160.199C458.662 160.516 460.385 160.639 461.464 160.71C463.286 160.828 465.104 160.951 466.921 161.126C468.393 161.264 469.856 161.481 471.323 161.647C474.107 161.95 477.259 162.698 479.219 164.87C481.145 167.005 482.04 169.888 481.874 172.747C481.775 174.517 481.519 176.358 480.766 177.977C480.283 179.018 479.687 179.941 478.92 180.798C478.262 181.536 477.524 182.114 476.729 182.668C474.987 183.799 473.046 184.698 471.054 185.276C468.753 185.943 466.368 186.147 463.982 186.27C463.352 186.303 462.723 186.312 462.089 186.312C460.517 186.312 458.936 186.237 457.369 186.156C455.235 186.047 453.105 185.905 450.97 185.777C449.773 185.711 448.575 185.621 447.562 185.55C447.468 185.546 447.368 185.541 447.273 185.531L447.207 185.531C443.955 185.342 440.713 185.493 437.457 185.574C435.8 185.617 434.082 185.626 432.449 185.342C429.486 184.821 426.958 183.269 425.013 180.992C421.979 177.442 421.226 172.458 421.439 167.919C421.519 166.101 421.676 164.283 421.979 162.49C422.291 160.615 422.726 158.764 423.148 156.909C423.877 153.695 424.563 150.467 425.405 147.277C426.134 144.489 426.887 141.706 427.488 138.885C427.545 138.629 427.597 138.369 427.649 138.108C428.241 135.155 428.757 132.187 429.32 129.233C429.883 126.289 430.376 123.336 430.835 120.377C431.109 118.607 431.317 116.832 431.483 115.052C431.578 113.978 431.663 112.899 431.796 111.829C431.952 110.612 432.311 109.448 432.576 108.255C433.017 106.277 433.656 104.393 434.697 102.651C435.459 101.373 436.425 100.266 437.57 99.3378C438.067 98.145 439.179 97.2504 440.491 97.0706C440.926 97.0138 441.352 97.0327 441.754 97.1178C442.545 96.8954 443.345 96.6966 444.145 96.5499C446.227 96.1665 448.282 96.067 450.388 96.1854C453.611 96.4079 456.83 96.6872 460.049 97.009C460.541 97.0611 461.038 97.1084 461.53 97.1558C462.103 97.1463 462.676 97.1369 463.248 97.1226C466.599 97.0421 469.946 96.9805 473.297 96.9522C474.831 96.9427 476.36 96.9475 477.893 96.9522C479.379 96.9522 480.875 96.9048 482.361 96.9664C484.681 97.0563 487.109 97.203 489.192 98.339C491.033 99.3426 492.263 101.155 492.775 103.158Z" fill="#ffffff" fill-rule="nonzero" opacity="1" stroke="none" vectornator:layerName="path"/>
<path d="M421.927 113.912C422.353 115.582 422.604 117.291 422.518 118.531C422.471 119.322 422.466 120.098 422.239 120.86C421.964 121.755 421.501 122.507 420.852 123.175C419.958 124.103 418.59 124.718 417.293 124.812C416.725 124.85 416.161 124.831 415.598 124.817C415.134 124.803 414.67 124.789 414.211 124.808C413.019 124.85 411.835 124.86 410.713 124.798C410.6 124.789 410.482 124.784 410.363 124.775C410.354 124.775 410.349 124.775 410.344 124.775L410.339 124.775C410.093 124.76 409.852 124.741 409.729 124.732C409.682 124.727 409.63 124.727 409.577 124.723L409.544 124.723C408.058 124.642 406.572 124.67 405.086 124.614C403.661 124.557 402.283 124.353 400.882 124.126C400.101 124.003 399.249 123.79 398.549 123.392C397.896 123.288 397.266 123.099 396.689 122.82C396.021 122.503 395.354 122.152 394.795 121.665C394.346 121.277 393.905 120.907 393.56 120.42C393.413 120.207 393.281 119.999 393.143 119.786C393.105 119.729 393.063 119.672 393.025 119.611C392.859 119.379 392.67 119.156 392.481 118.934C392.22 118.64 391.951 118.342 391.667 118.067C391.534 117.963 391.402 117.859 391.269 117.76C391.094 117.651 390.914 117.542 390.734 117.443C390.554 117.362 390.374 117.291 390.195 117.22C390.062 117.178 389.925 117.14 389.788 117.107C389.626 117.083 389.461 117.064 389.3 117.045C389.082 117.036 388.864 117.036 388.642 117.04C388.462 117.059 388.278 117.083 388.098 117.111C388.079 117.116 388.06 117.121 388.041 117.126C388.008 117.14 387.975 117.154 387.941 117.168C387.53 117.4 387.123 117.66 386.725 117.921C386.413 118.143 386.1 118.37 385.802 118.612C385.693 118.721 385.589 118.834 385.48 118.943C385.404 119.038 385.333 119.137 385.262 119.237C385.225 119.298 385.187 119.36 385.149 119.421C385.116 119.506 385.083 119.587 385.049 119.672C385.049 119.677 385.049 119.677 385.045 119.682C385.045 119.715 385.04 119.743 385.035 119.776C385.031 119.918 385.031 120.055 385.031 120.197C385.04 120.221 385.049 120.245 385.059 120.268C385.367 120.855 385.693 121.438 386.058 121.991C386.72 122.952 387.487 123.87 388.259 124.756C388.879 125.437 389.56 126.057 390.195 126.72C390.606 127.151 391.004 127.624 391.359 128.131C392.192 128.632 393.039 129.12 393.887 129.593C395.018 130.227 396.13 130.899 397.285 131.501C398.511 132.097 399.77 132.632 400.986 133.252C402.601 134.071 404.11 135.074 405.554 136.163C406.212 136.65 406.832 137.176 407.447 137.715C408.361 138.511 409.303 139.263 410.179 140.096C411.442 141.308 412.451 142.813 413.411 144.266C414.074 145.27 414.618 146.335 415.03 147.461C415.087 147.622 415.139 147.778 415.191 147.935C415.39 148.465 415.617 148.976 415.797 149.516C415.939 149.937 416.01 150.377 416.143 150.803C416.403 151.631 416.64 152.46 416.838 153.302C417.108 154.467 417.383 155.603 417.51 156.795C417.657 158.182 417.586 159.536 417.506 160.738C417.458 161.515 417.51 162.291 417.444 163.067C417.354 164.061 416.995 165.031 416.658 165.959C416.105 167.497 415.149 169.026 414.145 170.304C413.52 171.099 412.848 171.838 412.058 172.467C411.561 172.87 411.012 173.229 410.496 173.603C409.937 174.006 409.417 174.446 408.82 174.791C408.399 175.038 407.963 175.246 407.528 175.464C406.515 175.975 405.521 176.519 404.489 177.002C403.637 177.404 402.747 177.669 401.853 177.958C400.627 178.351 399.368 178.654 398.146 179.061C397.266 179.373 396.372 179.742 395.832 180.008C394.923 180.462 393.995 180.822 392.997 181.049C392.074 181.257 391.146 181.432 390.526 181.551C387.298 182.209 384.037 182.554 380.742 182.653C380.51 182.658 380.278 182.663 380.046 182.663C378.508 182.663 376.989 182.521 375.455 182.332C373.51 182.09 371.564 181.745 369.671 181.243C365.605 180.164 362.046 177.844 358.813 175.213C357.076 173.802 355.509 172.231 354.165 170.441C352.958 168.842 352.058 167.133 351.202 165.33C350.473 163.801 350.165 162.111 350.122 160.431C350.08 158.67 350.6 156.961 351.746 155.612C352.617 154.59 353.653 153.974 354.922 153.591C355.31 153.473 355.712 153.359 356.11 153.26C357.35 152.957 358.675 152.687 359.944 152.531C361.189 152.379 362.424 152.256 363.011 152.218C364.318 152.119 365.629 151.944 366.945 151.93C367.229 151.925 367.517 151.925 367.801 151.93C368.085 151.93 368.374 151.93 368.663 151.93C369.392 151.93 370.102 152.043 370.58 152.081C371.531 152.157 372.478 152.27 373.387 152.588C374.901 153.113 376.151 153.894 377.187 155.134C377.888 155.972 378.309 157.146 378.612 158.187C378.882 159.124 378.91 160.095 378.872 160.923C378.868 161.131 378.849 161.339 378.849 161.548C378.901 162.168 378.972 162.788 379.076 163.403C379.1 163.455 379.123 163.507 379.147 163.559C379.223 163.697 379.303 163.834 379.388 163.971C379.502 164.132 379.625 164.293 379.748 164.449C379.89 164.596 380.037 164.738 380.188 164.875C380.212 164.889 380.236 164.904 380.259 164.913C380.449 165.003 380.643 165.088 380.841 165.164C380.917 165.188 380.998 165.211 381.078 165.23C381.225 165.254 381.372 165.273 381.518 165.287C381.689 165.287 381.854 165.282 382.025 165.273C382.943 165.206 383.861 165.131 384.765 164.975C385.22 164.875 385.674 164.762 386.114 164.624C386.469 164.487 386.824 164.34 387.17 164.179C387.577 163.957 387.97 163.706 388.363 163.469C388.822 163.2 389.295 162.944 389.745 162.665C389.844 162.589 389.944 162.513 390.043 162.433C390.318 162.177 390.578 161.912 390.833 161.633C390.928 161.515 391.013 161.391 391.103 161.268C391.264 161.013 391.411 160.753 391.553 160.487C391.728 160.128 391.884 159.758 392.022 159.384C392.045 159.314 392.064 159.243 392.083 159.172C392.107 159.006 392.126 158.845 392.14 158.684C392.154 158.381 392.168 158.078 392.159 157.775C392.126 157.373 392.074 156.971 391.998 156.578C391.955 156.379 391.908 156.18 391.851 155.986C391.785 155.825 391.719 155.664 391.643 155.508C391.506 155.248 391.359 154.992 391.198 154.746C391.07 154.566 390.938 154.391 390.796 154.225C390.365 153.757 389.915 153.307 389.442 152.881C389.063 152.554 388.67 152.237 388.259 151.944C387.672 151.56 387.061 151.21 386.436 150.893C384.761 150.098 382.981 149.492 381.268 148.796C380.098 148.318 378.92 147.859 377.746 147.39C375.223 146.382 372.714 145.246 370.343 143.916C367.924 142.553 365.491 141.119 363.319 139.377C360.862 137.408 358.614 134.923 357.516 131.927C356.915 130.289 356.569 128.49 356.37 126.753C356.172 124.95 356.025 123.113 356.257 121.305C356.673 118.006 357.374 114.683 359.045 111.767C361.847 106.892 366.533 103.456 371.451 100.933C374.612 99.3094 377.954 97.8942 381.443 97.1652C383.511 96.7344 385.627 96.5357 387.733 96.3652C389.395 96.2328 391.056 96.1712 392.722 96.2232C394.805 96.2848 396.887 96.4647 398.961 96.6729C400.239 96.8055 401.502 96.9333 402.766 97.1558C406.151 97.7427 409.279 99.1484 412.133 101.042C415.229 103.101 418.007 105.638 419.976 108.814C420.947 110.39 421.472 112.137 421.927 113.912Z" fill="#ffffff" fill-rule="nonzero" opacity="1" stroke="none" vectornator:layerName="path"/>
<path d="M643.242 100.876C643.294 101.534 643.232 102.182 643.185 102.84C643.119 103.825 642.996 104.809 642.915 105.799C642.816 107.384 642.679 108.965 642.442 110.537C642.281 111.611 642.03 112.676 641.656 113.699C641.41 114.361 641.003 114.962 640.53 115.483C639.999 116.065 639.313 116.373 638.57 116.548C638.21 116.619 637.903 116.666 637.538 116.681C637.193 116.704 636.842 116.728 636.54 116.747C636.497 116.747 636.454 116.752 636.412 116.752L636.407 116.752C636.279 116.761 636.151 116.771 636.147 116.771C633.865 116.936 631.598 117.225 629.307 117.22C628.564 117.22 627.821 117.23 627.073 117.206C625.776 117.159 624.498 117.021 623.206 116.889C622.141 116.78 621.076 116.633 620.02 116.553C619.263 116.501 618.482 116.449 617.725 116.491C617.45 116.515 617.166 116.553 616.891 116.595C616.887 116.6 616.882 116.6 616.873 116.605C616.858 116.638 616.839 116.671 616.82 116.704C616.806 116.742 616.792 116.775 616.778 116.808C616.631 117.268 616.508 117.741 616.404 118.209C616.399 118.252 616.394 118.295 616.385 118.342C616.38 118.773 616.418 119.208 616.423 119.639C616.432 120.022 616.404 120.41 616.39 120.794C616.342 121.759 616.3 122.725 616.305 123.695C616.314 125.111 616.324 126.521 616.2 127.932C616.044 129.74 615.722 131.538 615.415 133.328C615.064 135.387 614.591 137.422 614.175 139.472C613.824 141.242 613.559 143.022 613.233 144.792C613.02 145.947 612.788 147.097 612.532 148.242C612.338 149.118 612.106 149.979 611.921 150.855C611.656 152.199 611.42 153.539 611.23 154.893C611.036 156.284 610.918 157.685 610.714 159.077C610.52 160.379 610.279 161.675 610.094 162.977C609.896 164.345 609.735 165.713 609.583 167.086C609.441 168.402 609.299 169.713 609.176 171.028C609.058 172.264 608.944 173.499 608.703 174.72C608.414 176.178 608.121 177.679 607.543 179.056C607.146 180.012 606.535 180.85 605.749 181.522C604.921 182.227 603.894 182.469 603.023 182.45C602.952 182.455 602.876 182.459 602.805 182.464L602.725 182.469C602.488 182.478 602.251 182.488 602.015 182.497C601.769 182.521 601.527 182.549 601.276 182.549C601.158 182.549 601.044 182.545 600.926 182.535C600.841 182.535 600.746 182.526 600.661 182.526C598.886 182.682 597.13 183.013 595.374 183.302C593.741 183.576 592.113 183.747 590.456 183.747C590.352 183.747 590.248 183.747 590.139 183.742C588.591 183.718 586.982 183.586 585.495 183.132C585.055 182.999 584.62 182.852 584.203 182.644C583.238 182.166 582.532 181.47 582.083 180.481C581.557 179.317 581.78 177.807 582.561 176.77C582.963 175.109 583.498 173.49 583.924 171.833C584.341 170.214 584.752 168.591 585.117 166.958L585.188 166.66C585.614 164.549 586.002 162.433 586.371 160.644C586.934 157.865 587.507 155.091 588.023 152.308C588.345 150.547 588.629 148.787 588.937 147.026C589.244 145.275 589.632 143.537 589.978 141.796C590.342 139.968 590.65 138.132 590.948 136.295C591.237 134.516 591.587 132.755 591.904 130.985C592.16 129.588 592.382 128.192 592.633 126.8C592.851 125.617 593.031 124.429 593.263 123.25C593.523 121.949 593.892 120.675 594.214 119.383C594.389 118.688 594.55 118.006 594.782 117.343C594.782 117.305 594.777 117.263 594.777 117.225C594.768 117.116 594.754 117.012 594.735 116.908C594.721 116.846 594.706 116.78 594.688 116.718C594.688 116.718 594.683 116.714 594.683 116.709C594.659 116.7 594.635 116.69 594.617 116.681C594.536 116.657 594.456 116.638 594.375 116.619C594.304 116.605 594.233 116.595 594.162 116.591C593.826 116.576 593.49 116.586 593.154 116.605C592.543 116.652 591.938 116.685 591.668 116.7C591.048 116.742 590.432 116.761 589.812 116.794C588.047 116.931 586.286 117.111 584.516 117.211C582.381 117.329 580.218 117.381 578.078 117.329C576.857 117.301 575.593 117.244 574.415 116.927C573.123 116.581 572.062 115.753 571.622 114.465C571.367 113.718 571.542 112.979 571.632 112.563C571.688 112.307 571.736 112.042 571.764 111.89C571.778 111.819 571.793 111.753 571.807 111.682L571.821 111.621C571.944 111.024 572.086 110.437 572.214 109.841C572.242 109.666 572.275 109.491 572.294 109.382C572.304 109.339 572.313 109.297 572.323 109.254C572.332 109.183 572.346 109.117 572.346 109.117C572.663 107.512 572.933 105.898 573.284 104.303C573.444 103.565 573.605 102.822 573.823 102.093C574.112 101.122 574.533 100.237 575.13 99.4183C575.56 98.8219 576.119 98.3769 576.687 97.9225C577.307 97.4303 577.979 97.1699 578.618 96.9475C578.675 96.9286 578.727 96.9096 578.784 96.8953C579.342 96.7108 579.868 96.6067 580.473 96.583C580.748 96.5735 581.027 96.5688 581.302 96.5688C581.595 96.5641 581.889 96.5641 582.182 96.5688C582.547 96.5688 582.916 96.5735 583.285 96.5688C584.104 96.5546 584.923 96.4931 585.746 96.512C586.617 96.531 587.493 96.5357 587.947 96.5072C588.619 96.46 589.258 96.4553 589.926 96.4883C590.551 96.5167 591.161 96.5973 591.781 96.6492C592.676 96.6919 593.575 96.673 594.465 96.6872C595.398 96.7108 596.32 96.7582 597.248 96.8292C598.086 96.867 598.933 96.8575 599.762 96.8623C600.751 96.867 601.74 96.8575 602.729 96.8575C603.245 96.8528 603.761 96.8528 604.282 96.8575C605.314 96.8575 606.35 96.8623 607.387 96.8434C610.464 96.796 613.536 96.7061 616.518 96.5167C616.589 96.512 616.664 96.5072 616.735 96.5025L616.816 96.4978C617.89 96.4173 618.965 96.3274 620.044 96.2895C620.938 96.2564 621.838 96.2328 622.737 96.209C624.943 96.1429 627.153 95.9914 629.364 95.9393C632.057 95.8777 634.741 95.7926 637.429 96.0528C638.414 96.1476 639.465 96.2706 640.388 96.6398C641.67 97.1557 642.669 98.1781 643.015 99.5318C643.128 99.9626 643.209 100.431 643.242 100.876Z" fill="#ffffff" fill-rule="nonzero" opacity="1" stroke="none" vectornator:layerName="path"/>
<path d="M674.936 101.354C675.116 103.03 674.567 104.554 673.966 106.078C673.956 106.102 673.947 106.125 673.937 106.149C673.705 106.826 673.483 107.512 673.317 108.208C673.175 108.994 673.081 109.813 673.014 110.612C672.877 113.306 672.352 115.98 671.987 118.645C671.599 121.513 671.462 124.439 670.624 127.226C670.222 128.58 669.9 129.953 669.493 131.307C669.152 132.428 668.788 133.564 668.537 134.705C668.106 136.882 667.737 139.079 667.358 141.261C667.074 142.865 666.833 144.479 666.549 146.084C666.265 147.674 666.123 149.317 666.014 150.865C665.825 153.989 666.108 157.127 665.933 160.255C665.754 163.536 665.678 166.849 665.171 170.101C665.006 171.166 664.769 172.221 664.542 173.277C664.277 174.588 664.021 175.861 663.453 177.092C662.961 178.166 662.435 179.226 661.792 180.216C661.034 181.371 660.197 182.445 659.098 183.302C658.512 183.756 657.882 184.135 657.2 184.438C656.509 184.746 655.799 184.864 655.141 184.921C654.474 184.973 653.811 185.03 653.357 185.053C652.784 185.086 652.212 185.119 651.634 185.148C651.549 185.157 651.459 185.172 651.374 185.186C650.621 185.347 649.873 185.526 649.111 185.645C648.179 185.792 647.218 185.839 646.276 185.872C645.888 185.886 645.5 185.896 645.107 185.896C643.734 185.896 642.347 185.796 641.017 185.517C639.219 185.138 637.515 184.234 636.568 182.597C636.161 181.896 635.957 181.039 635.867 180.239C635.782 179.468 635.905 178.734 636 177.972C636.303 175.482 636.947 173.054 637.477 170.607C638.045 167.63 638.594 164.643 639.2 161.699C640.274 156.445 641.628 151.257 642.669 146.202C643.308 143.055 643.819 139.883 644.435 136.859C645.192 133.124 645.67 129.366 646.034 125.574C646.181 123.998 646.314 122.413 646.574 120.855C646.797 119.521 646.995 118.186 647.204 116.846C647.999 111.748 648.302 106.452 650.432 101.685C651.203 99.9626 652.642 97.7711 654.55 97.2219C655.482 96.4504 656.836 96.1286 658.01 95.925C658.758 95.7973 659.501 95.6458 660.253 95.5416C661.356 95.3854 662.473 95.4186 663.576 95.376C664.93 95.3239 666.321 95.3097 667.666 95.4849C669.143 95.6789 670.539 96.1427 671.855 96.8196C672.603 97.203 673.27 97.8941 673.781 98.5473C674.439 99.3804 674.818 100.303 674.936 101.354Z" fill="#ffffff" fill-rule="nonzero" opacity="1" stroke="none" vectornator:layerName="path"/>
<path d="M742.125 97.6338C743.924 98.2918 744.724 100.54 744.648 102.315L744.639 102.41C744.539 103.901 744.307 105.406 744.028 106.868C743.72 108.487 743.261 110.068 742.92 111.677C742.84 112.08 742.764 112.492 742.674 112.894C742.741 113.254 742.769 113.604 742.736 113.992C742.665 114.773 742.211 115.549 741.657 116.084C740.909 116.799 739.948 117.253 738.959 117.528C737.752 117.859 736.488 117.925 735.248 117.987C731.906 118.153 728.564 118.049 725.227 117.916C723.396 117.84 721.569 117.731 720.149 117.627C718.331 117.504 716.532 117.287 715.084 117.192C714.194 117.135 713.314 117.135 712.429 117.163C711.827 117.187 711.226 117.197 710.625 117.178C710.019 117.159 709.475 117.036 708.902 116.908L708.822 116.894C708.737 116.889 708.647 116.879 708.561 116.875C708.363 117.291 708.183 117.717 708.046 118.096C707.312 120.306 706.725 122.588 706.313 124.576C705.934 126.431 705.608 128.296 705.456 130.185C705.447 130.313 705.442 130.44 705.442 130.568C705.688 130.563 705.934 130.549 706.181 130.53C706.583 130.507 706.985 130.474 706.999 130.474C709.461 130.303 711.946 129.986 714.417 130.052C715.666 130.085 716.906 130.279 718.156 130.374C718.942 130.436 719.727 130.511 720.513 130.568C721.592 130.634 722.676 130.606 723.755 130.559C724.65 130.521 725.526 130.526 726.401 130.72C727.424 130.942 728.337 131.434 728.877 132.362C729.241 132.987 729.445 133.81 729.397 134.525C729.35 135.23 729.18 135.903 729.033 136.584C728.858 137.488 728.749 138.392 728.465 139.273C728.219 140.03 727.963 140.787 727.731 141.554C727.414 142.6 727.14 143.646 726.894 144.707C726.917 144.967 726.922 145.227 726.87 145.488C726.785 145.947 726.633 146.33 726.416 146.709C726.406 146.732 726.392 146.756 726.382 146.78C726.283 146.993 726.174 147.196 726.018 147.376C725.668 147.788 725.265 148.081 724.801 148.356C724.101 148.768 723.315 148.971 722.52 149.118C721.171 149.359 719.76 149.459 718.393 149.511C716.438 149.587 714.488 149.667 712.533 149.686C711.401 149.7 710.27 149.672 709.144 149.643C707.918 149.61 706.706 149.463 705.821 149.397C705.347 149.369 704.865 149.35 704.391 149.369C703.771 149.411 703.128 149.459 702.517 149.563C702.465 149.577 702.418 149.591 702.366 149.605C702.332 149.625 702.295 149.643 702.261 149.667C702.228 149.691 702.195 149.719 702.162 149.747C701.992 149.904 701.831 150.065 701.67 150.235C701.48 150.462 701.305 150.699 701.135 150.945C701.05 151.078 700.969 151.215 700.894 151.352C700.813 151.523 700.737 151.698 700.666 151.877C700.453 152.507 700.254 153.16 700.174 153.525C699.819 155.285 699.436 157.084 699.294 158.883C699.279 159.252 699.279 159.635 699.298 160.009C699.35 160.705 699.412 161.391 699.398 162.092C699.388 162.83 699.384 163.559 699.332 164.298C699.27 165.159 699.066 165.978 698.887 166.816C698.801 167.218 698.726 167.63 698.622 168.023C698.48 168.553 698.229 169.059 698.072 169.485C697.949 169.817 697.812 170.139 697.689 170.47C697.362 171.469 697.183 172.529 696.984 173.504C696.96 173.618 696.936 173.731 696.922 173.802C696.79 174.436 696.704 175.075 696.591 175.714C696.506 176.178 696.411 176.642 696.368 177.111C696.359 177.262 696.359 177.414 696.354 177.56C696.491 178.351 696.288 179.203 695.895 179.884C695.408 180.722 694.598 181.366 693.794 181.887C693.197 182.27 692.525 182.445 691.848 182.625C691.228 182.796 690.613 182.966 689.969 183.046C689.339 183.127 688.701 183.155 688.066 183.165C688.038 183.169 688.009 183.169 687.986 183.169C687.314 183.169 686.67 183.061 686.007 182.971C684.928 182.829 683.849 182.729 682.77 182.644C682.06 182.62 681.335 182.663 680.625 182.696C680.483 182.71 680.346 182.725 680.209 182.748C678.628 183.089 677.066 183.056 675.594 182.284C674.302 181.607 673.417 180.339 672.91 179.009C672.56 178.091 672.323 177.177 672.129 176.216C671.916 175.132 672.049 174.048 672.139 172.96C672.2 171.71 672.186 170.47 672.366 169.22C672.541 168.013 672.825 166.835 673.109 165.647C673.776 162.887 674.666 160.184 675.282 157.411L675.286 157.397C675.291 157.368 675.301 157.34 675.305 157.307C675.319 157.231 675.338 157.155 675.353 157.079L675.367 156.989C675.826 154.741 676.342 152.474 676.512 150.183C676.583 148.914 676.654 147.651 676.796 146.387C676.933 145.109 677.142 143.836 677.298 142.562C677.459 141.232 677.606 139.902 677.79 138.577C677.984 137.147 678.282 135.746 678.514 134.629C678.817 133.153 678.983 131.647 679.243 130.161C679.442 129.03 679.688 127.865 679.778 126.715C679.807 126.138 679.811 125.565 679.863 124.983C679.911 124.491 679.996 124.003 680.072 123.516C680.228 122.493 680.337 121.466 680.521 120.448C681.009 117.779 681.752 115.166 682.453 112.553C682.954 110.683 683.589 108.861 684.062 107.503C684.218 107.053 684.36 106.594 684.516 106.144C684.72 105.557 684.933 105.037 685.094 104.701C685.288 104.322 685.42 103.91 685.61 103.527C685.842 103.044 686.088 102.566 686.376 102.111C686.807 101.425 687.266 100.796 687.915 100.294C688.521 99.8348 689.174 99.5271 689.472 99.3757C690.698 98.7556 691.9 98.0455 693.188 97.5581C694.021 97.241 694.84 97.1416 695.711 97.0327C696.288 96.9569 696.861 96.9048 697.443 96.8812C698.285 96.8434 699.133 96.8102 699.98 96.796C700.259 96.7913 700.539 96.7913 700.818 96.796C701.31 96.796 701.797 96.8007 702.29 96.7818C702.815 96.7392 703.341 96.6824 703.871 96.6919C704.538 96.7061 705.201 96.725 705.868 96.7439C706.976 96.7724 708.088 96.8812 709.191 96.9853C709.783 97.0421 710.365 97.1178 710.947 97.1983C713.602 97.2221 716.253 97.1794 718.908 97.1226C720.281 97.0942 721.654 97.1367 723.022 97.1367C724.229 97.1367 725.431 97.1416 726.638 97.1841C727.821 97.2268 729.009 97.2078 730.193 97.1889C730.926 97.1794 731.66 97.1699 732.394 97.1747C733.288 97.1794 734.183 97.2268 735.077 97.241C735.57 97.2457 736.062 97.241 736.554 97.241C737.146 97.2362 737.742 97.2315 738.334 97.2457C739.579 97.274 740.942 97.203 742.125 97.6338Z" fill="#ffffff" fill-rule="nonzero" opacity="1" stroke="none" vectornator:layerName="path"/>
<path d="M286.024 99.0301C286.005 99.0442 285.995 99.0584 285.981 99.0727C285.929 99.1436 285.882 99.2193 285.839 99.2856C285.801 99.3613 285.759 99.4371 285.721 99.5128C285.702 99.5649 285.688 99.617 285.669 99.6643C285.764 99.4229 285.896 99.2004 286.024 99.0301ZM324.534 124.732C324.548 124.391 324.558 124.055 324.544 123.714C324.529 123.53 324.506 123.345 324.473 123.165C324.397 122.853 324.302 122.54 324.203 122.228C324.099 121.939 323.98 121.651 323.853 121.371C323.796 121.262 323.729 121.163 323.658 121.064C323.602 120.978 323.54 120.898 323.479 120.822C323.124 120.439 322.74 120.079 322.352 119.729C321.831 119.279 321.268 118.848 320.7 118.446C320.463 118.299 320.222 118.162 319.971 118.034C319.498 117.807 319.015 117.599 318.518 117.419C317.936 117.22 317.339 117.045 316.738 116.912C316.184 116.808 315.621 116.728 315.058 116.676C313.685 116.605 312.294 116.733 311.219 116.808C308.961 116.965 306.718 117.206 304.498 117.627C304.479 118.848 304.384 120.074 304.294 121.291C304.152 123.25 304.001 125.21 303.745 127.155C303.646 127.898 303.532 128.637 303.438 129.38C303.334 130.189 303.168 131.008 303.092 131.822C303.068 132.452 303.106 133.091 303.139 133.716C303.158 134.075 303.158 134.435 303.163 134.795C303.22 134.819 303.272 134.838 303.324 134.861C303.523 134.923 303.717 134.975 303.916 135.022C304.318 135.098 304.725 135.15 305.132 135.183C306.377 135.254 307.631 135.221 308.872 135.14C310.486 135.017 312.1 134.795 313.69 134.478C315.101 134.18 316.497 133.839 317.604 133.455C317.983 133.323 318.348 133.167 318.703 132.996C319.384 132.646 320.052 132.263 320.691 131.841C321.098 131.562 321.5 131.269 321.869 130.947C322.044 130.79 322.21 130.625 322.366 130.454C322.603 130.18 322.83 129.896 323.034 129.603C323.086 129.517 323.138 129.437 323.185 129.352C323.45 128.788 323.687 128.206 323.819 127.851C323.848 127.775 323.871 127.695 323.9 127.619C324.075 127.089 324.226 126.564 324.349 126.019C324.43 125.598 324.496 125.167 324.534 124.732ZM348.485 117.542C348.612 118.971 348.617 120.396 348.437 121.821C348.357 122.46 348.224 123.099 348.059 123.719C347.883 124.391 347.609 125.03 347.386 125.645C347.244 126.029 347.083 126.403 346.937 126.791C346.426 128.282 345.862 129.716 345.039 131.06C344.352 132.177 343.704 133.313 342.975 134.402C342.085 135.727 341.162 137.091 340.031 138.227C339.297 138.96 338.587 139.718 337.882 140.475C337.508 140.868 337.115 141.242 336.722 141.616C336.273 142.037 335.809 142.453 335.293 142.789C334.947 143.017 334.573 143.187 334.204 143.362C333.248 143.845 332.306 144.361 331.345 144.825C330.436 145.27 329.485 145.62 328.576 146.06C328.43 146.136 328.288 146.221 328.15 146.306C327.966 146.439 327.795 146.581 327.625 146.723C327.469 146.865 327.322 147.007 327.18 147.158C327.175 147.163 327.17 147.173 327.166 147.177C327.18 147.206 327.194 147.234 327.208 147.262C327.454 147.75 327.686 148.238 327.871 148.758C328.127 149.492 328.325 150.244 328.534 150.992C328.775 151.863 328.979 152.729 329.263 153.581C329.892 155.342 330.668 157.041 331.388 158.764C332.193 160.71 332.898 162.688 333.821 164.582C334.701 166.309 335.643 168.027 336.121 169.926C336.325 170.744 336.576 171.559 336.76 172.382C336.897 173.007 337.054 173.618 337.252 174.228C337.38 174.597 337.518 174.962 337.626 175.34C337.754 175.785 337.806 176.249 337.844 176.472C337.948 176.973 338.033 177.452 338.048 177.972C338.071 178.72 337.806 179.454 337.475 180.112C336.902 181.233 335.87 181.953 334.692 182.322C334.024 182.53 333.329 182.516 332.638 182.507C332.453 182.502 332.268 182.497 332.088 182.502C331.435 182.502 330.782 182.492 330.129 182.497C329.211 182.502 328.288 182.469 327.365 182.469C327.076 182.464 326.787 182.464 326.498 182.464C325.713 182.464 324.917 182.464 324.127 182.44C321.808 182.355 319.498 182.199 317.216 181.768C316.663 181.664 316.104 181.579 315.564 181.432C314.684 181.196 313.799 180.822 312.994 180.396C312.138 179.951 311.357 179.321 310.746 178.578C310.296 178.029 309.913 177.414 309.553 176.803C308.379 174.825 307.21 172.808 306.391 170.654C305.572 168.505 305.113 166.257 304.522 164.539C304.143 163.465 303.802 162.376 303.438 161.301C303.121 160.426 302.747 159.574 302.415 158.708C302.103 157.912 301.8 157.098 301.431 156.327C301.284 156.062 301.128 155.797 300.962 155.541C300.83 155.347 300.688 155.148 300.541 154.959C300.522 154.94 300.503 154.921 300.484 154.902C300.46 154.883 300.441 154.869 300.423 154.85C300.352 155.077 300.285 155.304 300.233 155.541C300.214 155.64 300.2 155.745 300.191 155.844C300.172 156.322 300.162 156.795 300.072 157.264C299.973 157.756 299.859 158.239 299.746 158.722C299.566 159.517 299.391 160.312 299.268 160.89C298.979 162.295 298.671 163.697 298.359 165.093C297.999 166.707 297.701 168.34 297.232 169.93C296.679 171.828 296.073 173.707 295.386 175.563C294.814 177.115 294.018 178.573 292.968 179.851C292.561 180.344 292.13 180.774 291.798 181.077C291.751 181.12 291.704 181.162 291.656 181.2L291.647 181.205C291.003 181.759 290.326 182.223 289.522 182.54C288.665 182.876 287.761 183.079 286.852 183.212C285.995 183.335 285.134 183.302 284.273 183.34C283.894 183.359 283.515 183.373 283.137 183.373C283.061 183.373 282.985 183.368 282.909 183.368C280.689 183.33 278.271 183.094 276.311 181.976C275.44 181.475 274.669 180.755 273.978 180.031C273.04 179.056 272.33 177.84 272.051 176.51C271.597 174.356 271.81 172.041 272.231 169.963C272.411 169.088 272.539 168.203 272.718 167.327C272.889 166.484 273.163 165.666 273.334 164.823C273.391 164.544 273.447 164.264 273.509 163.985C273.821 162.452 274.063 160.899 274.304 159.351C274.579 157.605 274.953 155.872 275.303 154.178C275.312 154.121 275.322 154.064 275.336 154.007C275.346 153.955 275.355 153.903 275.355 153.899C275.932 151.03 276.401 148.133 276.941 145.26C277.499 142.245 278.195 139.268 278.772 136.437C279.269 133.929 279.596 131.382 280.022 128.859C280.51 125.915 281.059 122.985 281.65 120.06C282.275 116.936 282.767 113.798 283.203 110.641C283.406 109.202 283.586 107.758 283.837 106.329C283.955 105.647 284.097 104.966 284.254 104.289C284.145 103.233 284.429 102.154 284.973 101.222C285.196 100.36 285.508 99.5271 286.123 98.9069C286.109 98.9212 286.1 98.9401 286.09 98.9543C286.109 98.926 286.133 98.9069 286.152 98.8833C286.185 98.8502 286.218 98.8218 286.251 98.7887C286.767 98.2963 287.486 98.0597 288.253 98.2633C288.272 98.2538 288.291 98.2444 288.31 98.2349C288.523 98.1354 288.741 98.0408 288.959 97.9651C289.399 97.8041 289.829 97.7473 290.274 97.6669C290.724 97.5722 291.16 97.4918 291.633 97.468C292.035 97.4491 292.438 97.4586 292.84 97.4586C293.995 97.4538 295.154 97.3876 295.912 97.4397C296.087 97.4491 296.257 97.4633 296.428 97.4775C297.777 97.5437 299.145 97.4349 300.494 97.4208C301.402 97.4113 302.311 97.4113 303.22 97.3828C304.238 97.3545 305.251 97.274 306.268 97.2503C307.215 97.2314 308.161 97.2455 309.113 97.274C309.932 97.2976 310.76 97.2598 311.584 97.2125C312.63 97.1415 313.662 97.0563 314.717 97.0657C315.697 97.0752 316.672 97.0988 317.652 97.1367C319.99 97.2266 322.309 97.4066 324.638 97.5864C326.92 97.7662 329.201 98.2727 331.402 98.8786C333.513 99.4608 335.539 100.247 337.484 101.259C338.994 102.045 340.428 103.001 341.711 104.123C342.786 105.07 343.822 106.026 344.665 107.195C345.133 107.848 345.54 108.516 345.862 109.254C346.085 109.756 346.279 110.267 346.501 110.769C347.453 112.922 348.272 115.185 348.485 117.542Z" fill="#01489e" fill-rule="nonzero" opacity="1" stroke="none" vectornator:layerName="path"/>
<path d="M310.729 144.042C310.181 143.945 309.663 143.79 309.583 143.763C308.04 143.45 306.521 143.091 305.551 142.755C304.386 142.357 303.141 142.154 302.034 141.605C301.205 141.197 300.391 140.786 299.639 140.246C298.706 139.579 297.892 138.717 297.277 137.747C296.534 136.578 296.359 135.129 296.415 133.776C296.434 133.212 296.458 132.654 296.453 132.091C296.444 131.376 296.463 130.666 296.458 129.956C296.458 128.995 296.425 128.063 296.534 127.102C296.658 126.003 296.82 124.922 297.076 123.86C296.691 123.109 296.54 122.241 296.628 121.355C296.681 120.838 296.862 120.361 297.04 119.882C297.088 119.72 297.132 119.556 297.173 119.391C297.271 119.002 297.423 118.632 297.623 118.293C297.623 117.195 297.902 116.221 298.427 115.216C298.952 114.213 299.781 113.441 300.543 112.627C301.721 111.373 303.264 110.549 304.907 110.076C306.052 109.74 307.179 109.484 308.376 109.413C309.391 109.358 310.397 109.426 311.254 109.584C311.368 109.607 311.486 109.626 311.502 109.635C312.19 109.712 312.837 109.885 313.393 110.293C314.398 110.619 315.225 111.429 315.514 112.49C315.936 114.019 315.136 115.671 313.673 116.291C313.232 116.477 312.755 116.551 312.284 116.526C311.827 116.683 311.349 116.797 310.874 116.947C310.632 117.041 310.395 117.144 310.161 117.255C309.388 117.663 308.632 118.129 307.904 118.612C307.706 118.754 307.514 118.903 307.326 119.06C307.113 119.257 306.905 119.462 306.706 119.674C306.578 119.83 306.456 119.989 306.338 120.152C306.254 120.286 306.171 120.42 306.094 120.558C306.019 120.719 305.946 120.882 305.88 121.046C305.803 121.291 305.735 121.536 305.676 121.783C305.664 121.856 305.653 121.928 305.644 122C305.628 122.456 305.622 122.91 305.617 123.055C305.546 124.352 305.442 125.649 305.262 126.931C305.158 127.674 305.115 128.427 304.992 129.161C304.879 129.828 304.77 130.481 304.725 131.118C304.701 131.481 304.683 131.847 304.684 132.21C304.85 132.443 305.031 132.665 305.217 132.883C305.488 133.183 305.766 133.477 306.059 133.754C306.142 133.821 306.226 133.887 306.311 133.951C306.617 134.151 306.927 134.346 307.245 134.524C307.316 134.555 307.389 134.585 307.461 134.613L307.789 134.709C308.37 134.826 308.955 134.945 309.544 135.012C309.796 135.025 310.051 135.033 310.301 135.031C311.263 134.95 312.2 134.85 313.176 134.935C313.881 134.992 314.563 135.167 315.235 135.38C316.816 135.877 318.023 137.15 318.25 138.826C318.473 140.464 317.668 142.158 316.229 142.982C315.245 143.545 314.198 143.938 313.072 144.08C312.722 144.126 312.358 144.15 311.994 144.15C311.567 144.15 311.138 144.116 310.729 144.042Z" fill="#01489e" fill-rule="nonzero" opacity="1" stroke="none" vectornator:layerName="path"/>
</g>
</g>
<g opacity="1" vectornator:layerName="path">
<clipPath clip-rule="nonzero" id="ClipPath_4">
<path d="M10.5371 39.3748L787.638 39.3748L787.638 258.991L10.5371 258.991L10.5371 39.3748Z"/>
</clipPath>
<g clip-path="url(#ClipPath_4)">
<path d="M192.818 258.58C192.065 258.434 191.355 258.131 190.697 257.742C188.529 256.474 186.702 254.571 185.424 252.418C184.52 250.903 183.858 249.256 183.223 247.613C182.482 245.682 181.758 243.751 180.89 241.874C180.855 241.804 180.82 241.735 180.783 241.666C180.551 241.322 180.303 240.989 180.037 240.67C179.826 240.432 179.608 240.204 179.379 239.984C179.103 239.733 178.813 239.5 178.515 239.277C178.181 239.045 177.84 238.83 177.485 238.634C177.093 238.43 176.694 238.248 176.284 238.083C175.582 237.827 174.867 237.617 174.216 237.456C174.165 237.444 174.114 237.433 174.063 237.421L174.036 237.415C172.025 236.971 169.97 236.741 167.94 236.542C162.118 235.979 156.272 235.581 150.431 235.302C144.235 235.004 138.03 234.909 131.825 234.871C128.79 234.852 125.752 234.843 122.718 234.848C119.955 234.848 117.193 234.857 114.43 234.956C113.875 234.977 113.314 234.997 112.766 235.072C112.763 235.073 112.761 235.074 112.759 235.075C111.798 235.316 110.794 234.686 110.562 233.735C110.326 232.765 110.941 231.785 111.897 231.539C112.442 231.402 113.033 231.392 113.587 231.359C114.884 231.288 116.181 231.274 117.478 231.255C120.668 231.203 123.863 231.208 127.058 231.217C133.434 231.231 139.814 231.274 146.185 231.487C152.159 231.69 158.127 232.069 164.082 232.552C166.543 232.755 169.014 232.964 171.461 233.285C173.288 233.527 175.129 233.849 176.881 234.44C178.443 234.971 179.882 235.718 181.183 236.741C181.732 237.176 182.239 237.673 182.703 238.199C183.214 238.781 183.754 239.439 184.085 240.139C184.819 241.697 185.467 243.287 186.078 244.896C186.579 246.198 187.057 247.509 187.63 248.787C187.673 248.882 187.715 248.976 187.753 249.053C188.056 249.685 188.384 250.304 188.752 250.9C189.025 251.323 189.318 251.727 189.634 252.114C189.995 252.531 190.381 252.927 190.612 253.146C191.041 253.536 191.492 253.9 191.962 254.236C192.236 254.423 192.513 254.601 192.804 254.76C192.906 254.809 193.009 254.854 193.114 254.897C193.24 254.94 193.368 254.978 193.496 255.012C193.549 255.021 193.602 255.029 193.655 255.037C193.847 255.049 194.037 255.052 194.226 255.05C194.571 255.031 194.911 254.997 195.251 254.942C195.853 254.829 196.442 254.681 196.851 254.562C196.918 254.54 196.985 254.518 197.052 254.497C198.291 254.091 199.496 253.586 200.675 253.03C203.964 251.453 207.125 249.626 210.341 247.916C212.168 246.946 213.999 245.985 215.855 245.071C218.084 243.973 220.361 242.989 222.666 242.071C225.312 241.02 227.996 240.111 230.727 239.311C233.676 238.445 236.662 237.716 239.659 237.058C245.883 235.685 252.183 234.852 258.507 234.109C265.474 233.29 272.451 232.628 279.442 232.074C285.988 231.558 292.539 231.122 299.09 230.668C310.611 229.873 322.17 229.977 333.714 229.901C345.316 229.825 356.917 229.811 368.518 230.147C371.145 230.223 373.767 230.289 376.394 230.27C379.481 230.247 382.562 230.162 385.648 230.133C392.043 230.072 398.442 230.1 404.837 230.133C410.877 230.162 416.916 230.143 422.956 230.176C428.626 230.204 434.297 230.275 439.963 230.573C442.968 230.729 445.969 230.942 448.97 231.122C449.959 231.184 450.764 231.984 450.731 232.997C450.703 233.962 449.846 234.814 448.861 234.757C445.652 234.563 442.443 234.336 439.234 234.175C436.309 234.029 433.379 233.934 430.454 233.877C424.759 233.778 419.065 233.792 413.376 233.792C407.052 233.787 400.728 233.73 394.409 233.726C391.257 233.726 388.105 233.74 384.952 233.773C381.885 233.806 378.818 233.891 375.751 233.91C373.138 233.92 370.525 233.844 367.912 233.768C364.788 233.678 361.664 233.607 358.54 233.56C353.111 233.475 347.687 233.503 342.258 233.508C336.554 233.513 330.851 233.565 325.147 233.588C319.33 233.617 313.508 233.641 307.71 233.853C301.586 234.084 295.479 234.573 289.368 234.999C282.628 235.468 275.892 235.964 269.166 236.613C265.181 236.996 261.205 237.451 257.229 237.924C253.636 238.35 250.044 238.805 246.716 239.368C240.78 240.4 234.902 241.791 229.383 243.509C225.693 244.673 222.07 246.144 218.57 247.789C214.9 249.548 211.318 251.499 207.747 253.449C204.907 254.997 202.053 256.564 199.004 257.662C197.698 258.135 196.33 258.523 194.943 258.642C194.626 258.669 194.308 258.688 193.99 258.688C193.596 258.688 193.203 258.659 192.818 258.58Z" fill="#000000" fill-rule="nonzero" opacity="1" stroke="none" vectornator:layerName="path"/>
<path d="M495.025 234.965C487.935 234.918 480.845 234.894 473.754 234.676C470.374 234.572 467 234.43 463.866 234.34C462.749 234.312 461.632 234.298 460.51 234.302C459.923 234.307 459.327 234.298 458.825 234.344C458.257 234.391 457.674 234.172 457.277 233.715C456.586 232.92 456.752 231.566 457.675 231.013C458.233 230.672 458.915 230.677 459.564 230.677C459.668 230.677 459.777 230.677 459.881 230.677C461.102 230.658 462.323 230.672 463.54 230.705C467.795 230.814 472.04 230.998 476.228 231.117C483.081 231.301 489.933 231.283 496.786 231.344C504.374 231.415 511.957 231.69 519.539 231.571C526.403 231.467 533.256 231.188 540.12 231.084C544.063 231.022 548.005 231.017 551.948 230.975C555.73 230.932 559.512 230.842 563.294 230.743C571.516 230.52 579.733 230.151 587.954 229.985C596.015 229.82 604.067 229.881 612.123 230.118C613.467 230.156 614.807 230.198 615.909 230.227C620.605 230.355 625.3 230.407 629.991 230.435C634.947 230.468 639.893 230.558 644.607 230.686C648.475 230.79 652.342 230.866 656.213 230.871C660.156 230.875 664.104 230.823 668.052 230.781C671.928 230.738 675.805 230.629 679.681 230.539C683.582 230.445 687.477 230.445 691.377 230.421C696.65 230.388 701.923 230.246 707.196 230.071C710.988 229.949 714.774 229.759 718.557 229.427C721.485 229.088 724.408 228.637 727.312 228.144C729.419 227.784 731.52 227.373 733.357 226.923C735.672 226.346 737.948 225.636 740.086 224.794C741.648 224.175 743.199 223.501 744.476 222.819C745.092 222.476 745.68 222.095 746.25 221.677C746.715 221.313 747.158 220.924 747.582 220.512C748.159 219.933 748.704 219.326 749.225 218.694C749.85 217.909 750.423 217.092 750.955 216.243C751.324 215.637 751.654 215.014 751.954 214.37C752.785 212.445 753.411 210.435 754.012 208.428C754.011 208.429 754.011 208.43 754.011 208.432C754.012 208.428 754.013 208.425 754.014 208.422L754.026 208.379C754.982 205.171 755.906 201.954 756.847 198.825L756.872 198.736C758.003 194.94 759.04 191.125 760.076 187.305C760.663 185.128 761.212 182.946 761.705 180.745C762.24 178.364 762.737 175.969 763.29 173.588C764.389 168.855 765.643 164.15 766.944 159.469C768.369 154.347 769.936 149.264 771.276 144.119C773.912 133.994 775.753 123.69 777.755 113.428C779.175 106.129 780.859 98.8777 782.044 91.581C782.05 91.545 782.056 91.509 782.061 91.4731C782.062 91.4703 782.062 91.4679 782.063 91.4652C782.062 91.4671 782.062 91.4688 782.062 91.4705C782.855 86.5102 783.523 81.5135 783.672 76.7305C783.698 75.8666 783.7 75.0027 783.626 74.1388C783.555 73.5517 783.443 72.9825 783.36 72.6504C783.099 71.609 782.792 70.5819 782.484 69.8104C782.08 68.7858 781.61 67.794 781.075 66.8301C780.584 65.9752 780.046 65.1564 779.601 64.5517C778.868 63.5672 778.068 62.6395 777.377 61.92C776.37 60.89 775.322 59.9052 774.3 59.0753C773.296 58.273 772.237 57.543 771.143 56.8609C769.224 55.6957 767.204 54.7081 765.161 53.7907C762.318 52.5403 759.37 51.5279 756.522 50.6669C753.793 49.8674 751.016 49.2813 748.216 48.8174C741.219 47.7365 734.138 47.4256 727.308 47.2372C719.588 47.0289 711.868 46.9248 704.143 47.0289C696.314 47.1331 688.48 47.1568 680.652 47.261C676.624 47.3177 672.591 47.384 668.563 47.3271C664.473 47.2704 660.393 47.1142 656.308 46.9107C649.071 46.5509 641.843 45.9971 634.611 45.5286C628.121 45.1073 621.627 44.6861 615.133 44.3025C608.535 43.9144 601.927 43.64 595.561 43.4695C591.471 43.3607 587.377 43.318 583.283 43.3465C579.378 43.3701 575.473 43.4791 571.568 43.5926C567.989 43.6967 564.411 43.7914 560.833 43.8387C557.245 43.8861 553.657 43.853 550.069 43.8434C541.994 43.8292 533.924 44.047 525.854 44.0802C522.819 44.0896 519.781 44.0802 516.747 44.0706C511.928 44.0517 507.105 44.0328 502.286 44.1133C498.59 44.1748 494.898 44.3263 491.201 44.4589C487.097 44.6055 482.998 44.809 478.899 45.0504C471.804 45.4576 464.709 45.912 457.609 46.2812C453.481 46.4988 449.359 46.7213 445.236 47.01C442.088 47.2325 438.94 47.4739 435.788 47.6869C433.09 47.8716 430.387 48.0087 427.685 48.094C424.225 48.1981 420.755 48.1698 417.29 48.1698C412.576 48.1745 407.857 48.2407 403.143 48.1649C398.76 48.0892 394.386 47.8147 390.249 47.6869C387.774 47.6206 385.298 47.6206 382.827 47.6206C381.97 47.6206 381.114 47.6206 380.262 47.6206C377.185 47.6112 374.104 47.5496 371.027 47.6491C370.033 47.6822 369.176 46.8965 369.138 45.9025C369.101 44.918 369.896 44.0517 370.885 44.0186C373.28 43.9382 375.675 43.9618 378.07 43.976C380.621 43.9902 383.173 43.9854 385.724 43.9902C390.798 43.9996 395.858 44.3452 400.691 44.4778C405.968 44.6198 411.251 44.5393 416.533 44.5393C420.031 44.5346 423.534 44.5535 427.032 44.473C429.744 44.4162 432.461 44.2647 435.168 44.0896C438.264 43.8813 441.354 43.6447 444.445 43.427C448.511 43.1335 452.582 42.9063 456.648 42.6932C463.781 42.3193 470.904 41.8791 478.033 41.4579C485.876 40.994 493.733 40.6769 501.591 40.4923C505.822 40.3929 510.054 40.445 514.285 40.4497C517.878 40.4497 521.47 40.4639 525.058 40.4497C533.11 40.426 541.161 40.1988 549.217 40.213C552.838 40.2178 556.459 40.2509 560.08 40.213C563.635 40.1704 567.185 40.0805 570.739 39.981C574.635 39.8722 578.535 39.7538 582.435 39.716C586.52 39.6781 590.61 39.7208 594.699 39.8154C603.111 40.019 611.512 40.4354 619.909 40.9561C627.686 41.439 635.467 41.9312 643.244 42.4566C650.548 42.9442 657.851 43.427 664.927 43.6209C673.003 43.8292 681.082 43.5973 689.162 43.5405C693.147 43.5121 697.138 43.4885 701.123 43.4317C704.749 43.3843 708.37 43.3323 711.996 43.3465C715.905 43.3607 719.82 43.4364 723.729 43.5169C727.71 43.602 731.691 43.7204 735.662 43.9335C742.431 44.3025 749.209 44.9841 755.788 46.6929C758.477 47.3934 761.113 48.3022 763.712 49.2773C765.667 50.0063 767.574 50.8677 769.448 51.7954C772.61 53.3527 775.583 55.2507 778.191 57.6364C780.548 59.7994 782.659 62.2465 784.235 65.0392C785.12 66.6154 785.845 68.2721 786.394 69.995C786.697 70.9558 786.962 71.9403 787.137 72.9344C787.284 73.7722 787.312 74.6289 787.321 75.4761C787.336 77.0997 787.227 78.7327 787.108 80.3514C786.976 82.098 786.796 83.8447 786.583 85.5866C786.1 89.4631 785.466 93.3208 784.756 97.1641C783.994 101.311 783.061 105.429 782.224 109.565C781.244 114.431 780.307 119.307 779.379 124.182C778.385 129.379 777.282 134.543 776.099 139.698C774.882 144.98 773.382 150.177 771.877 155.379C770.528 160.032 769.25 164.704 768.066 169.399C767.456 171.808 766.859 174.222 766.324 176.651C765.79 179.06 765.288 181.474 764.715 183.878C764.067 186.614 763.3 189.326 762.552 192.039C761.828 194.661 761.094 197.283 760.384 199.669C760.067 200.724 759.745 201.775 759.474 202.671C758.923 204.518 758.399 206.37 757.856 208.222C757.265 210.243 756.664 212.273 755.921 214.252C755.225 216.103 754.321 217.826 753.194 219.449C752.177 220.917 751.012 222.275 749.711 223.501C747.566 225.522 744.873 226.762 742.175 227.865C738.867 229.219 735.449 230.222 731.956 230.965C728.695 231.656 725.391 232.153 722.087 232.622C720.459 232.849 718.84 233.053 717.202 233.19C715.848 233.299 714.495 233.389 713.141 233.464C710.159 233.625 707.172 233.72 704.19 233.796C700.214 233.9 696.234 234.009 692.258 234.047C688.353 234.084 684.443 234.066 680.538 234.155C676.647 234.241 672.756 234.359 668.866 234.406C661.07 234.496 653.279 234.548 645.483 234.34C644.158 234.302 642.832 234.264 641.753 234.236C636.135 234.084 630.521 234.089 624.907 234.023C619.862 233.961 614.816 233.819 610.016 233.687C601.87 233.474 593.734 233.469 585.588 233.673C577.361 233.881 569.135 234.226 560.904 234.44C553.354 234.634 545.804 234.619 538.25 234.747C531.439 234.866 524.623 235.149 517.807 235.23C516.868 235.24 515.929 235.245 514.99 235.245C508.336 235.245 501.679 235.011 495.025 234.965Z" fill="#000000" fill-rule="nonzero" opacity="1" stroke="none" vectornator:layerName="path"/>
<path d="M189.545 47.3531C188.338 47.3342 187.131 47.3057 185.919 47.2773C185.347 47.2679 184.769 47.249 184.192 47.2347C184.054 47.2312 183.915 47.2315 183.777 47.2262C183.525 47.2347 183.266 47.2084 183.018 47.2016C182.701 47.1921 182.388 47.1827 182.071 47.1732C179.449 47.0881 176.836 46.9128 174.219 46.7236C171.502 46.5295 168.78 46.3306 166.063 46.1177C156.388 45.3651 146.723 44.3995 137.256 44.1155C132.282 43.9877 127.293 43.9877 122.323 44.2006C117.514 44.4089 112.719 44.7876 107.919 45.1285C105.415 45.3083 102.911 45.4692 100.403 45.5876C98.3863 45.6775 96.3653 45.7485 94.3488 45.8431C91.1212 45.9991 87.8743 46.1599 84.656 46.5043C84.0618 46.5749 83.4709 46.6592 82.8801 46.7472C81.9003 46.8892 80.9488 46.2644 80.7737 45.2703C80.6033 44.3143 81.2707 43.3109 82.2505 43.1641C85.5591 42.6718 88.915 42.5014 92.2519 42.312C96.4314 42.0754 100.616 41.9713 104.791 41.7015C109.685 41.3843 114.57 40.9537 119.469 40.6933C124.434 40.433 129.404 40.3667 134.374 40.4283C144.877 40.5607 155.323 41.6257 165.784 42.4493C168.046 42.6293 170.314 42.7949 172.576 42.9606C174.758 43.1167 176.936 43.3061 179.118 43.415C180.083 43.4623 181.054 43.5096 182.024 43.5428C182.528 43.5567 183.028 43.5754 183.532 43.5894C183.756 43.5823 183.982 43.599 184.14 43.6042C189.312 43.743 194.484 43.8078 199.66 43.8078C204.554 43.8078 209.449 43.7415 214.343 43.5049C219.824 43.2351 225.305 42.9511 230.791 42.9037C233.603 42.8801 236.41 42.9369 239.221 42.9936C241.753 43.0457 244.286 43.0978 246.823 43.0931C252.186 43.0837 257.549 42.9085 262.907 42.7475C267.957 42.5913 273.007 42.4446 278.058 42.3358C282.526 42.2412 286.994 42.1606 291.467 42.1749C296.797 42.1843 302.132 42.279 307.466 42.3547C315.394 42.4731 323.308 42.8565 330.995 43.0694C335.889 43.1972 340.784 43.2493 345.678 43.1972C347.888 43.1736 350.094 43.1404 352.3 43.1026C353.735 43.0755 355.192 43.0825 356.625 42.9532C356.708 42.9432 356.79 42.9275 356.872 42.9275C357.36 42.9417 357.8 43.0694 358.169 43.4008C358.524 43.7273 358.742 44.1912 358.761 44.6741C358.799 45.6159 358.003 46.5863 357.256 46.5342C355.765 46.7045 354.241 46.6998 352.745 46.7283C350.231 46.7756 347.713 46.8135 345.2 46.8371C339.676 46.8892 334.148 46.7993 328.624 46.6288C323.619 46.4742 318.619 46.2548 313.704 46.113C308.214 45.971 302.723 45.9189 297.228 45.8526C292.585 45.7958 287.946 45.7863 283.302 45.8668C273.31 46.042 263.323 46.3922 253.336 46.6288C250.529 46.6904 247.727 46.7425 244.92 46.7236C242.374 46.7045 239.827 46.6099 237.285 46.5721C231.757 46.4822 226.233 46.5863 220.709 46.8324C215.564 47.0643 210.428 47.3531 205.279 47.4146C203.345 47.4373 201.412 47.4483 199.478 47.4484C196.167 47.4484 192.856 47.4158 189.545 47.3531Z" fill="#000000" fill-rule="nonzero" opacity="1" stroke="none" vectornator:layerName="path"/>
<path d="M99.9446 233.103C98.2737 233.018 96.6076 232.947 95.1829 232.904L95.0078 232.899C88.2675 232.724 81.5273 232.743 74.7918 232.568C74.6315 232.565 74.4737 232.561 74.3705 232.559C70.7259 232.459 67.1001 232.251 63.465 231.986C59.9482 231.73 56.4312 231.555 52.9145 231.375C49.3076 231.186 45.7009 230.855 42.1557 230.154C38.5299 229.439 34.9752 228.341 31.5625 226.926C28.022 225.463 24.5241 223.707 21.5231 221.303C20.0747 220.143 18.6974 218.875 17.5045 217.455C16.3213 216.039 15.2516 214.52 14.3048 212.939C13.2872 211.226 12.4304 209.422 11.9099 207.486C11.4364 205.721 11.1382 203.903 11.0389 202.076C10.84 198.507 10.9301 194.919 11.0058 191.35C11.0153 190.887 11.0247 190.423 11.0389 189.959C11.0422 189.837 11.0426 189.715 11.0469 189.594C11.0394 189.372 11.0606 189.147 11.0672 188.927C11.072 188.667 11.0815 188.406 11.091 188.146C11.1193 187.251 11.1525 186.352 11.1903 185.457C11.3418 181.926 11.6495 178.405 11.9903 174.893C12.7239 167.338 13.5333 159.789 14.6363 152.277C15.5541 145.997 16.7314 139.763 17.7557 133.497C18.3168 130.029 18.798 126.55 19.2039 123.058C19.6109 119.508 19.8855 115.949 20.1837 112.389C20.4913 108.707 20.87 105.029 21.2912 101.356C21.7408 97.4747 22.1905 93.5792 22.9148 89.7358C23.5727 86.2379 24.4294 82.7731 25.5796 79.4029C26.763 75.9382 28.2208 72.568 29.8395 69.2879C31.4726 65.9793 33.3848 62.827 35.6521 59.9159C36.8402 58.3871 38.1939 57.0144 39.6376 55.7317C40.3097 55.14 41.0197 54.591 41.7343 54.0561C42.5296 53.4597 43.3295 52.8633 44.1625 52.3237C45.6772 51.3439 47.2439 50.4304 48.8627 49.6351C50.5052 48.8353 52.1998 48.1537 53.9179 47.5289C57.4253 46.2509 61.0889 45.3989 64.7241 44.5421C66.7688 44.0641 68.8231 43.6239 70.8868 43.2121C71.469 43.0937 72.056 42.9755 72.6428 42.8665C72.9884 42.805 73.3576 42.7198 73.7126 42.7483C74.7019 42.8335 75.4449 43.7517 75.355 44.7315C75.2729 45.5951 74.5793 46.2547 73.8545 46.3503C73.2345 46.4165 72.6145 46.5727 72.0039 46.6958C70.5128 46.9893 69.0219 47.2874 67.5404 47.6188C66.589 47.8318 65.6376 48.059 64.6861 48.2815C64.2508 48.3856 63.8105 48.4897 63.375 48.5939C63.1619 48.6483 62.9489 48.6983 62.7399 48.7483C62.4557 48.8385 62.1559 48.8956 61.8651 48.9678C58.9731 49.7014 56.1141 50.5345 53.563 51.5428C51.963 52.177 50.4058 52.8916 49.1042 53.6017C47.3833 54.5677 45.7275 55.6128 44.1412 56.7873C42.984 57.6617 41.8734 58.5799 40.8218 59.5773C40.0417 60.3485 39.3087 61.1633 38.616 62.0179C37.3971 63.5933 36.2848 65.2331 35.2498 66.9071C33.762 69.3605 32.545 71.9671 31.3827 74.5608C31.3718 74.5853 31.3612 74.6099 31.3503 74.6345C31.3296 74.6809 31.3088 74.7273 31.3103 74.7257C30.1381 77.3906 29.1074 80.1231 28.3343 82.6879C27.3976 85.8421 26.6995 89.0668 26.1472 92.3056C25.5561 96.0458 25.1183 99.8086 24.6992 103.571C24.2969 107.206 23.9514 110.851 23.6579 114.496C23.3692 118.098 23.0426 121.686 22.6024 125.273C22.1716 128.771 21.6462 132.26 21.0687 135.739C20.4073 139.717 19.6681 143.686 19.0145 147.624C19.0033 147.694 18.9923 147.764 18.9811 147.834C18.9797 147.843 18.9781 147.852 18.9785 147.85C17.8081 155.183 16.9051 162.549 16.1413 169.932C15.8006 173.279 15.455 176.625 15.1853 179.976C14.9237 183.144 14.7728 186.316 14.6835 189.381C14.6806 189.484 14.679 189.586 14.6747 189.687C14.6768 189.846 14.6657 190.007 14.6599 190.167C14.6504 190.598 14.641 191.033 14.6314 191.469C14.6172 192.306 14.6031 193.149 14.5889 193.992C14.5466 197.024 14.4671 200.098 14.7628 203.122C14.8939 204.17 15.0862 205.204 15.3328 206.23C15.5201 206.912 15.7389 207.582 15.9924 208.245C16.2792 208.945 16.603 209.63 16.9682 210.293C17.5931 211.379 18.2599 212.439 18.9246 213.36C18.9621 213.411 18.9998 213.461 19.0375 213.511L19.0473 213.524C19.671 214.357 20.3097 215.178 21.0173 215.946C22.0354 216.983 23.1219 217.937 24.0744 218.699C24.9449 219.356 25.8616 219.953 26.7582 220.508C28.27 221.413 29.8399 222.211 31.4461 222.932C33.7505 223.939 36.1079 224.801 38.4731 225.52C38.5004 225.528 38.5275 225.536 38.5548 225.544L38.6287 225.565C40.6046 226.133 42.627 226.577 44.6547 226.92C48.1678 227.47 51.7171 227.676 55.2669 227.854C58.6938 228.024 62.1208 228.242 65.5477 228.493C68.4633 228.71 71.3838 228.848 74.0676 228.919L74.3185 228.928C81.0776 229.108 87.8415 229.084 94.6006 229.259C94.7995 229.264 94.9983 229.269 95.1108 229.273C96.8343 229.321 98.5621 229.395 100.285 229.482C101.275 229.529 102.013 230.509 101.928 231.465C101.832 232.449 100.993 233.105 100.043 233.105C100.011 233.105 99.9777 233.104 99.9446 233.103Z" fill="#000000" fill-rule="nonzero" opacity="1" stroke="none" vectornator:layerName="path"/>
</g>
</g>
</g>
</g>
</g>
</g>
</svg>
