<svg width="560" height="574" viewBox="0 0 560 574" fill="none" xmlns="http://www.w3.org/2000/svg">
<rect x="191.569" y="13.0547" width="415.259" height="415.259" rx="53" transform="rotate(27.4726 191.569 13.0547)" fill="#FAE4B0"/>
<circle cx="401.5" cy="91.5" r="91.5" fill="#B9C6DF"/>
<mask id="mask0_297_123" style="mask-type:luminance" maskUnits="userSpaceOnUse" x="29" y="5" width="502" height="564">
<path d="M29.541 568.151H530.34V5H29.541V568.151Z" fill="white"/>
</mask>
<g mask="url(#mask0_297_123)">
<mask id="mask1_297_123" style="mask-type:luminance" maskUnits="userSpaceOnUse" x="29" y="446" width="197" height="123">
<path d="M29.543 446.409H225.653V568.15H29.543V446.409Z" fill="white"/>
</mask>
<g mask="url(#mask1_297_123)">
<path d="M67.1866 509.038C58.8701 508.198 50.2504 507.309 42.9322 502.887C29.7795 495.254 30.143 481.228 41.6464 472.146C48.129 466.466 56.6897 464.564 64.3672 461.142C69.8416 458.383 75.0768 455.32 78.9717 450.679C80.003 449.508 81.0842 448.394 82.1318 447.247C82.4752 446.87 83.0923 446.922 83.4215 447.281C83.9898 447.88 83.4683 448.649 83.0062 449.061C82.3222 449.858 81.6984 450.698 81.1377 451.516C79.0167 454.958 76.2632 457.926 72.8821 460.138C69.6301 462.352 66.2864 464.481 62.6833 466.062C55.9007 468.959 48.5361 471.062 42.9298 476.11C37.01 480.805 34.4498 489.418 40.809 494.932C46.4205 500.128 54.3525 501.867 61.6816 502.455C69.8578 503.564 78.1164 503.872 86.24 502.156C92.2521 500.99 98.2795 499.843 104.241 498.444C107.66 497.715 110.895 496.123 114.402 495.914C115.528 495.891 116.511 496.857 116.765 497.913C117.386 500.95 113.639 501.749 111.519 502.468C108.463 503.47 105.395 504.467 102.26 505.192C90.8007 507.609 78.8722 510.224 67.1866 509.038Z" fill="black"/>
<path d="M169.26 508.466C160.6 507.715 152.035 506.04 143.496 504.449C126.881 501.541 108.428 498.552 96.0111 486.049C95.5279 485.572 95.018 484.262 96.0445 484.151C97.7973 484.602 99.3778 485.716 101.041 486.46C116.92 493.492 134.026 497.371 150.654 501.992C157.517 503.871 164.806 503.956 171.76 504.834C173.748 505.201 173.754 508.328 171.671 508.548C170.865 508.609 170.068 508.53 169.26 508.466Z" fill="black"/>
<path d="M206.191 565.53C199.263 564.34 193.218 560.41 187.347 556.732C181.45 552.486 177.547 546.017 174.17 539.678C169.84 530.086 167.559 519.585 165.75 509.249C165.634 508.261 165.432 506.93 166.097 506.085C166.9 505.083 168.271 505.709 168.695 506.742C172.697 515.404 175.66 524.525 179.431 533.294C180.76 536.192 182.227 539.042 183.875 541.767C186.018 545.102 187.988 548.735 191.255 551.092C196.951 555.01 202.732 559.075 209.621 560.453C213.535 561.765 218.709 560.252 220.321 556.181C221.751 551.088 220.294 545.774 218.901 540.839C217.586 536.222 216.176 531.634 214.996 526.979C213.201 519.98 211.706 512.908 210.275 505.832C208.547 496.83 206.573 487.529 207.532 478.339C207.982 475.474 212.08 475.568 212.38 478.505C213.185 485.752 212.857 493.116 214.163 500.312C215.865 509.748 217.996 519.096 219.936 528.484C221.549 536.713 225.413 544.662 224.888 553.194C224.742 563.361 215.151 567.909 206.191 565.53Z" fill="black"/>
<path d="M206.931 479.905C200.725 474.468 192.882 471.985 185.501 468.677C179.15 466.035 172.953 462.758 166.202 461.27C156.771 458.608 147.085 457.629 137.5 455.763C127.385 453.078 116.951 452.407 106.702 450.461C98.8576 448.851 90.8612 449.506 82.9443 448.918C82.4927 448.84 81.9837 448.749 81.6919 448.36C81.2518 447.783 81.668 446.966 82.3989 446.977C82.6802 446.898 83.0313 446.836 83.2619 447.076C87.9547 447.034 92.5814 446.651 97.2579 446.704C102.072 446.807 106.855 447.42 111.594 448.266C119.544 449.618 127.569 449.647 135.31 451.935C144.596 454.266 154.205 454.965 163.441 457.504C171.3 459.022 178.499 462.472 185.74 465.769C190.532 467.968 195.469 469.843 200.23 472.109C202.528 473.289 204.681 474.733 206.737 476.306C207.753 477.176 209.858 478.122 208.792 479.709C208.332 480.301 207.498 480.365 206.931 479.905Z" fill="black"/>
<path d="M218.9 540.838C220.294 545.774 221.749 551.088 220.321 556.18C218.706 560.254 213.534 561.766 209.621 560.454C202.73 559.073 196.948 555.011 191.253 551.092C187.986 548.736 186.017 545.1 183.875 541.766C182.223 539.043 180.758 536.192 179.428 533.295C175.912 525.111 173.093 516.621 169.483 508.482C170.215 508.543 170.94 508.603 171.669 508.547C173.755 508.328 173.747 505.202 171.759 504.832C164.808 503.953 157.516 503.87 150.655 501.992C134.024 497.372 116.918 493.491 101.04 486.457C99.3796 485.714 97.7952 484.602 96.0425 484.149C95.0188 484.262 95.5268 485.571 96.009 486.046C100.52 490.587 105.827 493.876 111.552 496.358C109.097 496.938 106.716 497.915 104.242 498.443C98.2774 499.842 92.2529 500.989 86.2398 502.158C78.1152 503.874 69.8596 503.565 61.6824 502.456C54.3536 501.868 46.4195 500.129 40.8099 494.932C34.4491 489.418 37.0091 480.804 42.9289 476.108C48.5348 471.063 55.9009 468.958 62.6841 466.061C66.2871 464.481 69.6319 462.35 72.8829 460.136C76.2649 457.926 79.0155 454.958 81.1385 451.515C81.6992 450.697 82.323 449.859 83.007 449.06C83.052 449.021 83.097 448.977 83.1419 448.932C90.9977 449.494 98.9242 448.867 106.701 450.463C116.953 452.408 127.387 453.077 137.5 455.765C147.086 457.629 156.773 458.609 166.202 461.272C172.955 462.758 179.151 466.035 185.501 468.675C192.882 471.983 200.726 474.468 206.93 479.907C207.068 480.016 207.218 480.099 207.378 480.148C206.829 488.747 208.657 497.421 210.275 505.831C211.707 512.906 213.201 519.982 214.995 526.978C216.176 531.632 217.585 536.222 218.9 540.838Z" fill="#714A00"/>
</g>
<mask id="mask2_297_123" style="mask-type:luminance" maskUnits="userSpaceOnUse" x="204" y="147" width="327" height="124">
<path d="M204.417 147.662H530.339V270.713H204.417V147.662Z" fill="white"/>
</mask>
<g mask="url(#mask2_297_123)">
<path d="M484.724 270.362C449.978 269.216 415.833 261.745 381.457 257.109C374.306 256.137 367.166 255.143 360.03 254.064C345.128 254.112 330.257 252.923 315.45 251.316C297.448 249.338 279.44 247.332 261.394 245.787C247.713 244.274 233.014 242.803 221.678 234.194C208.917 224.306 204.657 206.875 205.735 191.297C206.522 173.649 213.645 160.591 229.948 153.134C240.96 148.106 253.323 147.925 265.202 147.903C304.036 148.202 342.328 155.221 380.881 159.066C413.762 162.22 446.958 162.993 479.514 168.978C496.694 171.818 515.243 178.826 523.987 195.087C529.146 205.211 530.1 216.928 529.743 228.144C529.372 237.46 528.29 247.128 523.973 255.502C516.018 268.873 498.751 270.471 484.724 270.362ZM496.392 263.993C519.96 261.589 523.44 250.621 524.679 228.733C525.491 211.951 522.228 193.903 506.952 184.497C497.715 178.316 486.262 176.266 475.624 174.129C462.432 171.906 449.133 170.3 435.796 169.245C409.657 167.406 383.501 165.572 357.474 162.461C339.174 160.518 321.002 157.454 302.627 156.245C285.396 154.947 267.657 153.116 250.563 154.661C234.623 156.008 215.614 164.491 213.098 182.232C210.981 195.536 211.726 210.437 219.378 221.907C229.921 237.755 250.414 239.095 267.59 240.684C295.004 243.054 322.312 246.684 349.799 248.151C350.312 247.492 351.13 247.108 352.022 247.155C356.597 247.403 361.136 248.106 365.665 248.803C368.652 248.88 371.637 248.917 374.625 248.914C376.365 249.08 382.132 248.233 381.574 251.123C403.421 254.194 425.209 257.699 447.06 260.745C463.686 262.843 479.903 265.39 496.392 263.993Z" fill="black"/>
<path d="M506.952 184.497C522.23 193.903 525.492 211.949 524.678 228.732C523.441 250.621 519.961 261.588 496.394 263.992C479.906 265.391 463.686 262.841 447.063 260.744C425.211 257.697 403.423 254.193 381.575 251.122C382.133 248.234 376.365 249.079 374.628 248.912C371.638 248.916 368.652 248.879 365.666 248.803C361.136 248.105 356.599 247.404 352.025 247.155C351.132 247.106 350.313 247.491 349.802 248.151C322.314 246.684 295.006 243.052 267.593 240.684C250.417 239.095 229.922 237.753 219.379 221.906C211.729 210.437 210.982 195.535 213.101 182.23C215.616 164.489 234.623 156.007 250.566 154.66C267.657 153.114 285.397 154.947 302.63 156.244C321.002 157.455 339.176 160.518 357.478 162.459C383.504 165.571 409.661 167.405 435.799 169.245C449.134 170.301 462.434 171.908 475.626 174.128C486.262 176.267 497.717 178.315 506.952 184.497Z" fill="#DEDEDE"/>
</g>
<mask id="mask3_297_123" style="mask-type:luminance" maskUnits="userSpaceOnUse" x="204" y="211" width="314" height="106">
<path d="M204.971 316.853H517.777V211.663H204.971V316.853Z" fill="white"/>
</mask>
<g mask="url(#mask3_297_123)">
<mask id="mask4_297_123" style="mask-type:luminance" maskUnits="userSpaceOnUse" x="204" y="211" width="314" height="106">
<path d="M204.97 211.663H517.776V316.852H204.97V211.663Z" fill="white"/>
</mask>
<g mask="url(#mask4_297_123)">
<path d="M211.13 309.258C206 305.295 205.21 298.369 205.565 292.291C206.096 283.991 206.452 275.984 206.983 267.826C207.462 261.87 207.865 256.82 207.725 251.091C207.609 241.786 205.856 230.68 212.851 223.347C211.349 223.283 209.837 223.277 208.369 222.907C207.783 222.756 207.041 222.367 207.146 221.631C207.265 220.828 208.087 220.58 208.761 220.418C212.618 219.664 216.567 219.543 220.472 219.169C251.556 217.013 282.744 215.818 313.899 216.546C332.288 217.036 350.686 217.656 369.08 217.14C387.271 216.637 405.334 214.232 423.501 213.322C445.397 211.903 467.433 213.391 489.001 217.401C496.42 218.618 505.117 219.731 509.497 226.696C517.537 239.188 514.216 257.19 512.386 271.186C511.096 279.113 509.496 286.991 507.792 294.839C506.427 303.171 502.894 308.582 494.574 311.017C489.005 312.763 483.113 313.149 477.313 313.283C466.35 313.33 455.376 312.999 444.419 312.721C424.417 311.922 404.491 311.301 384.5 310.882C350.989 309.965 317.463 310.568 283.962 311.622C272.416 312 260.865 312.376 249.327 313.01C237.991 313.249 220.328 316.61 211.13 309.258ZM219.6 306.684C228.084 309.044 236.979 308.015 245.646 307.795C251.55 307.545 257.451 307.259 263.359 307.063C297.349 306.006 331.347 304.977 365.358 305.205C391.455 305.504 417.579 306.326 443.656 307.232C454.62 307.584 465.591 308.017 476.563 307.895C481.406 307.831 486.283 307.563 491.012 306.439C499.383 304.556 502.435 300.123 503.747 291.805C504.88 286.094 506.145 279.897 507.134 274.387C509.201 260.668 513.887 239.334 505.095 227.52C503.025 224.975 499.743 224.143 496.661 223.615C492.753 222.792 488.805 221.784 484.898 221.116C473.933 219.424 462.896 218.005 451.797 217.684C428.185 216.842 404.729 220.376 381.208 221.699C356.991 222.663 332.752 222.366 308.523 222.471C279.012 222.778 249.506 223.558 219.989 223.477C221.432 226.379 218.693 228.462 216.859 230.257C215.036 233.22 214.869 236.991 214.572 240.396C214.253 247.553 214.353 254.714 214.222 261.875C214.26 268.674 213.731 275.444 213.292 282.225C212.968 287.758 212.216 293.295 212.439 298.844C212.437 302.998 215.961 305.625 219.6 306.684Z" fill="black"/>
<path d="M252.78 271.608C250.515 269.167 256.592 264.818 257.951 262.787C260.117 260.313 273.616 245.854 276.297 247.921C277.497 249.148 275.326 250.805 274.665 251.818C271.075 256.333 266.79 260.4 262.562 264.255C260.85 265.899 259.191 267.592 257.619 269.371C256.463 270.656 254.607 273.247 252.78 271.608Z" fill="black"/>
<path d="M272.593 270.776C268.614 267.333 264.898 263.785 260.975 260.364C258.98 258.54 256.989 256.702 255.085 254.78C253.722 253.319 252.082 251.829 251.597 249.815C251.489 249.113 251.76 248.318 252.52 248.148C253.017 248.041 253.499 248.358 253.887 248.626C255.394 249.767 256.805 251.045 258.261 252.261C264.025 257.221 269.907 262.141 275.205 267.597C276.528 269.32 274.527 271.91 272.593 270.776Z" fill="black"/>
<path d="M261.561 272.756C262.225 264.121 260.767 255.289 262.265 246.713C262.436 246.093 262.811 245.208 263.611 245.373C264.095 245.475 264.283 246.021 264.385 246.448C264.754 248.353 265.091 250.264 265.381 252.183C266.01 259.048 265.703 266.041 265.561 272.903C265.068 275.087 261.887 275.031 261.561 272.756Z" fill="black"/>
<path d="M249.424 261.784C244.114 257.573 266.821 258.106 268.659 258.055C271.201 258.388 278.645 256.618 278.848 260.27C278.866 261.28 278.154 262.162 277.175 262.352C276.01 262.718 274.322 262.768 273.228 262.633C270.61 262.551 267.981 262.694 265.367 262.887C260.097 263.178 254.41 263.932 249.424 261.784Z" fill="black"/>
<path d="M277.173 262.353C278.153 262.162 278.864 261.28 278.846 260.27C278.653 256.788 271.882 258.233 269.046 258.091C271.024 256.087 272.928 254.005 274.666 251.818C275.326 250.804 277.497 249.148 276.298 247.921C274.803 246.771 269.96 250.741 265.585 254.914C265.531 254.004 265.463 253.092 265.381 252.183C265.09 250.263 264.753 248.353 264.385 246.448C264.285 246.021 264.095 245.475 263.611 245.373C262.811 245.208 262.437 246.094 262.265 246.713C261.78 249.484 261.605 252.286 261.567 255.097C260.465 254.151 259.359 253.204 258.259 252.258C256.804 251.042 255.395 249.766 253.886 248.622C253.498 248.356 253.015 248.038 252.52 248.145C251.758 248.315 251.488 249.111 251.597 249.813C252.083 251.83 253.722 253.317 255.085 254.777C256.245 255.949 257.44 257.091 258.646 258.214C252.503 258.52 246.388 259.379 249.422 261.785C252.011 262.899 254.786 263.231 257.594 263.25C255.774 265.424 250.676 269.34 252.781 271.61C254.606 273.246 256.462 270.657 257.62 269.372C258.936 267.884 260.309 266.458 261.723 265.07C261.767 267.642 261.757 270.208 261.558 272.756C261.887 275.031 265.068 275.087 265.561 272.904C265.619 270.16 265.701 267.397 265.739 264.63C267.994 266.682 270.249 268.745 272.592 270.773C274.526 271.908 276.528 269.319 275.205 267.594C273.556 265.893 271.846 264.247 270.102 262.632C271.142 262.604 272.185 262.602 273.226 262.634C274.32 262.767 276.009 262.717 277.173 262.353ZM503.748 291.805C502.434 300.124 499.384 304.558 491.011 306.438C486.283 307.564 481.407 307.833 476.565 307.894C465.589 308.016 454.622 307.583 443.658 307.232C417.579 306.326 391.455 305.503 365.36 305.205C331.347 304.975 297.349 306.007 263.361 307.063C257.453 307.259 251.552 307.544 245.648 307.794C236.979 308.016 228.085 309.046 219.6 306.682C215.96 305.624 212.437 302.999 212.439 298.842C212.216 293.294 212.966 287.758 213.294 282.224C213.733 275.443 214.259 268.674 214.224 261.875C214.355 254.715 214.254 247.554 214.571 240.395C214.867 236.992 215.037 233.222 216.858 230.255C218.693 228.46 221.432 226.379 219.988 223.477C249.505 223.558 279.011 222.777 308.525 222.471C332.753 222.365 356.991 222.663 381.21 221.699C404.727 220.377 428.184 216.841 451.795 217.684C462.894 218.005 473.935 219.424 484.898 221.115C488.804 221.783 492.753 222.79 496.663 223.615C499.741 224.143 503.024 224.974 505.094 227.519C513.888 239.335 509.203 260.667 507.134 274.386C506.147 279.896 504.88 286.093 503.748 291.805Z" fill="white"/>
</g>
<mask id="mask5_297_123" style="mask-type:luminance" maskUnits="userSpaceOnUse" x="297" y="243" width="36" height="31">
<path d="M297.289 243.928H332.517V273.965H297.289V243.928Z" fill="white"/>
</mask>
<g mask="url(#mask5_297_123)">
<path d="M306.195 270.572C303.929 268.131 310.007 263.779 311.367 261.75C313.535 259.275 327.033 244.814 329.711 246.884C330.912 248.111 328.744 249.767 328.081 250.78C324.489 255.294 320.204 259.363 315.975 263.217C314.266 264.861 312.607 266.551 311.034 268.334C310.022 269.459 308.475 271.583 306.88 270.998C306.652 270.914 306.423 270.776 306.195 270.572Z" fill="black"/>
<path d="M326.01 269.737C322.03 266.294 318.313 262.747 314.392 259.325C312.397 257.501 310.407 255.664 308.503 253.74C307.139 252.282 305.498 250.788 305.014 248.777C304.905 248.075 305.176 247.279 305.938 247.108C306.433 247.002 306.915 247.319 307.305 247.586C308.81 248.729 310.223 250.006 311.677 251.221C317.441 256.182 323.323 261.102 328.623 266.558C329.864 268.179 328.169 270.566 326.355 269.901C326.24 269.858 326.126 269.804 326.01 269.737Z" fill="black"/>
<path d="M314.975 271.718C315.638 263.081 314.18 254.25 315.679 245.675C315.851 245.056 316.226 244.169 317.026 244.335C317.51 244.436 317.698 244.982 317.799 245.409C318.172 247.311 318.505 249.224 318.795 251.144C319.426 258.01 319.119 265 318.974 271.866C318.666 273.235 317.299 273.723 316.243 273.336C315.615 273.105 315.097 272.566 314.975 271.718Z" fill="black"/>
<path d="M302.838 260.743C297.53 256.536 320.236 257.067 322.072 257.014C324.616 257.35 332.063 255.579 332.263 259.229C332.281 260.239 331.569 261.121 330.589 261.312C329.427 261.679 327.738 261.731 326.643 261.593C324.024 261.51 321.395 261.654 318.781 261.846C313.789 262.125 308.42 262.817 303.628 261.058C303.363 260.961 303.099 260.856 302.838 260.743Z" fill="black"/>
</g>
<mask id="mask6_297_123" style="mask-type:luminance" maskUnits="userSpaceOnUse" x="442" y="245" width="36" height="31">
<path d="M442.227 245.092H477.455V275.128H442.227V245.092Z" fill="white"/>
</mask>
<g mask="url(#mask6_297_123)">
<path d="M451.133 271.735C448.867 269.294 454.944 264.943 456.304 262.914C458.472 260.439 471.97 245.978 474.648 248.048C475.849 249.275 473.681 250.931 473.018 251.944C469.427 256.457 465.141 260.527 460.913 264.381C459.204 266.024 457.544 267.716 455.971 269.498C454.961 270.623 453.413 272.747 451.817 272.162C451.589 272.078 451.361 271.94 451.133 271.735Z" fill="black"/>
<path d="M470.948 270.9C466.967 267.457 463.25 263.909 459.329 260.489C457.335 258.665 455.344 256.827 453.44 254.904C452.077 253.444 450.436 251.952 449.952 249.94C449.843 249.238 450.114 248.442 450.875 248.272C451.37 248.165 451.853 248.483 452.242 248.749C453.747 249.891 455.16 251.169 456.614 252.384C462.379 257.345 468.262 262.265 473.561 267.721C474.802 269.343 473.107 271.73 471.292 271.064C471.178 271.021 471.063 270.967 470.948 270.9Z" fill="black"/>
<path d="M459.913 272.883C460.576 264.245 459.116 255.414 460.616 246.839C460.787 246.22 461.162 245.334 461.962 245.499C462.446 245.6 462.634 246.147 462.736 246.573C463.108 248.476 463.441 250.388 463.731 252.308C464.363 259.174 464.055 266.164 463.912 273.03C463.603 274.4 462.235 274.887 461.179 274.5C460.552 274.269 460.033 273.731 459.913 272.883Z" fill="black"/>
<path d="M447.774 261.907C442.466 257.7 465.172 258.231 467.009 258.179C469.552 258.514 476.998 256.744 477.198 260.393C477.216 261.402 476.504 262.285 475.525 262.475C474.362 262.844 472.674 262.894 471.578 262.757C468.96 262.675 466.331 262.818 463.717 263.01C458.725 263.289 453.355 263.98 448.563 262.222C448.298 262.125 448.035 262.019 447.774 261.907Z" fill="black"/>
</g>
<mask id="mask7_297_123" style="mask-type:luminance" maskUnits="userSpaceOnUse" x="396" y="244" width="37" height="31">
<path d="M396.871 244.715H432.1V274.751H396.871V244.715Z" fill="white"/>
</mask>
<g mask="url(#mask7_297_123)">
<path d="M405.777 271.358C403.512 268.918 409.589 264.566 410.948 262.537C413.116 260.062 426.615 245.6 429.293 247.671C430.493 248.898 428.325 250.554 427.662 251.567C424.072 256.08 419.786 260.15 415.558 264.004C413.848 265.647 412.189 267.338 410.616 269.121C409.605 270.246 408.057 272.37 406.461 271.785C406.234 271.701 406.006 271.563 405.777 271.358Z" fill="black"/>
<path d="M425.593 270.523C421.612 267.08 417.895 263.533 413.974 260.111C411.979 258.288 409.988 256.45 408.084 254.527C406.722 253.068 405.08 251.574 404.596 249.563C404.488 248.861 404.759 248.066 405.519 247.896C406.016 247.789 406.497 248.105 406.886 248.373C408.391 249.515 409.805 250.792 411.259 252.008C417.023 256.969 422.906 261.889 428.205 267.345C429.445 268.966 427.752 271.353 425.937 270.687C425.822 270.645 425.707 270.591 425.593 270.523Z" fill="black"/>
<path d="M414.557 272.505C415.22 263.868 413.761 255.038 415.26 246.462C415.431 245.843 415.807 244.957 416.606 245.122C417.09 245.224 417.279 245.771 417.38 246.197C417.753 248.099 418.085 250.011 418.375 251.932C419.008 258.797 418.7 265.788 418.556 272.653C418.247 274.022 416.88 274.511 415.824 274.124C415.196 273.893 414.679 273.354 414.557 272.505Z" fill="black"/>
<path d="M402.418 261.53C397.11 257.324 419.817 257.855 421.653 257.803C424.196 258.138 431.643 256.367 431.843 260.016C431.861 261.026 431.149 261.909 430.169 262.099C429.007 262.467 427.319 262.518 426.223 262.381C423.604 262.298 420.976 262.442 418.361 262.634C413.37 262.913 408.001 263.604 403.209 261.845C402.943 261.748 402.68 261.643 402.418 261.53Z" fill="black"/>
</g>
<mask id="mask8_297_123" style="mask-type:luminance" maskUnits="userSpaceOnUse" x="344" y="242" width="36" height="31">
<path d="M344.229 242.79H379.456V272.826H344.229V242.79Z" fill="white"/>
</mask>
<g mask="url(#mask8_297_123)">
<path d="M353.136 269.432C350.869 266.991 356.947 262.639 358.307 260.61C360.475 258.135 373.974 243.673 376.651 245.744C377.851 246.97 375.684 248.627 375.021 249.64C371.43 254.154 367.144 258.223 362.916 262.076C361.206 263.721 359.547 265.411 357.974 267.194C356.963 268.319 355.415 270.443 353.82 269.857C353.592 269.774 353.364 269.636 353.136 269.432Z" fill="black"/>
<path d="M372.95 268.596C368.97 265.152 365.253 261.606 361.333 258.185C359.337 256.361 357.347 254.523 355.443 252.6C354.08 251.141 352.439 249.648 351.955 247.636C351.846 246.934 352.116 246.138 352.878 245.968C353.374 245.861 353.856 246.179 354.245 246.446C355.75 247.588 357.163 248.865 358.618 250.081C364.382 255.042 370.264 259.961 375.563 265.418C376.804 267.039 375.11 269.426 373.296 268.76C373.181 268.718 373.066 268.664 372.95 268.596Z" fill="black"/>
<path d="M361.915 270.579C362.578 261.941 361.119 253.111 362.619 244.536C362.791 243.916 363.166 243.03 363.965 243.195C364.45 243.297 364.638 243.843 364.739 244.27C365.111 246.172 365.444 248.085 365.734 250.005C366.366 256.87 366.059 263.86 365.914 270.726C365.605 272.096 364.239 272.584 363.182 272.196C362.555 271.966 362.037 271.426 361.915 270.579Z" fill="black"/>
<path d="M349.777 259.603C344.469 255.397 367.175 255.928 369.011 255.874C371.555 256.21 379.001 254.44 379.201 258.089C379.219 259.099 378.507 259.982 377.528 260.172C376.365 260.54 374.677 260.59 373.581 260.453C370.962 260.371 368.333 260.514 365.72 260.707C360.727 260.985 355.358 261.676 350.566 259.918C350.301 259.82 350.038 259.716 349.777 259.603Z" fill="black"/>
</g>
</g>
<mask id="mask9_297_123" style="mask-type:luminance" maskUnits="userSpaceOnUse" x="222" y="281" width="106" height="103">
<path d="M222.73 281.887H327.215V383.654H222.73V281.887Z" fill="white"/>
</mask>
<g mask="url(#mask9_297_123)">
<path d="M240.428 383.005C233.349 380.953 230.834 369.146 228.525 362.861C225.657 355.059 223.585 346.898 223.387 338.539C222.97 331.676 225.122 324.61 231.649 321.439C240.186 317.13 249.762 315.573 258.504 311.765C272.734 307.085 285.148 298.739 297.507 290.494C311.154 282.127 322.272 288.414 325.243 303.74C326.977 311.139 325.443 318.799 322.202 325.546C315.785 341.036 304.107 353.266 290.058 362.005C275.831 371.439 259.947 378.816 242.954 381.097C242.971 382.386 241.653 383.413 240.428 383.005ZM241.553 379.078C241.832 379.175 242.079 379.327 242.285 379.52C257.938 376.463 272.643 369.219 285.873 360.394C302.413 349.986 313.404 337.119 320.239 318.599C323.966 308.831 321.108 289.375 307.808 290.047C303.188 290.287 299.043 292.67 295.26 295.174C289.992 298.828 284.518 302.167 279.041 305.494C267.833 311.995 255.463 316.314 243.13 320.078C231.883 323.674 224.991 326.123 225.995 339.65C226.265 347.678 228.692 355.197 231.649 362.556C232.77 365.738 233.99 368.886 235.373 371.958C236.744 374.819 238.116 378.366 241.553 379.078Z" fill="black"/>
<path d="M307.808 290.047C321.108 289.376 323.967 308.829 320.242 318.598C313.406 337.119 302.415 349.987 285.874 360.393C272.644 369.218 257.938 376.463 242.286 379.521C242.081 379.329 241.834 379.175 241.554 379.076C238.119 378.368 236.745 374.818 235.376 371.96C233.99 368.886 232.771 365.737 231.65 362.554C228.694 355.196 226.268 347.676 225.996 339.649C224.994 326.122 231.885 323.673 243.131 320.076C255.464 316.312 267.835 311.994 279.042 305.495C284.521 302.165 289.996 298.827 295.262 295.173C299.044 292.669 303.189 290.285 307.808 290.047Z" fill="#C29662"/>
</g>
<mask id="mask10_297_123" style="mask-type:luminance" maskUnits="userSpaceOnUse" x="74" y="326" width="175" height="173">
<path d="M74.7363 326.703H248.272V498.892H74.7363V326.703Z" fill="white"/>
</mask>
<g mask="url(#mask10_297_123)">
<path d="M213.138 491.469C205.874 490.176 198.826 487.236 192.388 483.634C186.332 479.876 180.629 475.505 173.968 472.835C158.72 466.597 142.74 462.478 126.598 459.397C115.655 457.161 104.662 455.38 93.6238 454.393C85.3366 453.783 75.974 452.118 75.2918 441.922C74.9761 437.927 76.2572 434.05 77.367 430.272C79.6 423.156 82.3009 416.679 85.2419 409.94C92.8881 392.318 101.21 374.795 112.625 359.3C113.786 357.741 114.86 356.077 116.254 354.714C116.734 354.263 117.484 353.699 118.182 353.943C118.843 354.178 119 355.016 118.525 355.435C113.974 362.358 109.477 369.396 105.57 376.71C97.643 391.805 89.7959 407 83.6786 422.952C81.3795 429.411 77.8071 435.959 79.2087 442.917C80.3855 447.48 83.6537 449.581 88.1532 449.84C116.47 452.913 145.318 454.579 172.281 464.664C183.332 468.351 192.08 476.887 202.319 482.085C230.689 498.65 221.998 458.249 220.888 442.728C220.057 431.526 219.026 420.152 219.108 408.968C220.082 406.469 223.145 407.72 223.021 410.223C223.384 416.646 223.74 423.075 224.091 429.499C224.241 442.174 227.483 454.35 227.98 466.903C228.214 476.54 225.314 491.946 213.138 491.469Z" fill="black"/>
<path d="M205.118 411.808C203.345 408.974 210.603 408.171 212.237 407.198C217.934 405.139 223.797 402.813 228.479 398.868C233.818 394.584 238.05 389.219 240.896 383.045C242.63 378.577 242.268 373.372 241.591 368.909C240.555 360.694 237.947 352.751 237.303 344.475C236.949 339.871 236.9 335.212 237.351 330.657C237.336 330.647 237.322 330.637 237.307 330.627C237.3 330.622 237.291 330.619 237.283 330.615C226.071 333.899 214.908 337.892 203.128 338.586C192.211 339.156 181.245 339.062 170.316 339.012C160.762 339.226 151.081 338.163 141.735 340.185C138.089 341.909 134.43 343.801 131.158 346.146C128.752 347.665 126.05 349.147 124.69 351.771C123.845 352.815 123.529 354.054 122.79 355.11C121.973 356.021 121.257 357.015 120.387 357.871C119.111 359.552 116.297 358.503 116.236 356.429C116.111 354.836 117.005 353.565 117.731 352.247C118.079 351.446 118.576 350.737 119.276 350.233C121.565 346.402 125.136 343.443 128.874 341.107C137.587 335.887 148.192 334.253 158.115 334.482C167.549 334.488 176.981 334.763 186.414 334.895C193.827 334.893 201.304 334.618 208.642 333.557C214.776 332.687 220.809 331.186 226.69 329.503C230.186 328.614 233.6 327.135 237.222 326.944C239.929 327.018 241.075 329.526 241.231 331.944C242.004 335.927 241.38 340.117 241.863 344.164C241.995 350.28 243.714 356.138 244.778 362.118C248.035 377.054 246.883 382.274 237.617 394.344C230.787 402.465 221.694 408.894 211.368 411.464C209.429 411.824 206.874 413.18 205.118 411.808Z" fill="black"/>
<path d="M222.215 407.076C222.229 406.769 222.476 406.563 222.77 406.563C223.064 406.563 223.283 406.875 223.269 407.152C223.254 407.459 223.008 407.666 222.713 407.666C222.418 407.666 222.2 407.354 222.215 407.076Z" fill="black"/>
<path d="M220.704 411.709C218.431 411.194 217.567 407.389 219.783 406.254C220.155 405.376 221.443 405.331 221.838 406.201C223.735 407.014 223.718 409.901 222.409 411.224C222.408 411.221 222.406 411.217 222.405 411.214C221.963 411.637 221.314 411.844 220.704 411.709Z" fill="black"/>
<path d="M241.588 368.908C242.268 373.374 242.628 378.579 240.895 383.046C238.05 389.219 233.819 394.587 228.476 398.867C223.798 402.816 217.933 405.141 212.234 407.196C210.6 408.169 203.343 408.975 205.115 411.807C206.871 413.182 209.427 411.826 211.364 411.462C213.825 410.849 216.219 410.019 218.526 408.994C218.597 409.54 218.797 410.082 219.101 410.537C219.12 421.21 220.093 432.051 220.887 442.729C221.998 458.249 230.689 498.65 202.317 482.087C192.077 476.887 183.335 468.351 172.279 464.666C145.317 454.577 116.471 452.914 88.1504 449.842C83.6528 449.583 80.3856 447.479 79.2078 442.916C77.8072 435.957 81.3786 429.41 83.6767 422.955C89.7941 407 97.6441 391.807 105.571 376.71C109.004 370.274 112.904 364.057 116.888 357.937C117.809 358.881 119.481 359.059 120.384 357.87C121.257 357.017 121.97 356.02 122.787 355.11C123.528 354.055 123.846 352.814 124.691 351.769C126.049 349.147 128.752 347.666 131.155 346.147C134.428 343.803 138.089 341.911 141.736 340.185C151.078 338.162 160.762 339.226 170.312 339.011C181.245 339.063 192.21 339.159 203.125 338.584C214.907 337.894 226.068 333.902 237.281 330.613C237.291 330.619 237.3 330.624 237.305 330.628C237.319 330.637 237.333 330.647 237.347 330.657C236.897 335.215 236.948 339.873 237.3 344.474C237.946 352.751 240.553 360.693 241.588 368.908Z" fill="#FAA500"/>
</g>
<mask id="mask11_297_123" style="mask-type:luminance" maskUnits="userSpaceOnUse" x="83" y="156" width="203" height="212">
<path d="M83.1934 156.747H285.615V367.166H83.1934V156.747Z" fill="white"/>
</mask>
<g mask="url(#mask11_297_123)">
<path d="M197.818 279.875C186.174 277.266 173.162 271.131 168.497 259.295C166.696 254.553 166.666 249.351 166.892 244.346C167.322 241.125 168.946 238.176 170.373 235.312C172.955 230.579 179.616 231.244 183.785 233.27C188.792 235.825 193.011 239.745 196.484 244.144C197.374 245.427 202.297 250.393 201.015 251.626C200.601 251.878 200.217 251.586 200.125 251.216C200.124 251.219 200.123 251.222 200.122 251.223C195.494 244.037 183.761 232.107 174.495 235.173C173.365 235.622 172.738 237.003 172.272 237.924C171.392 240.251 170.009 242.588 170.214 245.151C170.58 256.824 175.169 263.586 185.525 268.512C188.908 270.219 192.495 271.451 196.176 272.319C198.6 273.029 201.594 272.369 203.603 274.118C205.504 275.967 204.413 279.734 201.708 280.014C200.403 280.133 199.117 280.076 197.818 279.875Z" fill="black"/>
<path d="M178.095 366.691C152.188 365.602 127.362 351.963 111.264 331.68C90.3063 303.792 83.4322 264.597 95.9099 231.667C111.252 192.683 146.18 171.664 185.096 162.1C203.145 157.868 222.279 156.988 240.481 160.667C258.772 164.368 266.578 174.116 267.718 192.747C270.554 193.722 272.289 196.501 273.905 198.884C278.333 205.401 280.639 213.069 281.785 220.82C284.878 241.619 285.376 262.965 282.107 283.772C278.209 308.646 264.842 332.593 243.544 346.299C225.997 357.889 199.056 366.924 178.095 366.691ZM184.056 362.066C204.769 359.822 225.589 353.157 242.901 341.368C264.08 326.626 276.555 301.677 279.187 276.296C280.815 263.308 280.636 250.162 279.904 237.173C278.792 222.992 277.671 207.535 268.296 196.176C268.145 196.662 267.764 197.078 267.271 197.221C264.52 197.59 265.104 192.932 264.716 191.13C264.326 186.651 263.688 182.284 261.824 178.304C252.717 157.256 207.187 160.988 188.651 164.981C150.921 173.643 115.96 193.223 100.364 230.583C87.6858 262.049 93.9553 299.943 113.51 327.18C130.092 348.78 156.992 363.38 184.349 362.042L184.056 362.066Z" fill="black"/>
<path d="M201.707 280.017C204.41 279.734 205.503 275.967 203.603 274.122C201.594 272.367 198.597 273.029 196.175 272.319C192.494 271.452 188.909 270.22 185.522 268.514C175.17 263.587 170.581 256.825 170.216 245.154C170.007 242.591 171.393 240.251 172.273 237.927C172.738 237.002 173.364 235.622 174.495 235.176C183.761 232.108 195.492 244.038 200.121 251.227C200.222 251.591 200.606 251.879 201.015 251.629C202.297 250.393 197.371 245.427 196.484 244.143C193.012 239.743 188.79 235.827 183.784 233.274C179.615 231.246 172.956 230.58 170.372 235.315C168.943 238.176 167.323 241.129 166.891 244.35C166.663 249.353 166.697 254.553 168.496 259.297C173.16 271.13 186.173 277.265 197.818 279.878C199.115 280.079 200.401 280.137 201.707 280.017ZM279.904 237.174C280.635 250.163 280.816 263.309 279.187 276.297C276.555 301.68 264.08 326.625 242.902 341.368C225.63 353.129 204.867 359.791 184.207 362.048C156.899 363.328 130.061 348.744 113.51 327.181C93.9525 299.945 87.684 262.049 100.364 230.585C115.96 193.22 150.919 173.643 188.647 164.982C207.189 160.99 252.715 157.256 261.824 178.305C263.686 182.284 264.327 186.65 264.716 191.131C265.101 192.933 264.521 197.592 267.271 197.222C267.765 197.079 268.145 196.662 268.297 196.177C277.672 207.536 278.792 222.993 279.904 237.174Z" fill="#C29662"/>
</g>
<mask id="mask12_297_123" style="mask-type:luminance" maskUnits="userSpaceOnUse" x="238" y="228" width="22" height="28">
<path d="M238.715 228.784H259.748V255.58H238.715V228.784Z" fill="white"/>
</mask>
<g mask="url(#mask12_297_123)">
<path d="M248.481 255.337C245.384 255.339 243.046 252.902 241.797 250.236C239.494 247.939 239.308 244.411 239.321 241.325C238.956 235.518 243.771 229.026 249.991 230.516C257.099 232.571 257.126 236.541 258.435 242.968C259.509 248.959 254.556 255.285 248.481 255.337Z" fill="#FFBCBC" fill-opacity="0.619608"/>
</g>
<mask id="mask13_297_123" style="mask-type:luminance" maskUnits="userSpaceOnUse" x="37" y="110" width="256" height="247">
<path d="M37.4199 110.516H292.618V356.975H37.4199V110.516Z" fill="white"/>
</mask>
<g mask="url(#mask13_297_123)">
<path d="M291.452 186.06C291.984 187.733 292.378 189.506 292.15 191.27C292.06 191.96 291.86 192.636 291.519 193.239C291.205 193.791 290.716 194.213 290.213 194.582C289.101 195.416 287.843 196.053 286.598 196.662C285.853 197.021 285.097 197.356 284.333 197.678C283.478 198.037 282.628 198.425 281.764 198.776C277.784 200.4 273.69 201.737 269.615 203.093C265.426 204.493 261.213 205.816 257.001 207.148C252.751 208.495 248.495 209.808 244.23 211.112C239.699 212.492 235.159 213.815 230.581 215.008C228.33 215.593 226.074 216.173 223.804 216.681C221.681 217.156 219.548 217.596 217.411 217.999C214.462 218.56 211.503 219.072 208.545 219.576C205.61 220.074 202.665 220.602 199.768 220.802C198.909 220.884 198.053 220.961 197.194 221.004C197.028 221.009 196.861 221.019 196.695 221.028C196.762 222.615 196.648 224.316 196.99 225.5C198.167 232.981 203.558 239.561 203.054 247.287C202.737 251.682 197.393 251.246 196.98 247.138C191.258 240.515 181.697 228.298 172.479 236.168C169.202 239.307 169.639 244.412 170.313 248.409C171.591 255.19 174.07 262.164 179.289 266.86C181.308 268.768 184.011 270.532 186.518 271.471C188.422 272.114 190.46 273.077 191.319 275.032C191.533 275.718 191.747 276.858 191.846 278.114C191.923 278.181 191.989 278.258 192.046 278.339C192.369 278.775 192.469 279.283 192.426 279.815C192.25 281.914 192.051 284.008 191.837 286.104C191.552 288.945 191.3 291.787 190.787 294.596C190.018 298.852 188.888 303.059 187.254 307.061C185.602 311.102 183.493 314.936 181.17 318.55C181.141 318.593 181.114 318.636 181.085 318.679C181.066 318.708 181.047 318.742 181.042 318.742C178.568 322.561 175.884 326.247 172.949 329.722C172.18 330.632 171.401 331.534 170.612 332.43C169.843 333.306 169.084 334.199 168.252 335.022C167.402 335.871 166.477 336.657 165.559 337.433C164.695 338.172 163.802 338.871 162.886 339.542C160.872 341.018 158.787 342.384 156.626 343.626C154.745 344.714 152.793 345.671 150.842 346.611C148.614 347.685 146.368 348.711 144.098 349.688C142.008 350.594 139.904 351.466 137.753 352.204C135.469 352.99 133.112 353.565 130.771 354.064C128.687 354.5 126.583 354.812 124.479 355.118C122.156 355.459 119.824 355.742 117.488 356C113.095 356.489 108.678 356.733 104.261 356.733C103.763 356.733 103.259 356.728 102.761 356.723C102.063 356.719 101.364 356.686 100.671 356.628C99.7731 356.552 98.8805 356.306 98.0156 356.067C96.8905 355.761 95.7701 355.267 94.7722 354.658C93.7036 354.011 92.7392 353.249 91.8418 352.372C91.1769 351.72 90.5645 351.006 89.914 350.34C88.432 348.821 86.9644 347.292 85.5254 345.729C83.9105 343.98 82.3529 342.174 80.8193 340.347C77.8505 336.81 75.0014 333.163 72.2613 329.439C69.4542 325.624 66.828 321.651 64.6246 317.452C63.423 315.161 62.3256 312.813 61.3421 310.417C60.8675 309.257 60.3787 308.097 59.9653 306.914C59.5329 305.667 59.1199 304.411 58.7257 303.151C58.0514 300.965 57.51 298.737 57.0492 296.499C56.978 296.158 56.8926 295.818 56.8498 295.473C56.8356 295.416 56.8213 295.358 56.8119 295.296C56.7928 295.204 56.7786 295.118 56.7596 295.028C54.9406 285.711 54.2093 276.187 53.7961 266.712C53.5919 262.058 53.4826 257.395 53.6345 252.746C53.7819 248.073 54.157 243.409 54.594 238.756C55.0546 233.887 55.6483 229.026 56.3654 224.186C57.092 219.293 57.9563 214.423 59.0202 209.592C60.0457 204.906 61.433 200.28 63.3043 195.867C64.2534 193.628 65.3125 191.438 66.3764 189.252C67.3647 187.216 68.3951 185.198 69.4542 183.195C71.8049 178.742 74.3603 174.395 77.1712 170.225C79.7649 166.377 82.5758 162.658 85.6728 159.207C88.94 155.564 92.455 152.142 96.1499 148.941C99.9061 145.686 103.9 142.735 108.009 139.94C109.927 138.636 111.97 137.51 114.016 136.417C116.301 135.205 118.642 134.102 120.997 133.039C125.277 131.107 129.632 129.353 134.011 127.671C135.891 126.952 137.776 126.229 139.667 125.543C139.686 125.533 139.709 125.529 139.714 125.524C139.733 125.519 139.752 125.514 139.752 125.509C144.202 123.894 148.699 122.427 153.259 121.167C158.046 119.85 162.919 118.732 167.825 117.971C172.204 117.295 176.644 116.892 181.071 116.868C183.383 116.854 185.687 116.921 187.986 117.161C190.213 117.4 192.431 117.74 194.639 118.105C196.909 118.479 199.18 118.91 201.416 119.442C203.501 119.935 205.562 120.501 207.614 121.1C211.812 122.327 215.972 123.708 220.071 125.236C224.411 126.856 228.705 128.625 232.899 130.599C237.111 132.579 241.224 134.778 245.223 137.174C253.23 141.972 260.824 147.469 267.715 153.796C271.197 156.988 274.493 160.395 277.56 163.995C278.914 165.591 280.197 167.249 281.44 168.931C282.78 170.747 284.1 172.583 285.353 174.466C286.589 176.316 287.762 178.219 288.835 180.174C289.865 182.058 290.796 184.005 291.452 186.06Z" fill="black"/>
<path d="M252.376 237.791C243.169 233.131 247.63 215.646 258.626 219.786C262.316 221.585 264.383 225.564 263.341 229.659C263.68 235.328 257.695 240.294 252.376 237.791Z" fill="black"/>
<path d="M264.647 274.915C260.07 273.42 256.082 270.499 252.483 267.352C250.539 266.994 251.178 263.866 253.139 264.371C257.218 267.249 261.896 269.553 266.936 270.124C271.082 270.509 275.069 269.239 279.153 268.788C280.854 268.262 282.92 268.161 283.672 270.155C284.934 274.18 279.513 274.523 276.832 275.015C272.816 275.717 268.602 276.209 264.647 274.915Z" fill="black"/>
<path d="M281.647 189.372C280.669 189.291 279.905 187.607 281.2 187.511C279.638 177.345 265.149 164.699 256.927 159.091C238.708 146.009 217.488 136.467 195.171 133.78C185.089 133.119 175.069 135.319 165.244 137.312C152.818 139.978 140.505 143.144 128.238 146.461C125.733 147.133 124.589 143.178 127.164 142.399C133.683 140.63 140.211 138.913 146.767 137.296C153.441 135.652 160.134 134.098 166.854 132.671C176.789 130.745 186.909 128.243 197.084 129.232C215.259 131.663 232.697 138.576 248.363 147.988C258.415 154.526 268.655 161.367 276.086 170.982C279.538 175.651 284.009 180.845 283.788 186.984C283.682 188.112 282.941 189.521 281.647 189.372Z" fill="black"/>
<path d="M60.4996 289.225C50.9057 266.354 48.7922 226.054 53.9374 201.919C57.5726 183.278 66.8504 166.135 79.3951 152.076C86.2701 144.076 94.3746 137.103 103.773 132.308C112.2 127.92 121.216 124.813 130.233 121.915C151.016 115.17 173.511 110.757 195.164 115.621C211.235 119.393 226.355 126.524 240.833 134.372C249.367 139.132 257.931 143.995 265.644 150.042C273.088 156.087 280.099 163.312 283.834 172.32C284.862 175.215 286.397 179.32 283.99 181.858C281.014 183.93 280.14 179.501 279.24 177.77C277.214 173.583 274.569 169.736 271.615 166.163C262.336 155.313 249.698 148.271 237.3 141.661C222.378 134.277 207.359 126.416 191.113 122.481C173.23 118.622 154.655 121.934 137.379 127.15C126.818 130.393 116.516 133.678 106.75 138.636C97.8753 143.083 90.0234 150.199 83.8314 157.649C69.3608 174.065 60.8143 195.544 59.4577 217.395C58.1372 239.021 60.2221 260.837 65.7358 281.78C66.2754 284.692 68.2252 288.988 64.7341 290.695C63.2004 291.382 61.3233 290.724 60.4996 289.225Z" fill="black"/>
<path d="M95.9551 349.205C94.5965 349.009 93.4542 348.239 92.3003 347.539C89.4914 345.845 86.7676 344.013 84.1164 342.077C66.7269 329.751 54.9532 310.664 49.169 290.224C44.6241 274.122 44.278 256.979 46.9678 240.516C49.7678 223.172 54.2671 205.797 63.0157 190.468C76.3315 167.487 98.3766 150.942 122.696 141.304C152.364 129.088 185.837 127.296 217.095 133.595C222.418 134.77 227.718 136.194 232.783 138.249C233.594 138.581 234.394 138.935 235.138 139.406C235.43 139.596 235.867 139.901 235.833 140.3C235.733 140.747 235.208 140.571 234.899 140.508C230.874 139.512 226.565 138.406 222.596 137.566C172.823 127.531 114.828 137.957 80.0312 177.524C66.4571 193.028 58.9894 212.721 55.444 232.792C51.3169 252.529 51.1376 273.447 57.5889 292.703C63.2798 310.619 74.6687 327.142 90.1515 337.657C92.1023 339.03 94.1 340.345 96.1235 341.606C98.1297 342.675 100.402 344.65 99.3486 347.188C98.8234 348.484 97.3682 349.493 95.9551 349.205Z" fill="black"/>
<path d="M67.9477 292.736C66.9623 290.656 66.9517 288.191 66.9049 285.92C66.8809 285.359 67.1316 284.304 67.8836 284.571C68.3591 284.82 68.5753 285.416 68.8107 285.868C69.6909 287.785 70.9451 289.698 71.0791 291.85C71.169 293.554 68.738 294.28 67.9477 292.736Z" fill="black"/>
<path d="M92.2979 327.153C92.2979 327.025 92.3983 326.912 92.5294 326.912C92.6605 326.912 92.7609 327.025 92.7609 327.153C92.7609 327.281 92.6605 327.395 92.5294 327.395C92.3983 327.395 92.2979 327.281 92.2979 327.153Z" fill="black"/>
<path d="M95.1064 333.359C95.1064 332.953 95.4279 332.594 95.8393 332.594C96.2497 332.594 96.5712 332.953 96.5712 333.359C96.5712 333.767 96.2497 334.125 95.8393 334.125C95.4279 334.125 95.1064 333.767 95.1064 333.359Z" fill="black"/>
<path d="M94.563 351.351C91.9415 346.294 87.8668 342.306 84.0915 338.117C79.7049 333.222 75.0198 328.614 70.659 323.696C63.4988 315.444 57.0938 306.353 52.698 296.284C48.6777 286.204 45.1856 275.708 43.8374 264.898C43.7881 261.959 47.883 260.98 48.991 263.808C49.6013 265.646 49.8722 267.578 50.3625 269.45C53.4779 282.865 57.7203 295.802 65.2831 307.266C69.5195 313.788 74.5912 319.685 79.8752 325.351C84.4694 330.367 88.9211 335.533 92.9824 341.003C94.7725 343.597 97.0342 346.616 96.2554 349.956C96.1043 350.685 95.4431 352.102 94.563 351.351Z" fill="black"/>
<path d="M51.1777 273.864C51.1777 273.661 51.3385 273.484 51.544 273.484C51.7496 273.484 51.9102 273.661 51.9102 273.864C51.9102 274.068 51.7496 274.246 51.544 274.246C51.3385 274.246 51.1777 274.068 51.1777 273.864Z" fill="black"/>
<path d="M93.0036 352.016C75.1825 337.436 54.9779 311.265 47.8953 289.131C37.6588 256.568 45.595 217.498 59.0068 186.906C61.3386 181.346 65.021 176.582 68.9848 172.118C70.395 170.61 71.9258 169.188 73.5895 167.965C74.6123 167.003 76.2914 166.988 77.1438 168.185C78.2374 169.665 77.2644 171.2 76.1258 172.27C73.4719 176.149 70.33 179.656 67.6836 183.537C63.3515 190.984 60.5187 199.228 57.7174 207.355C53.6985 218.98 51.3089 231.327 50.6238 243.559C49.9636 254.819 49.5743 266.235 51.559 277.389C54.4192 293.036 62.4618 307.074 71.7354 319.728C76.3928 326.035 81.34 332.117 86.2443 338.228C87.8525 340.609 97.0458 350.375 94.8615 352.228C94.3114 352.713 93.5202 352.314 93.0036 352.016Z" fill="black"/>
<path d="M53.1572 285.37C51.7357 283.311 50.8654 280.962 50.2388 278.552L50.2382 278.551C47.4284 276.173 47.7003 269.479 49.5793 266.575C49.4071 264.487 49.5124 262.425 49.5396 260.339C49.4949 258.42 50.1686 256.227 52.0914 255.485C51.604 237.958 56.649 220.883 61.3039 204.166C63.4374 197.609 71.3238 167.017 77.5311 166.051C78.6591 164.834 79.3058 163.473 79.7737 161.914C80.4195 160.621 81.4728 159.615 82.5855 158.728C81.5341 156.599 83.5375 154.592 85.0654 153.335C89.0033 149.973 93.1182 146.801 97.3909 143.887C103.368 139.943 109.658 136.501 116.088 133.369C119.873 131.536 123.779 129.964 127.869 129.043C129.977 128.313 132.897 127.804 133.131 130.906C133.105 133.119 130.518 133.76 129.004 134.795C124.8 137.28 120.745 140.014 116.668 142.703C109.951 147.153 103.651 151.221 97.4436 155.998C93.5305 158.839 90.16 162.39 86.0862 165.005C84.6616 167.66 82.883 170.19 80.4539 172.004C79.2178 173.821 77.6928 175.431 77.0451 177.581C70.7909 194.79 65.5413 211.962 61.7086 229.825C60.22 237.377 59.4173 245.052 59.2188 252.746C59.0733 256.378 59.3488 260.018 59.0208 263.649C58.9435 264.876 58.6233 266.161 57.7855 267.096C57.7519 267.873 57.68 268.676 57.44 269.416C57.2538 269.988 57.0175 270.565 56.6948 271.081C56.8514 271.716 57.0001 272.35 57.1051 272.998C59.1075 275.304 61.3298 282.126 59.821 284.921C58.5609 287.415 54.7086 287.733 53.1572 285.37Z" fill="black"/>
</g>
<mask id="mask14_297_123" style="mask-type:luminance" maskUnits="userSpaceOnUse" x="298" y="5" width="189" height="125">
<path d="M298.792 5H486.483V129.089H298.792V5Z" fill="white"/>
</mask>
<g mask="url(#mask14_297_123)">
<path d="M385.926 60.2647C391.463 17.9993 445.181 5.24028 468.841 40.5667C486.245 66.6514 472.727 102.917 442.384 110.476C411.451 117.807 382.062 92.4668 385.926 60.2647ZM400.646 75.477C407.794 97.1185 433.376 104.092 450.498 89.2768C471.153 71.1728 460.455 36.9297 433.091 34.4329C410.997 32.4411 393.694 54.157 400.646 75.477Z" fill="black"/>
<path d="M301.875 94.4499C301.953 90.8109 304.941 87.9695 308.463 87.7136C316.77 85.801 325.039 83.7232 333.352 81.8299C346.626 78.6737 359.937 75.6643 373.097 72.0553C378.032 69.5624 383.611 68.2937 388.943 66.887C396.049 63.9316 403.058 70.7345 398.388 77.5393C396.039 80.5825 391.729 80.6211 388.336 81.7083C367.906 84.8944 348.073 90.836 328.114 96.3162C322.686 97.7905 317.252 99.2252 311.827 100.71C310.19 101.314 308.436 101.722 306.723 101.126C306.724 101.119 306.725 101.114 306.726 101.107C303.863 100.314 301.759 97.4564 301.875 94.4499Z" fill="black"/>
<path d="M299.585 94.2221C301.147 86.9211 311.541 88.3819 311.533 95.7264C313.433 100.727 314.947 105.938 316.193 111.169C316.987 115.172 318.871 119.281 318.07 123.401C316.934 127.939 310.348 128.848 308.175 124.66C307.335 122.796 306.727 120.443 306.164 118.747C304.406 113.339 302.848 107.91 301.581 102.368C300.754 99.7293 299.032 97.0684 299.585 94.2221Z" fill="black"/>
<path d="M319.897 95.8694C318.324 89.2384 326.873 85.5299 330.4 91.3914C332.358 95.991 332.76 101.146 333.709 106.027C334.123 108.423 335.468 110.851 334.997 113.303C334.387 116.795 330.056 118.69 327.092 116.778C324.294 115.12 324.371 111.458 323.297 108.699C322.668 106.319 321.836 104.004 321.195 101.627C320.502 99.8018 319.634 97.8747 319.897 95.8694Z" fill="black"/>
<path d="M301.551 92.0591C301.577 90.7421 302.92 89.8809 304.065 89.5893C304.658 87.9692 306.928 87.5328 308.097 88.7899C309.918 90.6417 307.888 93.767 305.487 92.8749C304.629 94.9063 301.489 94.3106 301.551 92.0591Z" fill="black"/>
<path d="M301.109 90.1157C301.908 89.1522 303.633 88.7582 304.817 88.6366C306.574 88.0148 308.955 88.6829 308.929 90.8794C308.917 92.375 307.438 93.439 306.029 93.1638C304.778 94.3504 302.675 95.1044 301.298 93.6456C300.417 92.6994 300.254 91.1507 301.109 90.1157Z" fill="black"/>
</g>
<mask id="mask15_297_123" style="mask-type:luminance" maskUnits="userSpaceOnUse" x="277" y="304" width="238" height="169">
<path d="M277.586 304.602H514.927V472.127H277.586V304.602Z" fill="white"/>
</mask>
<g mask="url(#mask15_297_123)">
<path d="M499.192 318.435C498.801 318.269 498.518 317.915 498.573 317.516C498.379 317.089 498.836 316.599 499.273 316.771C501.773 315.151 504.075 313.099 505.524 310.445C506.32 308.971 506.572 307.184 507.572 305.847C508.544 304.843 510.315 305.319 510.676 306.673C510.946 307.517 510.517 308.358 510.243 309.14C509.739 310.363 509.192 311.581 508.475 312.696C507.082 314.769 502.739 318.518 499.88 318.518C499.639 318.518 499.409 318.492 499.192 318.435Z" fill="#FAA500"/>
<path d="M503.188 321.734C504.447 321.568 505.555 320.928 506.706 320.44C508.875 319.495 509.72 317.157 511.221 315.504C511.707 315.002 512.523 314.958 513.07 315.384C514.69 316.885 512.188 318.455 511.418 319.714C509.549 322.222 506.268 322.747 503.37 323.051C503.32 323.059 503.271 323.063 503.225 323.063C502.395 323.063 502.259 321.792 503.188 321.734Z" fill="#FAA500"/>
<path d="M278.185 450.546C277.827 449.727 278.393 448.711 279.276 448.612C281.04 448.153 282.869 448.051 284.644 447.639C288.903 446.728 292.915 445.993 297.035 444.685C302.334 442.922 306.798 439.46 311.07 435.939C321.126 427.99 330.073 418.257 337.398 407.806C339.11 405.257 340.831 402.694 342.131 399.897C343.239 397.381 344.146 394.794 345.104 392.216C345.599 390.903 347.138 390.22 348.448 390.582C349.927 390.993 350.821 392.584 350.413 394.076C349.614 396.992 348.59 399.865 347.323 402.606C343.224 410.736 337.16 417.678 331.216 424.477C326.57 429.627 321.326 434.173 315.875 438.429C312.127 441.299 308.394 444.265 304.168 446.384C298.206 449.35 291.472 450.1 284.969 451.034C283.242 451.227 281.512 451.321 279.774 451.367C279.674 451.39 279.574 451.402 279.474 451.402C278.932 451.402 278.403 451.072 278.185 450.546Z" fill="#FAA500"/>
<path d="M291.068 471.19C290.087 468.837 293.278 469.073 294.716 468.396C301.12 465.328 308.279 464.461 314.728 461.512C330.005 455.029 341.845 442.762 353.02 430.772C354.68 428.921 356.338 427.068 357.998 425.217C359.74 423.431 361.696 419.945 364.508 422.008C365.737 422.929 366.029 424.914 365.031 426.114C355.661 437.057 345.695 447.555 334.341 456.427C325.636 463.054 315.375 467.57 304.627 469.444C301.776 469.929 298.913 470.299 296.133 471.137C295.173 471.276 293.758 471.886 292.6 471.886C291.979 471.886 291.43 471.709 291.068 471.19Z" fill="#FAA500"/>
</g>
</g>
</svg>
