<svg width="210" height="213" viewBox="0 0 210 213" fill="none" xmlns="http://www.w3.org/2000/svg">
<circle cx="116.5" cy="85.5" r="85.5" fill="#FAE4B0"/>
<mask id="mask0_509_477" style="mask-type:luminance" maskUnits="userSpaceOnUse" x="0" y="15" width="210" height="198">
<path d="M0 213H209.017V15H0V213Z" fill="white"/>
</mask>
<g mask="url(#mask0_509_477)">
<mask id="mask1_509_477" style="mask-type:luminance" maskUnits="userSpaceOnUse" x="74" y="57" width="136" height="95">
<path d="M74.6875 57.896H209.014V151.521H74.6875V57.896Z" fill="white"/>
</mask>
<g mask="url(#mask1_509_477)">
<path d="M206.641 101.536C206.689 105.758 206.674 109.985 206.825 114.21C206.75 116.156 206.722 118.107 206.518 120.045C206.164 121.229 205.876 122.279 205.357 123.482C203.639 126.919 190.385 126.207 186.451 126.609C182.106 126.788 177.706 127.009 173.395 126.381C171.128 126.132 169.704 125.476 168.62 123.312C167.462 120.835 167.378 117.92 167.336 115.22C167.333 115.248 167.333 115.279 167.33 115.307C167.33 114.922 167.417 114.483 167.386 114.084C167.383 114.053 167.38 114.022 167.375 113.992C167.372 113.967 167.367 113.939 167.364 113.914C167.358 113.889 167.356 113.863 167.347 113.841C167.341 113.807 167.333 113.771 167.319 113.738C167.285 113.635 167.241 113.54 167.177 113.447C170.083 112.621 172.99 111.8 175.913 111.032C178.315 110.423 180.794 109.966 183.268 109.471C183.307 109.896 183.338 110.323 183.36 110.75C183.369 110.892 183.377 111.035 183.382 111.177C183.424 112.034 183.449 112.894 183.488 113.752C183.5 114 183.514 114.249 183.53 114.497C183.541 114.67 183.553 114.843 183.567 115.017C183.581 115.19 183.594 115.363 183.611 115.536C183.636 115.796 183.664 116.055 183.698 116.312C183.706 116.477 183.715 116.639 183.72 116.804C183.726 116.926 183.729 117.046 183.731 117.169C183.742 117.543 183.745 117.915 183.74 118.283C183.784 118.571 183.983 118.733 184.211 118.775C184.332 118.925 184.552 119.029 184.742 119.048C185.898 119.185 187.06 119.054 188.143 118.641C188.35 118.613 188.612 118.468 188.718 118.266C188.855 118.035 188.757 117.795 188.724 117.552C188.735 117.488 188.727 117.421 188.701 117.351C188.495 114.349 188.609 111.311 188.509 108.29C188.9 108.19 189.285 108.081 189.67 107.969C189.787 107.916 189.885 107.843 189.958 107.757C190.285 107.707 190.617 107.55 190.874 107.38C193.046 106.556 193.839 100.651 193.49 98.579C192.7 95.7003 190.017 92.6737 187.185 91.688C183.151 90.8782 178.147 93.9971 178.784 98.4507C178.795 98.487 178.812 98.5233 178.828 98.5597C178.72 98.5875 178.611 98.6097 178.502 98.635C176.6 99.104 174.696 99.562 172.792 100.014C172.105 100.179 171.418 100.341 170.728 100.503C168.964 100.922 167.194 101.332 165.426 101.743C165.462 101.65 165.493 101.553 165.518 101.449C165.532 101.399 165.543 101.343 165.552 101.29C165.582 101.128 165.602 100.958 165.61 100.776C165.616 100.726 165.619 100.676 165.619 100.626C165.655 99.506 165.387 98.1714 165.398 97.4595C165.395 94.4662 164.474 91.3643 165.186 88.4212C168.911 83.9984 175.344 85.7828 180.412 85.0931C182.737 84.9507 185.027 84.5038 187.319 84.1215C187.344 84.113 187.372 84.1045 187.4 84.0989C187.428 84.0907 187.459 84.0852 187.489 84.0796C187.518 84.0711 187.548 84.0655 187.579 84.0626C187.61 84.057 187.643 84.0514 187.677 84.0488C187.696 84.0459 187.716 84.0433 187.738 84.0403C188.109 83.9958 188.548 83.9929 188.939 83.9343C188.964 83.9287 188.992 83.9257 189.017 83.9202C189.067 83.912 189.115 83.9009 189.159 83.8897C189.321 83.8534 189.466 83.7974 189.589 83.7221C190.569 83.6328 191.552 83.5601 192.538 83.5156C196.143 83.3788 199.789 82.7113 203.369 83.4092C208.043 84.9284 205.979 97.2418 206.641 101.536Z" fill="#A7A7A7"/>
<path d="M195.356 69.0911C196.718 72.4837 196.989 76.2612 196.824 79.8912C196.866 80.4077 196.66 81.1701 196.668 81.8064C195.267 81.8932 193.87 82.0104 192.471 82.1276C192.706 81.776 192.748 81.2817 192.577 80.8824C192.645 77.624 192.29 74.1784 190.777 71.2355C188.543 66.4164 181.077 66.7234 178.745 71.2886C177.533 73.1619 177.176 75.3876 176.981 77.5765C176.741 79.4473 176.45 81.4352 176.545 83.3561C176.545 83.3617 176.545 83.3702 176.548 83.3757C175.428 83.3787 174.295 83.3731 173.175 83.4176C173.194 83.3004 173.211 83.1888 173.225 83.0909C173.605 80.3213 173.725 77.5235 173.792 74.7312C173.879 72.6176 174.264 70.4872 175.087 68.4826C176.199 65.7155 178.86 63.8029 181.496 62.5714C187.465 60.0639 193.206 63.155 195.356 69.0911Z" fill="#A7A7A7"/>
<path d="M127.601 116.7C127.933 114.338 126.668 112.174 124.993 110.65C124.873 110.572 124.762 110.454 124.703 110.326C124.382 110.242 124.066 110.173 123.767 110.122C123.343 110.055 122.913 110.019 122.486 110.002C122.089 109.994 121.696 110.005 121.372 110.033C121.349 110.036 121.324 110.038 121.299 110.041C120.925 110.083 120.559 110.147 120.196 110.234C119.828 110.326 119.462 110.438 119.107 110.572C118.728 110.722 118.359 110.893 117.999 111.083C117.717 111.239 117.443 111.409 117.178 111.591C116.888 111.8 116.614 112.026 116.349 112.267C116.103 112.495 115.874 112.739 115.659 112.995C115.466 113.235 115.288 113.481 115.12 113.738C114.93 114.048 114.757 114.366 114.623 114.648C114.612 114.674 114.601 114.701 114.59 114.729L114.587 114.732C114.455 115.039 114.336 115.355 114.235 115.676C114.235 115.673 114.235 115.673 114.238 115.673C114.143 115.997 114.065 116.326 114.006 116.659C113.953 116.994 113.92 117.332 113.906 117.669C113.9 117.965 113.908 118.261 113.931 118.557C113.967 118.898 114.026 119.239 114.079 119.482C114.171 119.864 114.288 120.238 114.425 120.598C114.542 120.891 114.676 121.179 114.821 121.458C114.978 121.746 115.151 122.022 115.341 122.29C115.508 122.517 115.684 122.731 115.871 122.938C116.003 123.075 116.136 123.209 116.268 123.332C116.552 123.43 116.782 123.698 117.086 123.726C119.331 124.102 121.818 124.172 123.935 123.287C126.398 122.14 127.28 119.197 127.601 116.7ZM131.552 117.809C131.574 118.599 131.485 119.381 131.343 120.157C131.086 121.579 130.421 122.902 129.544 124.041C129.154 124.547 128.726 125.013 128.358 125.353C127.841 125.831 127.288 126.269 126.677 126.618C126.038 126.984 125.362 127.266 124.653 127.467C123.949 127.668 123.229 127.794 122.497 127.844C122.313 127.855 122.126 127.864 121.939 127.864C121.366 127.864 120.794 127.805 120.227 127.71C118.831 127.478 117.494 126.856 116.36 126.021C115.092 125.082 114.104 123.812 113.406 122.405C112.11 119.783 112.107 116.547 113.342 113.906C113.981 112.537 114.939 111.328 116.114 110.385C117.214 109.502 118.501 108.908 119.878 108.623C120.595 108.475 121.336 108.416 122.072 108.452C122.265 108.436 122.461 108.441 122.653 108.461C123.901 108.505 125.225 108.612 126.264 109.371C126.325 109.421 126.417 109.494 126.532 109.583C126.613 109.611 126.688 109.653 126.763 109.703C126.791 109.723 126.816 109.742 126.844 109.762C126.953 109.829 127.048 109.901 127.146 109.983C127.149 109.983 127.149 109.985 127.152 109.985C127.42 110.156 127.685 110.323 127.945 110.505C128.366 110.801 128.732 111.161 129.086 111.532C129.583 112.051 130.033 112.607 130.385 113.235C130.793 113.973 131.108 114.763 131.304 115.584C131.474 116.307 131.53 117.066 131.552 117.809Z" fill="black"/>
<path d="M188.925 106.372C189.805 103.582 189.137 100.26 187.361 97.9701C186.616 98.4532 185.114 98.5144 184.497 98.8411C175.713 100.871 166.876 103.177 158.141 105.336C153.738 106.425 149.357 107.614 144.949 108.686C142.907 109.038 140.839 109.761 138.761 110.077C138.758 110.08 138.756 110.08 138.753 110.077C137.829 110.264 136.893 110.409 135.958 110.504C135.947 110.512 135.933 110.518 135.922 110.524C135.372 110.8 134.718 110.563 134.434 110.032C133.409 107.508 131.625 105.509 129.779 103.565C124.552 98.5144 118.594 93.2429 111.03 92.9581C95.1925 91.7574 81.0643 106.698 78.2301 121.444C77.5126 127.623 81.7065 133.067 85.4003 137.574C91.1635 144.256 99.283 149.377 108.305 149.449C114.841 149.823 121.98 148.625 126.911 144.077C131.161 139.685 133.733 134.028 135.425 128.254C136.128 125.604 136.631 122.904 136.955 120.184C136.896 119.919 137.058 119.645 137.298 119.534C138.552 118.316 143.946 117.78 145.069 117.442C153.473 115.873 161.503 113.441 169.709 111.185C174.263 109.828 178.859 108.776 183.455 107.659C185.292 107.243 187.099 106.768 188.925 106.372ZM189.514 82.362C189.969 82.3256 190.422 82.2893 190.877 82.2559C190.553 81.9011 190.452 81.3233 190.692 80.8654C190.748 79.2597 190.673 77.8191 190.475 76.2528C190.053 73.8095 189.277 70.8277 186.77 69.7916C183.43 68.6132 180.133 71.5675 179.365 74.7031C178.859 76.6826 178.753 78.7294 178.72 80.7649C178.661 81.2562 178.7 82.3479 178.569 83.2946C179.708 83.1744 180.856 83.0906 181.992 82.9957C182.74 82.9342 183.489 82.873 184.234 82.8088C185.041 82.7054 185.834 82.6019 186.582 82.5155C187.334 82.5489 188.763 82.0045 189.514 82.362ZM196.824 79.8908C196.989 76.2609 196.718 72.4834 195.356 69.0908C193.206 63.1547 187.465 60.0636 181.495 62.5711C178.859 63.8025 176.198 65.7152 175.087 68.4823C174.263 70.4869 173.878 72.6173 173.792 74.7309C173.725 77.5232 173.604 80.321 173.225 83.0906C173.211 83.1885 173.194 83.3001 173.175 83.4173C174.294 83.3728 175.428 83.3784 176.547 83.3754C176.545 83.3699 176.545 83.3614 176.545 83.3558C176.45 81.4349 176.74 79.447 176.98 77.5762C177.176 75.3873 177.533 73.1616 178.745 71.2882C181.076 66.7231 188.543 66.4161 190.776 71.2352C192.29 74.178 192.644 77.6237 192.577 80.8821C192.703 81.1754 192.714 81.5187 192.616 81.8202C192.605 81.8536 192.594 81.8873 192.58 81.9207C192.552 81.9934 192.513 82.0631 192.471 82.1273C193.87 82.0101 195.266 81.8929 196.668 81.8061C196.659 81.1698 196.866 80.4074 196.824 79.8908ZM206.826 114.209C206.675 109.985 206.689 105.757 206.641 101.535C205.979 97.2414 208.043 84.928 203.369 83.4088C199.789 82.7109 196.143 83.3784 192.538 83.5152C191.552 83.5597 190.57 83.6324 189.59 83.7218C189.467 83.797 189.322 83.853 189.16 83.8894C189.112 83.9005 189.065 83.9116 189.017 83.9198C188.992 83.9254 188.964 83.9283 188.939 83.9339C188.548 83.9925 188.11 83.9954 187.739 84.0399C187.716 84.0429 187.697 84.0455 187.677 84.0485C187.643 84.0511 187.61 84.0566 187.579 84.0622C187.549 84.0651 187.518 84.0707 187.49 84.0792C187.459 84.0848 187.429 84.0903 187.4 84.0985C187.373 84.1041 187.345 84.1126 187.32 84.1211C185.027 84.5035 182.738 84.9503 180.412 85.0927C175.344 85.7824 168.911 83.998 165.186 88.4208C164.474 91.3639 165.396 94.4658 165.398 97.4591C165.387 98.1711 165.655 99.5056 165.619 100.625C165.616 100.676 165.613 100.729 165.611 100.776C165.602 100.958 165.583 101.128 165.552 101.29C165.544 101.343 165.532 101.399 165.518 101.449C165.493 101.553 165.462 101.65 165.426 101.742C167.194 101.332 168.964 100.921 170.729 100.502C171.418 100.343 172.105 100.179 172.792 100.014C174.696 99.5616 176.601 99.1037 178.502 98.6346C178.611 98.6094 178.72 98.5871 178.829 98.5593C178.812 98.5229 178.795 98.4866 178.784 98.4503C178.147 93.9968 183.151 90.8778 187.186 91.6877C190.017 92.6733 192.7 95.6999 193.49 98.5786C193.839 100.65 193.046 106.556 190.874 107.38C190.617 107.55 190.285 107.706 189.958 107.757C189.886 107.843 189.788 107.916 189.671 107.969C189.285 108.08 188.9 108.189 188.509 108.29C188.61 111.311 188.495 114.349 188.702 117.35C188.727 117.42 188.735 117.487 188.724 117.551C188.758 117.794 188.855 118.035 188.718 118.266C188.612 118.467 188.35 118.612 188.143 118.64C187.06 119.054 185.898 119.185 184.742 119.048C184.553 119.028 184.332 118.925 184.212 118.774C183.983 118.733 183.785 118.57 183.74 118.283C183.746 117.914 183.743 117.543 183.732 117.169C183.729 117.046 183.726 116.926 183.72 116.803C183.715 116.639 183.707 116.476 183.698 116.312C183.665 116.055 183.637 115.795 183.612 115.535C183.595 115.365 183.581 115.192 183.567 115.016C183.553 114.843 183.542 114.67 183.531 114.497C183.514 114.248 183.5 114 183.489 113.751C183.45 112.894 183.424 112.034 183.383 111.177C183.377 111.034 183.371 110.892 183.36 110.75C183.338 110.322 183.307 109.895 183.268 109.471C180.794 109.965 178.315 110.423 175.914 111.032C172.99 111.8 170.084 112.62 167.177 113.447C167.241 113.539 167.286 113.634 167.319 113.737C167.333 113.771 167.342 113.807 167.347 113.841C167.356 113.863 167.358 113.888 167.364 113.913C167.367 113.938 167.372 113.963 167.375 113.991C167.381 114.022 167.384 114.053 167.386 114.084C167.417 114.483 167.331 114.921 167.331 115.307C167.333 115.279 167.333 115.248 167.336 115.22C167.378 117.92 167.462 120.835 168.621 123.312C169.704 125.475 171.128 126.132 173.395 126.38C177.706 127.008 182.107 126.788 186.451 126.609C190.385 126.207 203.64 126.919 205.357 123.482C205.876 122.279 206.164 121.229 206.518 120.045C206.722 118.107 206.75 116.155 206.826 114.209ZM208.308 98.4058C208.367 104.211 208.85 110.015 208.8 115.818C208.434 127.092 205.173 127.452 194.9 127.986C187.978 128.407 181.054 128.845 174.115 128.645C165.471 128.628 164.7 120.924 165.035 114.058C162.952 114.65 160.867 115.239 158.775 115.806C153.068 117.426 147.3 118.827 141.495 120.059C140.802 120.1 139.342 120.617 138.27 120.67C138.426 122.064 138.007 124.255 137.926 124.889C136.388 131.923 133.657 139.191 128.642 144.476C123.804 149.309 116.58 151.44 109.846 151.099C98.1772 151.311 87.623 145.004 81.1255 135.496C77.8701 130.792 74.7708 125.104 76.3008 119.224C78.3948 109.845 84.4539 101.351 92.3361 95.915C99.8748 90.9561 109.946 88.6666 118.518 92.1931C121.64 93.7231 124.387 95.9206 127.023 98.1655C129.874 100.676 132.741 103.292 134.903 106.433C136.544 105.732 141.553 104.937 141.897 104.766C149.081 103.303 156.036 100.745 163.215 99.2794C163.259 97.6964 163.254 96.1468 163.151 94.5637C163.164 92.1568 162.453 89.4706 163.584 87.2342C165.611 84.6933 168.414 83.8304 171.43 83.5319C171.089 81.4601 171.812 77.4701 171.745 76.1185C171.832 73.159 172.088 70.1406 173.381 67.4351C176.631 60.9599 185.907 57.9781 192.08 62.0742C197.181 65.8435 198.773 72.8464 198.625 78.8967C198.505 79.5252 198.692 80.773 198.566 81.7168C199.077 81.6975 199.591 81.6863 200.102 81.6834C201.911 81.6693 203.938 81.6808 205.407 82.9008C208.934 86.0505 207.764 93.9352 208.308 98.4058Z" fill="black"/>
<path d="M162.301 101.129C162.134 101.152 161.955 101.058 161.906 100.872C161.839 100.219 163.02 100.224 163.467 100.037C166.433 99.2898 169.35 98.3617 172.326 97.6609C174.181 97.2282 176.049 96.8808 177.886 96.3708C178.673 96.2854 180.44 95.2458 180.82 96.2733C181.192 97.4102 177.564 97.6003 176.76 97.9483C171.967 99.1195 167.228 100.631 162.301 101.129Z" fill="black"/>
<path d="M161.574 100.761C161.448 100.469 161.71 100.139 162.02 100.184C163.501 99.6382 165.018 99.1799 166.547 98.7979C166.81 98.7367 167.081 98.8847 167.15 99.1469C167.217 99.4068 167.058 99.6775 166.798 99.7472C165.877 99.9986 164.945 100.211 164.018 100.448C163.351 100.641 162.652 100.755 162.018 101.018C161.832 101.044 161.643 100.935 161.574 100.761Z" fill="black"/>
<path d="M162.159 100.55C161.919 100.517 161.787 100.221 161.947 100.028C162.27 99.765 162.723 99.6891 163.105 99.5283C168.838 97.7162 174.676 96.3118 180.604 95.3148C181.277 95.3062 182.489 94.6205 182.84 95.4405C182.913 95.7171 182.743 96.0241 182.458 96.0938C181.348 96.3446 180.217 96.5056 179.099 96.7223C173.327 97.5387 167.886 99.6894 162.159 100.55Z" fill="black"/>
<path d="M163.658 102.209C165.496 100.867 167.859 100.325 169.957 99.52C173.434 98.4057 176.977 97.4266 180.578 96.8089C180.927 96.7614 181.262 96.9932 181.352 97.331C181.459 97.7016 181.214 98.0911 180.849 98.1939C179.498 98.6407 178.094 98.9216 176.719 99.28C172.47 100.32 168.271 101.559 164.035 102.639C163.77 102.771 163.469 102.468 163.658 102.209Z" fill="black"/>
<path d="M164.402 101.408C162.842 100.134 169.497 99.0461 170.274 98.7447C172.659 98.1597 175.05 97.5862 177.455 97.0945C177.852 97.0219 178.251 97.3181 178.349 97.6949C178.466 98.1332 178.195 98.5689 177.768 98.6946C176.329 99.0936 174.869 99.4062 173.424 99.7696C170.448 100.35 167.437 101.433 164.402 101.408Z" fill="black"/>
<path d="M131.343 120.157C131.485 119.381 131.574 118.599 131.552 117.809C131.53 117.066 131.474 116.307 131.304 115.583C131.108 114.763 130.793 113.972 130.385 113.235C130.033 112.607 129.583 112.051 129.086 111.532C128.732 111.16 128.366 110.8 127.945 110.504C127.685 110.323 127.42 110.156 127.152 109.985C127.149 109.985 127.149 109.982 127.146 109.982C127.048 109.901 126.953 109.829 126.844 109.762C126.816 109.742 126.791 109.723 126.763 109.703C126.688 109.653 126.613 109.611 126.532 109.583C126.417 109.494 126.325 109.421 126.264 109.371C125.225 108.611 123.901 108.505 122.654 108.461C122.461 108.441 122.265 108.435 122.072 108.452C121.336 108.416 120.595 108.475 119.878 108.623C118.501 108.907 117.214 109.502 116.114 110.384C114.939 111.328 113.981 112.537 113.342 113.905C112.107 116.547 112.11 119.783 113.406 122.405C114.104 123.812 115.092 125.082 116.36 126.02C117.494 126.855 118.831 127.478 120.227 127.71C120.794 127.805 121.366 127.863 121.939 127.863C122.126 127.863 122.313 127.855 122.497 127.844C123.229 127.793 123.949 127.668 124.653 127.467C125.362 127.266 126.038 126.984 126.677 126.618C127.288 126.269 127.841 125.83 128.358 125.353C128.726 125.012 129.154 124.546 129.544 124.041C130.421 122.902 131.086 121.578 131.343 120.157ZM187.362 97.9704C189.137 100.26 189.805 103.583 188.925 106.372C187.099 106.768 185.292 107.243 183.455 107.659C178.859 108.776 174.264 109.829 169.71 111.186C161.503 113.442 153.473 115.874 145.069 117.443C143.946 117.781 138.552 118.317 137.298 119.534C137.058 119.646 136.896 119.92 136.955 120.185C136.631 122.904 136.128 125.605 135.425 128.254C133.733 134.028 131.161 139.685 126.912 144.077C121.98 148.626 114.841 149.823 108.304 149.449C99.2831 149.377 91.1637 144.256 85.4004 137.574C81.7064 133.068 77.5128 127.623 78.2303 121.444C81.0644 106.699 95.1926 91.7578 111.03 92.9585C118.593 93.2433 124.552 98.5148 129.779 103.566C131.625 105.509 133.409 107.508 134.434 110.032C134.718 110.563 135.372 110.8 135.922 110.524C135.933 110.518 135.947 110.513 135.958 110.504C136.893 110.41 137.829 110.264 138.753 110.077C138.756 110.08 138.758 110.08 138.761 110.077C140.839 109.762 142.908 109.039 144.949 108.687C149.358 107.615 153.738 106.425 158.142 105.336C166.875 103.178 175.713 100.871 184.497 98.8415C185.114 98.5148 186.616 98.4536 187.362 97.9704Z" fill="#01489E"/>
</g>
<mask id="mask2_509_477" style="mask-type:luminance" maskUnits="userSpaceOnUse" x="92" y="135" width="29" height="19">
<path d="M92.5742 135.143H120.335V153.072H92.5742V135.143Z" fill="white"/>
</mask>
<g mask="url(#mask2_509_477)">
<path d="M92.7131 145.65C92.7187 142.677 93.3553 139.778 94.7708 137.173C95.103 136.604 95.4048 135.847 96.1279 135.721C96.1335 135.42 96.4658 135.224 96.7113 135.322C98.3699 135.646 99.9978 136.185 101.651 136.537C105.847 137.754 110.368 137.389 114.503 138.748C120.252 141.155 118.275 147.968 113.682 150.442C109.243 152.776 104.004 152.927 99.096 152.955C98.7431 152.978 98.4089 152.99 98.093 152.99C93.3534 152.99 92.6555 150.341 92.7131 145.65ZM96.2284 137.927C94.9273 140.342 94.2991 143.098 94.2768 145.826C94.2153 149.886 94.5279 151.874 99.1601 151.466C104.164 151.24 109.572 151.385 113.844 148.423C116.748 146.463 117.82 142.04 114.224 140.197C112.356 139.362 110.251 139.32 108.254 138.997C104.415 138.466 100.537 137.821 96.9096 136.417C96.9182 137.003 96.4573 137.455 96.2284 137.927Z" fill="black"/>
<path d="M94.2767 145.826C94.299 143.098 94.9272 140.342 96.2284 137.927C96.4546 137.453 96.9181 137.003 96.9096 136.417C100.534 137.821 104.415 138.466 108.254 138.997C110.248 139.318 112.353 139.362 114.224 140.197C117.82 142.037 116.748 146.46 113.844 148.423C109.572 151.385 104.161 151.24 99.1601 151.466C98.7633 151.501 98.3983 151.519 98.0628 151.519C94.4748 151.519 94.2204 149.538 94.2767 145.826Z" fill="#FFDBB0"/>
</g>
<mask id="mask3_509_477" style="mask-type:luminance" maskUnits="userSpaceOnUse" x="18" y="166" width="80" height="43">
<path d="M18.292 166.016H97.2405V209H18.292V166.016Z" fill="white"/>
</mask>
<g mask="url(#mask3_509_477)">
<path d="M25.8925 207.605C22.3896 206.743 20.3388 203.439 19.8334 200.041C18.3737 191.96 22.3601 184.127 26.046 177.195C26.7426 175.976 27.5201 174.799 28.3689 173.68C28.5253 173.471 28.8046 173.398 29.0278 173.549C29.2347 173.688 29.3126 174.001 29.1561 174.208C25.0584 181.317 18.7053 194.73 22.9608 202.56C23.8587 204.357 25.8562 205.365 27.8022 205.525C30.2992 205.552 32.516 204.174 34.6067 202.981C39.6115 200.042 43.2961 195.563 46.9145 191.142C47.6298 190.274 49.0622 191.347 48.3971 192.281C45.7027 195.821 42.6912 199.142 39.3283 202.065C35.6477 205.059 30.9097 208.918 25.8925 207.605Z" fill="black"/>
<path d="M56.8818 192.997C53.3111 192.838 49.6085 192.436 46.4392 190.683C45.9678 190.376 44.3062 189.537 45.1966 188.96C45.3642 188.898 45.5373 188.949 45.7049 188.996C46.9397 189.459 48.1273 190.039 49.4121 190.367C52.0986 191.116 55.0188 191.305 57.7325 191.286C63.5943 191.245 69.4354 190.427 75.0978 188.914C75.9155 188.789 77.0651 187.955 77.5355 189.002C77.675 189.401 77.4629 189.898 77.0439 190.024C75.4887 190.487 73.9168 190.889 72.3448 191.289C67.3047 192.675 62.0878 193.14 56.8818 192.997Z" fill="black"/>
<path d="M81.0241 206.364C76.6193 206.317 74.3947 201.855 73.7839 198.046C73.249 195.468 73.0739 192.831 73.1528 190.209C73.0948 189.52 74.1201 189.308 74.3394 189.966C75.0235 195.306 75.6147 207.502 83.8635 203.943C91.2739 200.729 93.8252 192.227 94.8963 184.881C95.4518 180.793 95.8112 176.5 95.384 172.442C95.1631 170.841 94.8619 169.251 94.51 167.673C94.4177 167.229 94.7139 166.78 95.1604 166.688C95.6158 166.596 96.04 166.894 96.1461 167.338C97.1585 172.097 97.1117 177.012 96.6737 181.838C96.2894 186.703 95.3241 191.545 93.4628 196.07C91.213 201.027 86.7578 205.984 81.0241 206.364Z" fill="black"/>
<path d="M43.3689 175.897C38.3989 175.673 33.0186 175.713 28.4892 173.448C27.4292 173.005 28.6741 171.673 29.1871 172.702C38.1822 175.351 47.8882 174.653 57.0729 173.552C69.2841 172.104 81.1199 168.699 93.1364 166.256C93.6284 166.2 93.8981 166.097 94.3564 166.105C95.2536 166.174 95.2854 167.528 94.3538 167.602C86.5964 168.335 79.0884 170.902 71.4524 172.418C62.1853 174.347 52.766 175.904 43.2769 175.897L43.3689 175.897Z" fill="black"/>
<path d="M95.3858 172.443C95.8133 176.5 95.4529 180.794 94.8974 184.882C93.825 192.229 91.273 200.728 83.8656 203.944C75.9972 207.337 75.0954 196.4 74.4364 190.749C75.3075 190.52 76.1789 190.28 77.0444 190.023C77.463 189.897 77.6752 189.4 77.5357 189.001C77.0666 187.954 75.9163 188.789 75.0983 188.914C69.4356 190.428 63.5944 191.246 57.7337 191.285C55.0197 191.304 52.0991 191.114 49.4132 190.366C48.1287 190.039 46.9421 189.459 45.7051 188.995C45.5375 188.948 45.3647 188.898 45.1971 188.959C44.3064 189.537 45.9676 190.375 46.4397 190.682C46.6433 190.793 46.8498 190.902 47.0567 191.003C47.0063 191.042 46.9588 191.087 46.9143 191.142C43.2955 195.562 39.6126 200.041 34.6065 202.981C32.5151 204.173 30.298 205.553 27.802 205.525C25.8556 205.366 23.8595 204.358 22.9602 202.56C18.7051 194.73 25.0572 181.317 29.1562 174.208C29.2482 174.085 29.2593 173.926 29.2092 173.786C33.5816 175.71 38.6551 175.685 43.3652 175.897H43.3708C52.8281 175.892 62.215 174.342 71.4543 172.418C79.088 170.902 86.5963 168.336 94.3556 167.602C94.406 167.599 94.4561 167.59 94.501 167.577C94.501 167.607 94.5065 167.641 94.5121 167.674C94.8637 169.252 95.1625 170.841 95.3858 172.443Z" fill="#714A00"/>
</g>
<mask id="mask4_509_477" style="mask-type:luminance" maskUnits="userSpaceOnUse" x="17" y="116" width="86" height="73">
<path d="M17.3252 116.459H102.282V188.361H17.3252V116.459Z" fill="white"/>
</mask>
<g mask="url(#mask4_509_477)">
<path d="M54.0205 187.481C44.7547 187.081 24.1346 183.18 19.1914 174.855C17.408 171.8 18.8689 168.284 19.6716 165.155C20.4631 162.143 21.469 158.994 22.2376 156.019C24.6086 146.22 26.463 136.303 28.7822 126.491C28.8945 125.987 28.9593 125.443 29.2457 125.006C29.8994 124.429 30.3401 125.208 30.2985 125.847C30.2108 130.387 28.721 134.757 27.8414 139.182C26.0188 147.531 24.3706 155.935 21.796 164.094C21.0353 166.826 19.74 169.701 20.1996 172.561C21.6713 177.022 27.2856 179.189 31.2144 180.902C50.4927 188.279 68.0308 186.914 86.8537 179.054C91.5246 176.9 97.1637 174.561 98.8548 169.275C99.8473 164.185 98.6155 158.896 97.042 154.056C96.7336 153.278 97.623 152.479 98.3599 152.864C98.6335 152.998 98.7956 153.235 98.8794 153.523C99.2457 154.91 99.6326 156.295 99.9403 157.697C102.028 166.816 102.201 173.36 92.7367 177.817C80.8224 183.929 67.4713 187.697 54.0205 187.481Z" fill="black"/>
<path d="M90.4616 155.476C89.0124 155.359 78.2039 154.464 78.9273 152.684C79.1623 151.633 80.3345 152.155 80.9683 152.329C82.7251 152.779 84.5173 153.06 86.3017 153.284C89.8449 153.753 93.5808 154.01 96.941 152.711C98.3964 152.173 97.9407 150.237 98.0419 149.07C97.9571 145.583 97.7008 141.943 97.2242 138.514C96.9509 136.951 96.8085 135.165 95.7403 133.945C94.9629 133.56 93.9491 133.725 93.1756 133.228C92.9049 133.075 92.5808 132.765 92.7877 132.43C93.552 131.771 94.8595 132.538 95.7587 132.6C99.5578 133.372 99.2658 144.134 99.5559 147.41C99.4629 149.378 100.166 151.6 99.003 153.324C98.2691 154.32 96.979 154.629 95.8421 154.929C94.0768 155.312 92.2702 155.537 90.4616 155.476Z" fill="black"/>
<path d="M93.7224 132.774C92.8359 131.151 92.5639 129.236 91.8935 127.509C91.6025 126.527 91.01 125.461 91.3158 124.426C92.851 122.753 93.8438 126.904 94.1918 127.902C94.3502 129.036 96.1807 132.638 94.7473 133.099C94.3777 133.234 93.9548 133.098 93.7224 132.774Z" fill="black"/>
<path d="M93.7674 133.295C93.081 133.055 87.287 130.59 88.8936 129.775C90.5588 130.537 92.0377 131.772 93.7563 132.455C93.9854 132.542 94.2365 132.606 94.4322 132.759C94.8634 133.252 94.2067 133.555 93.7674 133.295Z" fill="black"/>
<path d="M94.6803 133.7C93.1503 133.344 91.6157 132.768 90.3561 131.828C89.9174 131.517 89.3855 131.229 89.138 130.738C89.0077 130.412 89.3298 130.066 89.6631 130.162C90.3174 130.436 90.8857 130.9 91.5577 131.12C92.1532 131.301 92.6141 131.498 93.147 131.79C93.9886 132.248 95.1258 132.448 95.8093 133.102C96.28 133.856 95.0557 133.863 94.6079 133.683L94.6803 133.7Z" fill="black"/>
<path d="M29.9829 126.29C29.9007 122.093 40.5728 120.204 43.8908 119.288C48.9037 118.246 54.0214 117.874 59.1024 117.306C64.0349 116.796 68.7683 116.541 73.683 116.887C79.8397 117.134 86.7768 117.534 91.4693 122.027C91.9085 122.501 92.4218 123.104 92.2454 123.794C92.0015 124.77 90.6352 124.943 90.1317 124.088C89.8803 123.641 89.6823 123.162 89.2551 122.848C86.146 120.442 82.1517 120.057 78.4324 119.483C67.2985 118.044 56.069 119.772 45.0607 121.457C40.3735 122.597 35.2715 123.308 31.2144 126.062C30.8706 126.356 30.3079 126.896 29.9829 126.29Z" fill="black"/>
<path d="M97.1964 154.534C98.6931 159.242 99.8129 164.352 98.8551 169.274C97.1631 174.56 91.5229 176.9 86.8543 179.055C68.0298 186.915 50.4923 188.278 31.2153 180.901C27.2866 179.189 21.6716 177.022 20.2002 172.56C19.7393 169.701 21.0349 166.825 21.7944 164.095C24.3689 155.933 26.0191 147.532 27.8424 139.183C28.6771 134.987 30.0565 130.843 30.2742 126.554C30.5842 126.632 30.961 126.281 31.2153 126.063C35.2721 123.307 40.3734 122.598 45.0613 121.456C56.0683 119.772 67.2981 118.044 78.4334 119.482C82.1524 120.057 86.1479 120.442 89.2557 122.849C89.6829 123.162 89.881 123.642 90.1324 124.089C90.3808 124.51 90.8388 124.681 91.2689 124.63C91.0846 125.602 91.6205 126.591 91.8941 127.509C92.4444 128.925 92.7236 130.463 93.2958 131.868C93.2457 131.843 93.1953 131.818 93.1452 131.789C92.6146 131.496 92.154 131.301 91.5563 131.119C90.8862 130.899 90.3167 130.435 89.6633 130.162C89.6607 130.162 89.6551 130.159 89.6521 130.159C89.4037 130.022 89.1497 129.894 88.8927 129.777C88.3454 130.053 88.658 130.522 89.334 131.03C89.6103 131.354 90.0122 131.583 90.3559 131.829C91.2548 132.499 92.2935 132.985 93.3714 133.336C93.6507 133.476 93.9577 133.546 94.2677 133.599C94.2733 133.599 94.2814 133.599 94.29 133.602C94.396 133.632 94.5021 133.658 94.6081 133.683C94.7702 133.747 95.0327 133.789 95.2782 133.778H95.2812C95.4403 133.819 95.5967 133.873 95.7417 133.945C96.8085 135.165 96.9509 136.952 97.2246 138.513C97.7019 141.942 97.9559 145.583 98.0426 149.07C97.9421 150.237 98.3971 152.172 96.9424 152.711C93.5806 154.01 89.845 153.753 86.3015 153.283C84.5174 153.06 82.7249 152.778 80.9687 152.329C80.3346 152.155 79.1621 151.633 78.9274 152.683C78.2043 154.465 89.0128 155.358 90.462 155.475C92.2712 155.537 94.0778 155.311 95.8422 154.928C96.2835 154.811 96.7499 154.694 97.1964 154.534Z" fill="#FAA500"/>
</g>
<mask id="mask5_509_477" style="mask-type:luminance" maskUnits="userSpaceOnUse" x="0" y="14" width="118" height="123">
<path d="M0 14H117.763V136.764H0V14Z" fill="white"/>
</mask>
<g mask="url(#mask5_509_477)">
<path d="M115.422 74.9682C115.821 65.0199 113.716 55.814 109.265 47.2811C99.7662 52.6339 83.6526 59.0001 76.3931 59.7873C76.4491 60.6361 76.1169 61.4541 75.963 62.2807C75.561 64.7296 75.656 67.2174 75.9686 69.6744C76.0776 71.2352 76.5048 72.7429 76.8092 74.2533C76.8148 74.4517 76.7224 74.6137 76.583 74.7198C77.2197 74.9263 77.8449 75.2141 78.4482 75.5882C79.2577 76.1215 80.3245 76.895 80.2015 77.9867C80.3691 78.7179 79.2466 78.936 79.1435 78.1876C76.5634 75.7696 71.3255 75.4373 69.3791 78.7962C66.71 84.4782 72.1881 87.9658 77.1107 88.8509C77.1136 88.8509 77.1162 88.8535 77.1162 88.8535C77.1247 88.8565 77.1329 88.8565 77.1385 88.8565C77.1414 88.8565 77.1414 88.8565 77.1441 88.8591C78.5513 89.1664 80.0005 89.2669 81.4329 89.0908C81.9076 89.0378 82.3544 89.3589 82.4215 89.8421C82.4634 91.3469 80.2519 90.8389 79.2692 90.9253C79.2076 90.9197 79.1461 90.9171 79.0849 90.9115C79.1153 90.9868 79.149 91.0565 79.188 91.1236C81.7122 97.3556 84.2389 103.602 88.0168 109.2C89.5331 111.37 91.1302 113.517 93.0707 115.326C93.3862 115.591 93.71 115.851 94.0285 116.11C108.698 108.982 115.735 91.7548 115.422 74.9682ZM114.082 53.7897C116.913 60.6528 117.683 68.1248 117.326 75.4933C117.083 84.6655 115.243 94.0275 110.564 102.013C107.129 108.315 101.793 113.835 95.4776 117.403C95.603 117.529 95.7287 117.66 95.8488 117.794C96.7507 118.64 96.2259 119.71 95.5781 120.589C91.9957 127.525 80.9583 131.822 73.8493 133.701C71.4483 134.226 69.0469 134.891 66.6177 135.329C62.6781 136.228 58.6436 136.683 54.5557 136.524C53.1344 136.496 51.6993 136.423 50.2586 136.298C49.8845 136.306 49.5129 136.309 49.1417 136.312C40.8184 136.356 32.4056 134.768 25.0315 130.797C14.2734 125.473 4.13497 117.898 1.54666 105.487C0.0835601 96.9677 -0.894578 91.0205 0.00172269 82.4795C1.66362 65.3404 5.08466 51.3916 15.0528 40.2036C26.3998 26.3488 44.2666 17.5838 62.1029 15.1464C66.5034 14.5042 71.0322 14.0826 75.4772 14.4819C87.0508 14.7081 98.4594 18.1927 106.473 26.9013C108.799 29.1014 110.974 31.4999 112.666 34.228C113.562 35.9144 114.288 37.6343 115.126 39.29C115.648 40.4351 116.036 41.8757 115.433 43.0289C115.374 43.1183 115.307 43.1962 115.229 43.2551C115.198 43.2996 115.16 43.3471 115.115 43.389C114.068 44.3105 112.543 45.3547 110.683 46.4631C112.013 48.803 113.099 51.2908 114.082 53.7897Z" fill="black"/>
<path d="M109.265 47.2808C113.716 55.8136 115.821 65.0195 115.422 74.9679C115.734 91.7544 108.698 108.982 94.0283 116.11C93.7098 115.851 93.386 115.591 93.0705 115.326C91.13 113.516 89.5329 111.369 88.0166 109.2C84.2387 103.601 81.712 97.3552 79.1878 91.1233C79.1488 91.0562 79.1151 90.9864 79.0844 90.9112C79.1459 90.9167 79.2074 90.9193 79.2687 90.9252C80.2517 90.8385 82.4629 91.3465 82.421 89.8417C82.3542 89.3586 81.9074 89.0374 81.4327 89.0905C80.0003 89.2666 78.5511 89.1661 77.1439 88.859C77.1413 88.8561 77.1413 88.8561 77.1383 88.8561C77.1327 88.8561 77.1245 88.8561 77.116 88.8531C77.116 88.8531 77.1131 88.8505 77.1105 88.8505C72.1879 87.9654 66.7098 84.4779 69.3789 78.7958C71.325 75.4369 76.5632 75.7692 79.1433 78.1873C79.2464 78.9356 80.3689 78.7179 80.2013 77.9863C80.3243 76.8946 79.2575 76.1211 78.448 75.5878C77.8447 75.2137 77.2195 74.926 76.5828 74.7194C76.7222 74.6133 76.8146 74.4513 76.809 74.2533C76.5046 72.7426 76.0774 71.2348 75.9684 69.674C75.6558 67.217 75.5608 64.7292 75.9628 62.2803C76.1163 61.4538 76.4486 60.6357 76.3929 59.7869C83.6525 58.9997 99.766 52.6335 109.265 47.2808Z" fill="#FFDBB0"/>
<path d="M71.5396 87.3153C71.2761 86.9205 71.0561 86.4956 70.8594 86.0596C71.5907 86.6999 72.4604 87.2413 73.3979 87.6812C73.3681 87.7002 73.338 87.7179 73.3069 87.7339C73.1079 87.84 72.8856 87.8917 72.664 87.8917C72.2267 87.8917 71.7917 87.6914 71.5396 87.3153Z" fill="#FAA500"/>
<path d="M67.8092 76.7446C67.5414 75.7674 67.2871 74.7874 67.1057 73.7877C66.9185 72.7798 66.7649 71.7663 66.6618 70.7444C66.4523 68.6863 66.3603 66.6146 66.2959 64.5484C66.2373 62.6973 66.2206 60.8376 66.2765 58.9865C66.3378 56.9648 66.4216 54.9405 66.6088 52.9247C66.6032 52.9807 66.5977 53.0393 66.5921 53.0949C66.9659 48.9933 67.5915 44.914 68.2979 40.8598C68.6639 38.7769 69.038 36.694 69.4708 34.6222C69.895 32.5868 70.3726 30.5681 70.8973 28.5575C71.4194 26.5611 72.0061 24.5787 72.6928 22.6356C73.3629 20.7311 74.0889 18.8269 74.9963 17.0232C75.2952 16.4258 75.6189 15.8448 75.9875 15.2893C76.1522 15.0379 76.3394 14.7783 76.5545 14.5688C76.5728 14.5511 76.5918 14.5331 76.6111 14.5151C76.9696 14.5289 77.329 14.5459 77.6868 14.5659C77.6917 14.5806 77.6956 14.5953 77.6992 14.6107C77.7382 14.7924 77.6825 14.9597 77.6292 15.1328C77.5594 15.3646 77.4589 15.5908 77.3725 15.817C77.3837 15.7862 77.3948 15.7554 77.4059 15.725C77.057 16.6602 76.7748 17.6207 76.4566 18.5673C76.1384 19.5026 75.8311 20.4381 75.5351 21.3789C74.9237 23.3249 74.3485 25.2769 73.8208 27.2452C73.338 29.0459 72.8817 30.8519 72.4653 32.6683C72.4676 32.6569 72.4699 32.6457 72.4722 32.6343C72.4614 32.6821 72.4509 32.7302 72.4401 32.7783C72.4388 32.7842 72.4372 32.7901 72.4359 32.796C72.4362 32.7947 72.4365 32.7934 72.4368 32.7921C71.552 36.7497 70.7612 40.7374 70.1798 44.7522C69.8253 47.17 69.5182 49.5992 69.292 52.034C69.2976 51.978 69.3032 51.9224 69.3087 51.8664C69.0128 55.1137 68.9542 58.3891 69.077 61.6445C69.074 61.5833 69.0714 61.5247 69.0685 61.4632C69.2357 65.4705 69.3807 69.4834 70.0364 73.4495C70.2721 74.7108 70.5811 75.9534 70.9347 77.1855C70.3124 77.5773 69.7765 78.1099 69.3785 78.7967C69.1369 79.3113 68.9621 79.8075 68.8475 80.2858C68.4819 79.1119 68.1332 77.9335 67.8092 76.7446Z" fill="#FAA500"/>
<path d="M72.4408 32.778C72.449 32.7413 72.4575 32.7046 72.466 32.668C72.4572 32.7102 72.4483 32.7508 72.4375 32.7918C72.4388 32.7872 72.4398 32.7826 72.4408 32.778Z" fill="#FAA500"/>
<path d="M68.1043 77.9851C68.0231 77.6555 68.0287 77.3036 68.0175 76.9687C68.008 76.7078 68.0126 76.4469 68.0179 76.186C67.9632 75.3854 67.9017 74.5863 67.8529 73.7856C67.7691 72.4762 67.7272 71.1695 67.702 69.8572C67.6519 67.3608 67.6352 64.8593 67.6771 62.36C67.7635 57.2728 68.065 52.1911 68.6987 47.1428C68.8608 45.8586 69.0562 44.5826 69.3187 43.3148C69.4984 42.4463 69.7021 41.5831 69.9174 40.7226C69.8117 40.1887 69.7616 39.6521 69.7374 39.1137C69.6935 37.838 69.8304 36.5574 69.9832 35.2903C70.1106 34.2451 70.2795 33.2071 70.4936 32.1762C70.5008 32.134 70.5099 32.0918 70.5204 32.0496C70.5273 32.0159 70.5345 31.9818 70.5417 31.9481C71.0834 29.4406 71.7227 26.9528 72.4766 24.5043C73.5208 21.0996 74.7412 17.7554 76.175 14.501C81.0134 14.6509 85.811 15.3776 90.3323 16.8258C90.3316 16.8379 90.3309 16.85 90.3296 16.8621C90.2962 17.1888 90.0671 17.507 89.911 17.7862C89.71 18.1518 89.4808 18.4982 89.2576 18.8501C88.7856 19.5954 88.3361 20.3523 87.8893 21.1087C87.0127 22.5916 86.1275 24.0686 85.3095 25.5845C85.3347 25.5344 85.3625 25.484 85.3903 25.431C84.2037 27.6481 83.0479 29.8734 81.9755 32.1461C80.9005 34.4274 79.89 36.7394 78.9796 39.093C78.8484 39.4315 78.7217 39.7719 78.5953 40.1127C78.5865 40.1363 78.5773 40.1595 78.5682 40.1831C77.9158 41.9596 77.2938 43.7502 76.7403 45.5597C76.1782 47.3981 75.6823 49.2554 75.2328 51.1265C74.8171 52.9921 74.4796 54.8756 74.1798 56.7618C73.8701 58.7023 73.6606 60.6598 73.4789 62.617C73.4845 62.5554 73.4904 62.4942 73.496 62.4327C73.4819 62.5849 73.4678 62.7381 73.4537 62.8919C73.3365 64.2429 73.2528 65.5912 73.2334 66.9477C73.2148 68.246 73.237 69.5468 73.2783 70.8451C73.2783 70.8389 73.278 70.8323 73.278 70.8261C73.3614 72.6655 73.5104 74.5071 73.7084 76.3396C71.9483 76.4486 70.2962 77.2116 69.3773 78.7976C69.3151 78.9305 69.2572 79.0618 69.2035 79.192C68.6663 78.9995 68.2477 78.5776 68.1043 77.9851Z" fill="#FAA500"/>
<path d="M78.5909 40.1294C78.5794 40.16 78.5682 40.1906 78.5566 40.2212C78.5682 40.19 78.5794 40.1597 78.5909 40.1294Z" fill="#FAA500"/>
<path d="M78.5971 40.1128C78.6063 40.0894 78.6152 40.0657 78.6241 40.042C78.6129 40.0713 78.602 40.1006 78.5908 40.1299C78.5928 40.1243 78.5951 40.1187 78.5971 40.1128Z" fill="#FAA500"/>
<path d="M69.7334 38.9863C69.7347 39.0286 69.7367 39.0708 69.7386 39.113C69.7396 39.1415 69.7406 39.17 69.7416 39.1984C69.739 39.1287 69.736 39.0561 69.7334 38.9863Z" fill="#FAA500"/>
<path d="M74.5531 91.325C70.2417 90.1567 67.7201 86.315 67.8688 81.9185C67.3741 77.3772 71.8332 73.6688 76.1781 74.1535C78.0547 74.3064 79.6243 75.7772 80.3772 77.4371C80.6925 78.0342 80.5127 79.0601 79.6875 79.0595C78.2809 78.74 77.6868 77.0214 76.3119 76.5658C73.8745 75.8587 70.8194 77.3998 70.3143 79.9276C69.6338 82.8773 71.2954 85.9602 73.6424 87.6846C74.5613 88.4087 75.8821 88.5279 76.6805 89.3816C77.6285 90.8422 75.9227 92.0835 74.5531 91.325Z" fill="black"/>
<path d="M91.387 17.9771C87.8105 16.5198 84.0162 16.1335 80.2269 15.5338C78.5466 15.3927 76.8015 15.2065 75.1255 15.2294C72.7984 15.3691 70.5931 15.907 68.3295 16.3882C67.8127 16.5149 67.6042 15.6929 68.1397 15.5757C70.7064 14.9544 73.2957 14.3135 75.9547 14.3249C79.5719 14.5737 83.1825 14.8238 86.7436 15.5757C87.3155 15.5312 94.1115 17.6524 91.387 17.9771Z" fill="black"/>
</g>
<mask id="mask6_509_477" style="mask-type:luminance" maskUnits="userSpaceOnUse" x="92" y="64" width="85" height="77">
<path d="M92.3818 64.7046H176.117V140.209H92.3818V64.7046Z" fill="white"/>
</mask>
<g mask="url(#mask6_509_477)">
<path d="M97.9886 79.0149C92.5353 77.2636 92.4623 69.0741 97.2121 66.4193C98.9965 65.2668 102.58 64.7866 103.538 67.1752C106.263 67.8777 107.724 71.2238 106.906 73.8104C105.554 77.1487 101.718 80.2094 97.9886 79.0149Z" fill="#FFBCBC" fill-opacity="0.619608"/>
<path d="M112.567 87.412C109.707 86.9805 106.399 86.2198 104.476 83.8993C104.195 83.5585 103.97 83.0583 104.372 82.7153C104.873 82.3057 105.431 82.8488 105.914 83.0305C108.374 85.0116 111.379 86.3039 114.597 86.0574C114.904 86.0519 115.184 86.2529 115.242 86.5629C115.317 87.7596 113.337 87.3616 112.567 87.412Z" fill="black"/>
<path d="M154.577 139.111C153.622 138.505 153.856 136.931 154.929 136.606C155.482 136.36 155.957 136.768 156.49 136.79C166.049 134.933 168.182 121.73 168.331 113.585C168.405 108.942 167.427 104.335 165.858 100.047C162.144 91.3203 151.917 82.009 145.152 93.5881C144.789 94.2258 144.432 94.7747 144.199 95.3918C144.123 95.7201 143.784 95.9319 143.456 95.8599C142.642 95.6353 143.078 94.6392 143.188 94.0618C144.214 90.824 146.782 88.0066 149.936 86.7348C158.673 83.9541 165.658 93.5226 168.379 100.688C171.145 107.97 171.315 116.014 169.387 123.519C167.74 129.295 165.337 135.924 159.628 138.77C158.059 139.399 156.137 140.128 154.577 139.111Z" fill="#FAA500"/>
<path d="M174.354 109.566C174.171 101.095 171.166 91.6615 165.176 85.5339C162.271 82.7014 158.519 80.2005 154.337 80.2516C150.789 80.2349 147.61 81.9832 144.923 84.1479C144.702 84.4026 144.227 84.2134 144.221 83.8818C144.493 81.8824 146.739 80.7609 148.364 79.9052C156.802 75.726 164.534 81.5374 169.453 88.2116C172.715 92.9188 174.59 98.4755 175.518 104.088C175.826 105.868 176.022 107.668 176.012 109.477C176.035 109.923 175.679 110.336 175.228 110.351C174.787 110.376 174.367 110.019 174.354 109.566Z" fill="#FAA500"/>
<path d="M166.342 94.5854C164.679 91.3454 162.586 88.1678 159.379 86.3092C155.97 84.2593 151.186 83.6276 147.861 86.1363C147.159 86.6044 146.599 87.3328 145.943 87.8032C145.54 87.6801 145.957 87.2231 146.113 87.0437C149.026 83.3438 154.416 83.167 158.457 84.9579C161.893 86.5334 164.507 89.508 166.395 92.71C166.607 93.2669 167.563 94.262 166.895 94.7389C166.699 94.8355 166.472 94.7635 166.342 94.5854Z" fill="#FAA500"/>
</g>
<mask id="mask7_509_477" style="mask-type:luminance" maskUnits="userSpaceOnUse" x="102" y="60" width="8" height="12">
<path d="M102.249 60.563H109.537V71.5326H102.249V60.563Z" fill="white"/>
</mask>
<g mask="url(#mask7_509_477)">
<path d="M103.973 70.2264C102.422 68.6535 102.331 66.1176 102.803 64.0727C103.085 62.139 105.512 60.6441 106.989 62.3443C108.343 64.436 109.455 67.261 108.293 69.665C107.441 71.2163 105.2 71.45 103.973 70.2264Z" fill="black"/>
</g>
</g>
</svg>
